<svg xmlns="http://www.w3.org/2000/svg" xmlns:xlink="http://www.w3.org/1999/xlink" viewBox="0 0 1269.154 1120.991"><defs><style>.a,.c{fill:#6c63ff;}.a,.i{opacity:0.1;}.b{fill:#f8f9fa;}.d,.e{fill:none;stroke:#535461;stroke-miterlimit:10;}.e{stroke-width:2px;}.f{opacity:0.25;}.g{fill:#6f6abe;}.h{fill:#827aff;}.j{fill:#ebecf0;}.k{fill:url(#a);}.l{fill:#ffd5d8;}.m{fill:#ff7c5e;}.n{opacity:0.05;}.o{fill:#85596b;}.p{fill:#efeeff;}</style><linearGradient id="a" x1="0.5" y1="1" x2="0.5" gradientUnits="objectBoundingBox"><stop offset="0" stop-color="gray" stop-opacity="0.251"/><stop offset="0.54" stop-color="gray" stop-opacity="0.122"/><stop offset="1" stop-color="gray" stop-opacity="0.102"/></linearGradient></defs><g transform="translate(-501.054 201.056)"><g transform="translate(39 -120)"><path class="a" d="M340.189,832.774c58.731,43.636,63.791,129.344,53.7,201.834-3.383,24.263-7.633,50.117,2.615,72.362,12.536,27.205,43.636,41.134,73.357,44.929,54.168,6.908,111.137-13.716,148.32-53.713,32.137-34.568,49.193-81.2,82.3-114.846,55.433-56.3,143.089-64.558,221.733-57.494,55.646,4.989,117.547,14.327,162.476-18.89,31.611-23.381,46.905-63.535,50.6-102.679,1.762-18.9,1.421-38.732,9.95-55.661,5.1-10.063,13.062-18.393,21.505-25.883C1243.836,654.35,1362.79,647.4,1436,574.91c49.449-48.966,69.917-121.555,68.794-191.131s-21.591-137.3-44.062-203.255C1444.8,133.7,1425.629,84.3,1385.205,55.813,1342.55,25.694,1283.364,26.22,1235.436,47.2s-86.049,59.612-117.448,101.457C1078.745,200.963,1045.712,261.8,988.857,294.1c-38.789,22.074-84.088,28.058-127.568,37.709-72.674,16.1-142.421,43.138-211.542,70.784-66.179,26.452-132.628,53.841-191.671,93.81-41.788,28.243-70.955,66.8-109.033,98.586-24.817,20.709-54.751,32.691-77.1,56.542-27.517,29.38-48.2,73.1-28.427,112.288C262.284,801.049,309.033,809.606,340.189,832.774Z" transform="translate(226.365 -113.28)"/><ellipse class="b" cx="1.468" cy="1.468" rx="1.468" ry="1.468" transform="translate(907.057 291.414)"/><path class="c" d="M151.9,590.639s35.334,55.2-80.5,56.148c0,0-1.7-48.029,36.161-67.817a33.972,33.972,0,0,1,43.8,10.849Z" transform="translate(1132.781 -23.039)"/><path class="d" d="M159.114,595.61S99.787,607.3,78.88,652.685" transform="translate(1125.305 -28.936)"/><path class="e" d="M104.82,593.362s38.093-49.227,34.614-97.755A94.546,94.546,0,0,1,153.84,437.72a158.6,158.6,0,0,1,17.9-22.81" transform="translate(1094.19 22.959)"/><path class="c" d="M72.317,368.433c-2.659,6.815,1.967,31.4,1.967,31.4s20.051-14.962,22.71-21.776a13.251,13.251,0,1,0-24.678-9.623Z" transform="translate(1191.616 38.849)"/><path class="c" d="M120.6,407.223c1.468,7.171,18.718,25.291,18.718,25.291s8.711-23.452,7.242-30.651a13.251,13.251,0,1,0-25.953,5.325Z" transform="translate(1108.191 29.84)"/><path class="c" d="M153.823,495.874c4.89,5.446,28.919,12.381,28.919,12.381s-4.32-24.642-9.2-30.088a13.251,13.251,0,1,0-19.717,17.707Z" transform="translate(1050.676 6.055)"/><path class="c" d="M166.26,571.273c3.9,6.194,26.417,17.108,26.417,17.108s-.093-25.013-3.992-31.207a13.25,13.25,0,1,0-22.427,14.115Z" transform="translate(1030.911 -16.119)"/><path class="c" d="M115.059,455.028c-6.743,2.851-31.442-1.126-31.442-1.126S98,433.429,104.744,430.578a13.268,13.268,0,0,1,10.314,24.45Z" transform="translate(1157.87 18.76)"/><path class="c" d="M120.5,541.8c-7.285.713-29.66-10.485-29.66-10.485s19.866-15.2,27.151-15.9a13.251,13.251,0,1,1,2.509,26.374Z" transform="translate(1143.046 -5.879)"/><path class="c" d="M149.823,624.938c-7.064,1.917-31.007-5.325-31.007-5.325s17.015-18.341,24.079-20.251a13.25,13.25,0,1,1,6.929,25.578Z" transform="translate(1096.34 -29.88)"/><path class="f" d="M72.317,368.433c-2.659,6.815,1.967,31.4,1.967,31.4s20.051-14.962,22.71-21.776a13.251,13.251,0,1,0-24.678-9.623Z" transform="translate(1191.616 38.849)"/><path class="f" d="M120.6,407.223c1.468,7.171,18.718,25.291,18.718,25.291s8.711-23.452,7.242-30.651a13.251,13.251,0,1,0-25.953,5.325Z" transform="translate(1108.191 29.84)"/><path class="f" d="M153.823,495.874c4.89,5.446,28.919,12.381,28.919,12.381s-4.32-24.642-9.2-30.088a13.251,13.251,0,1,0-19.717,17.707Z" transform="translate(1050.676 6.055)"/><path class="f" d="M166.26,571.273c3.9,6.194,26.417,17.108,26.417,17.108s-.093-25.013-3.992-31.207a13.25,13.25,0,1,0-22.427,14.115Z" transform="translate(1030.911 -16.119)"/><path class="f" d="M115.059,455.028c-6.743,2.851-31.442-1.126-31.442-1.126S98,433.429,104.744,430.578a13.268,13.268,0,0,1,10.314,24.45Z" transform="translate(1157.87 18.76)"/><path class="f" d="M120.5,541.8c-7.285.713-29.66-10.485-29.66-10.485s19.866-15.2,27.151-15.9a13.251,13.251,0,1,1,2.509,26.374Z" transform="translate(1143.046 -5.879)"/><path class="f" d="M149.823,624.938c-7.064,1.917-31.007-5.325-31.007-5.325s17.015-18.341,24.079-20.251a13.25,13.25,0,1,1,6.929,25.578Z" transform="translate(1096.34 -29.88)"/><path class="a" d="M402.214,532.646c13.543-.3,28.092.378,38.855,5.7,19.959,9.851,17.271,29.831,30.287,43.7,10.992,11.7,32,17.785,52.37,21.662,33.188,6.323,68,8.689,100.956,15.482,19.431,4.006,38.72,9.83,52.035,19.795S696.006,663.811,687,675.6c-8.326,10.9-26.666,16.73-43.368,22.375S609.243,711.027,604.6,722.8c-2.588,6.551-.663,13.615-3.685,20.08-5.959,12.759-28.277,18.782-48.329,22.04-16.017,2.6-32.3,4.519-48.706,5.7-13.109.963-26.517,1.469-39.383-.406-11.141-1.625-21.456-4.99-32.141-7.577C364.463,746.1,286.382,760.4,217.139,746.4c-12.6-2.531-25-6.095-34.55-11.925a63.247,63.247,0,0,1-16.844-15.368c-11.305-14.256-17.5-30.245-17.977-46.276-.285-9.609,1.426-19.317-1.2-28.783-2.759-9.851-10.122-18.911-14.042-28.6-7.128-17.606-2.138-37.066,13.379-52.3a49.9,49.9,0,0,1,19.816-12.317c6.273-2.01,13.287-2.78,20.194-3.564,19.246-2.089,38.741-4.184,58.158-3.008,13.814.841,27.336,3.329,41.193,3.778,19.446.634,34.678-3.849,52.306-8.062C357.849,535.177,380.666,533.117,402.214,532.646Z" transform="translate(557.156 -10.837)"/><path class="g" d="M373.815,294.057V484.713L120.14,435.436l4.847-146.226Z" transform="translate(830.306 82.032)"/><path class="h" d="M111.36,515.024v63.013L379.577,656.4l2.737-1.418L594.468,544.912V284.372L331.911,275.89,330.293,420.5l10.507,3.236,4.042-135.256,231.051,8.012L577.5,492.4,376.348,580.46l-.157-.036Z" transform="translate(615.911 85.858)"/><path class="i" d="M408.99,611.37v63.012l268.217,78.367,2.737-1.419-6.123-74.56Z" transform="translate(318.281 -10.489)"/><path class="j" d="M529.53,511.375S659.39,524.333,672,543.1s.107,41.792.107,41.792L471.35,672.142,199.1,601.859s7.271-49.284,29.888-54.936,202.795-44.43,202.795-44.43S504.489,498.045,529.53,511.375Z" transform="translate(521.094 -1.989)"/><path class="b" d="M661.012,543.2l-204.8,70.69s-218.441-66.235-249.384-60c0,0,152.805-54.694,213.844-52.313,48.642,1.9,99.573,9.88,99.573,9.88S655.353,525.031,661.012,543.2Z" transform="translate(532.203 -1.91)"/><path class="k" d="M331.857,556.274h0l-.05-.071v-.043l-.036-.071v-.563h0v-1.1l.057-.178h0l.071-.2v-.064l.057-.142v-.078l.057-.135.036-.086.057-.135.043-.093.064-.135.043-.085.078-.15.043-.078.107-.207h0l.128-.242.043-.078.093-.171.05-.093.093-.157.057-.1.093-.157.157-.235.1-.157.064-.1.107-.171.057-.093.143-.228v-.043l.178-.271.057-.078.128-.193.071-.1.121-.171.071-.107.121-.171.078-.114.128-.143.078-.107.135-.185.071-.093.178-.242v-.036l.207-.285.071-.1.136-.185.093-.121.128-.171.093-.121.128-.171.093-.114.135-.178.093-.114.142-.185.086-.107.171-.214.057-.071h0c.642-.813,1.3-1.625,1.967-2.409a22.1,22.1,0,0,1,15.026-7.791c.592-.05,1.212-.114,1.839-.192h.264l.463-.064h.221l.713-.1h0l.677-.107.235-.043.478-.085.285-.057.435-.086.307-.064.414-.093.313-.071.414-.1.321-.078.406-.107.321-.085.406-.114h0c2.138-3.179,5.389-6.009,8.554-6.558a6.417,6.417,0,0,1,2.616.136l.15-.164.214-.242.285-.364.185-.242.3-.42.15-.207q.221-.321.421-.656a6.384,6.384,0,0,1,1.312-.421,117.833,117.833,0,0,1-18.6-4.384,3.962,3.962,0,0,1-.834-.435l-.128-.043c-5.282-1.925-11.768-20.672-7.207-23.295s11.526-24.236,15.611-35.306,15.853-12.246,15.853-12.246,17.05-13.208,24.735-11.769,8.889-10.086,9.609-10.564a.865.865,0,0,0,.207-.249c1.853-2.9,16.587-6.772,24.535-8.682,7.77-5.631,17.036-10,24.528-11.8a16.794,16.794,0,0,1,14.656,2.923c15.739.8,18.248,12.688,18.248,12.688a11.8,11.8,0,0,1-.827,4.747,19.1,19.1,0,0,0,2.545-.135c-1.825-3.015-1.882-6.893-3.243-10.207-2.687-6.558-10.1-9.944-17.107-10.828-4.084-.513-8.554-.513-11.776-3.072a8.932,8.932,0,0,1-3.193-5.282,1.9,1.9,0,0,1,.114-1.354,1.932,1.932,0,0,1,.777-.627c4.22-2.252,9.3-1.668,14.092-1.775,7.784-.171,15.368-2.3,22.9-4.277,3.186-.834,6.629-1.64,9.708-.456,2.908,1.112,4.89,3.764,7.221,5.824,9.552,8.425,25.412,7.207,33.909,16.7,1.967,2.2,3.443,5.189,2.723,8.055-.292,1.169-.941,2.245-1.148,3.436-.413,2.352.927,4.6,2.06,6.708s2.138,4.655,1.069,6.793c-1.618,3.265-6.558,3.022-9.124,5.61-1.19,1.2-1.768,2.93-3.008,4.077-1.989,1.832-5.047,1.689-7.741,1.426-1.062-.1-2.652-.392-3.236-1.326a18.483,18.483,0,0,1-29.09-4.99,26.089,26.089,0,0,0-16.395,4.434,11.647,11.647,0,0,1-3.835,5.417c-1.682,1.319-3.685,2.937-5.7,4.669,5.111,1.347,9.652,2.21,9.652,2.21s20.173,6.487,20.173,10.806a5.339,5.339,0,0,1-.713,2.217,8.831,8.831,0,0,1,.848,3.428c5.567-.941,10.022-2.359,12.324-4.448,0,0,.656-.178,1.668-.378,1.354-1.732,5.332-6.544,7.7-6.351,1.575.128,2.138,3.792,2.338,7.071a3.053,3.053,0,0,1,.542.613c2.4,3.6-1.924,10.806-4.8,12.011S510.3,484,499.5,491.929c-4.79,3.514-13.023,4.191-20.671,3.863,7.691,5.432,18.462,13.779,19.959,18.954a32.769,32.769,0,0,1,1.7,9.651c4.7,6.223,11.826,19.36-5.781,25.661-14.513,5.182-53.86,4.519-81.895,3.251-13.044,2.3-23.815,4.619-28.334,6.836,0,0-10.806,1.426-15.133,4.084s-12.246,1.925-12.246,1.925-15.368,2.644-18.733,6-9.124-5.767-1.925-10.086c2.808-1.682,6.993-4.455,11.049-7.492-5.211.613-9.808,1.283-12.731,1.967l-.292.064h-2.217l-.078-.036h-.05l-.071-.05h-.036l-.093-.078h0ZM398.2,533.251s2.024-.463,5.047-1.176l6-2.423S399,526.429,389.517,522.33c-2.716,1.19-5.1,2.138-5.7,3a1.62,1.62,0,0,1-.991.52c3.564.884,8.14,3.158,13.508,8.4a11.963,11.963,0,0,0,1.867-1.005Zm72.521-57.88-5.923-2.751c-1.29,1.1-2.673,2.138-4.028,3.151,3.251.193,7.62.406,12.56.542C471.818,475.805,470.72,475.37,470.72,475.37Z" transform="translate(546.259 30.493)"/><path class="l" d="M368.71,501.113s5.175-7.028,7.991-6.815,2.352,11.99,2.352,11.99Z" transform="translate(698.743 0.161)"/><path class="m" d="M373.245,508.1s55.015,4.469,65.358-4.94c0,0,9.637-2.587,11.99.941s-1.882,10.578-4.7,11.754-18.341.713-28.919,8.461-38.321,1.426-38.321,1.426l-11.519-4.469Z" transform="translate(627.675 -2.124)"/><path class="n" d="M373.245,508.1s55.015,4.469,65.358-4.94c0,0,9.637-2.587,11.99.941s-1.882,10.578-4.7,11.754-18.341.713-28.919,8.461-38.321,1.426-38.321,1.426l-11.519-4.469Z" transform="translate(627.675 -2.124)"/><path class="l" d="M448.369,546.111s11.754-8.461,35.968,2.138,84.632,16.224,84.632,16.224,20.215,20.215-2.851,28.448S456.1,594.347,456.1,594.347s-35.5,2.352-46.547,4.94c-6.686,1.568-1.426-6,3.813-12.218a21.591,21.591,0,0,1,14.712-7.627c6.943-.592,16.573-2.773,20.978-10.015,0,0,8.461-4.234,21.156,8.461l12.246-4.975s-33.616-10.578-34.792-17.635S448.369,546.111,448.369,546.111Z" transform="translate(473.792 -13.802)"/><path class="n" d="M448.366,546.111s11.754-8.461,35.969,2.138,84.632,16.224,84.632,16.224,20.215,20.215-2.851,28.448-110.022,1.426-110.022,1.426-35.5,2.352-46.547,4.94c-5.859,1.369-2.53-4.277,1.882-9.851A27,27,0,0,1,429.534,579.3c6.772-.77,15.411-3.129,19.51-9.873,0,0,8.461-4.234,21.156,8.461l12.253-4.976s-33.616-10.578-34.792-17.635S448.366,546.111,448.366,546.111Z" transform="translate(473.795 -13.802)"/><path class="l" d="M454.222,495.968s14.812-23.523,49.84-3.058l44.907,24.949s24.948,15.753,27.272,23.744,5.88,21.627-18.576,26.8-81.346,11.754-93.336,17.635c0,0-10.578,1.426-14.812,4s-11.99,1.882-11.99,1.882-15.047,2.588-18.341,5.881-8.932-5.646-1.882-9.872,23.038-15.518,22.81-19.959,5.41-12.289,10.842-13.244,12.46,7.05,12.46,7.05,8.932,1.426,14.342-2.138c0,0,27.743-6.351,30.565-8.226s22.1-9.166,22.1-9.166-45.62-.47-59.007-12.7c0,0-5.175-3.764-9.4-2.587C461.977,527,441.056,519.006,454.222,495.968Z" transform="translate(467.704 2.96)"/><path class="l" d="M419.747,437.962s-13.4,9.4-23.744,0-4.477,28.919-4.477,28.919,14.342-19.046,35.733-6.579Z" transform="translate(635.482 16.765)"/><path class="n" d="M419.747,437.962s-13.4,9.4-23.744,0-4.477,28.919-4.477,28.919,14.342-19.046,35.733-6.579Z" transform="translate(635.482 16.765)"/><path class="b" d="M403.37,511.592s-14.107-11.99-22.1-12.225c-2.381-.071-5.132-2.495-7.841-5.859a30.1,30.1,0,0,0-29.076-10.692,39.868,39.868,0,0,1-16.936-.862c-24.685-6.116-12.46-21.384-12.46-21.384l7.755-6.579s10.578-7.285,14.577-6.815,14.342,11.049,15.518,9.872,15.518-11.754,17.87-14.577,21.171-11.99,16.466-14.577-28.441-12.225-23.737-14.107,30.095-4.7,39.967,7.05S408.317,504.77,403.37,511.592Z" transform="translate(709.219 23.775)"/><path class="n" d="M403.37,511.592s-14.107-11.99-22.1-12.225c-2.381-.071-5.132-2.495-7.841-5.859a30.1,30.1,0,0,0-29.076-10.692,39.868,39.868,0,0,1-16.936-.862c-24.685-6.116-12.46-21.384-12.46-21.384l7.755-6.579s10.578-7.285,14.577-6.815,14.342,11.049,15.518,9.872,15.518-11.754,17.87-14.577,21.171-11.99,16.466-14.577-28.441-12.225-23.737-14.107,30.095-4.7,39.967,7.05S408.317,504.77,403.37,511.592Z" transform="translate(709.219 23.775)"/><path class="b" d="M404.651,509.293s-14.107-11.99-22.1-12.225c-2.381-.071-5.132-2.495-7.841-5.859a30.1,30.1,0,0,0-29.04-10.7,39.869,39.869,0,0,1-16.936-.863c-24.685-6.116-12.46-21.384-12.46-21.384l7.755-6.579s10.578-7.285,14.577-6.814,14.342,11.049,15.518,9.872,15.518-11.754,17.87-14.577,21.135-11.982,16.445-14.541S359.994,413.4,364.7,411.517s30.095-4.7,39.967,7.05S409.591,502.472,404.651,509.293Z" transform="translate(706.997 24.427)"/><path class="l" d="M490.3,432.879s-3.764-17.87-31.271-10.813S417.887,444.4,417.887,444.4l24.948,11.519L473.4,445.574S490.53,445.781,490.3,432.879Z" transform="translate(552.468 21.377)"/><path class="n" d="M523.95,429.063s-26.453,5.7-28.947,9.63a.851.851,0,0,1-.207.242c-.713.47-1.882,11.754-9.4,10.343S461.158,460.8,461.158,460.8s-11.519,1.176-15.518,11.99-10.814,31.977-15.283,34.557,1.882,20.921,7.05,22.81,23.744,6.351,25.39,4,15.988-4.94,15.047-12.46-6.579-14.577-2.138-19.046,7.285-16.224,13.871-18.576,18.341-3.058,25.39,1.647a32.884,32.884,0,0,0,15.568,4.911s14.577-8.461,16.929-14.342c1.582-3.963,9.466-10.593,14.441-14.492a11.4,11.4,0,0,0,4.355-8.554c.207-5.8.392-14.356-.221-15.739-.941-2.138-13.871-14.812-13.871-14.812Z" transform="translate(468.502 20.724)"/><path class="m" d="M525.35,428.444s-26.452,5.7-28.947,9.63a.845.845,0,0,1-.207.242c-.713.471-1.882,11.754-9.4,10.343s-24.236,11.519-24.236,11.519-11.519,1.176-15.518,11.99-10.813,31.977-15.283,34.557,1.882,20.921,7.05,22.81,23.744,6.351,25.391,4,15.988-4.94,15.047-12.46-6.579-14.577-2.138-19.046,7.285-16.224,13.871-18.576,18.341-3.058,25.39,1.647,16.338,5.524,16.338,5.524,13.75-9.053,16.1-14.926c1.582-3.963,9.466-10.592,14.442-14.491a11.4,11.4,0,0,0,4.355-8.554c.207-5.8.392-14.356-.221-15.739-.941-2.138-13.871-14.812-13.871-14.812Z" transform="translate(466.161 20.894)"/><path class="l" d="M411.47,502.54c.235.235,4.234,6.116-.47,9.4a10.528,10.528,0,0,1-9.167,1.618Z" transform="translate(640.937 -2.208)"/><path class="i" d="M461.74,426.632s-6.351-12.7-19.959-9.4S408.4,432.513,403.7,444.5s17.82,26.581,17.82,26.581l26.8,12.46s8.226,3.293,10.578,2.139,13.636,8.924,13.636,8.924,12.7-12.225,12.7-16.459-19.752-10.628-19.752-10.628-23.523-4.469-23.273-8.932c0,0-4-4.7-1.882-6.116s24.806-8.112,24.806-8.112S465.946,429.455,461.74,426.632Z" transform="translate(568.12 22.449)"/><path class="m" d="M460.751,425.642s-6.351-12.7-19.959-9.4-33.381,15.283-38.086,27.272,17.813,26.574,17.813,26.574l26.8,12.46s8.226,3.293,10.578,2.138,13.636,8.924,13.636,8.924,12.7-12.225,12.7-16.459-19.752-10.628-19.752-10.628-23.523-4.469-23.273-8.932c0,0-4-4.7-1.882-6.116s24.806-8.112,24.806-8.112S464.949,428.465,460.751,425.642Z" transform="translate(569.822 22.733)"/><path class="i" d="M405.676,457.59a29.32,29.32,0,0,0-12.553-4.156c-1.29-2.488,2.1-5.2,2.1-8.19,0-2.509.955-3.464,1.882-5.645,3.364-1.219,1.055-4.348,1.055-4.348Z" transform="translate(654.956 17.117)"/><ellipse class="l" cx="18.105" cy="18.105" rx="18.105" ry="18.105" transform="translate(1048.172 446.494)"/><path class="o" d="M405.248,442.314c-4.042-3.122-9.3-4.17-14.392-4.626-3.179-.285-6.415-.385-9.466-1.354a34.363,34.363,0,0,1-5.09-2.252c-2.181-1.112-4.434-2.281-5.923-4.227-2.324-3.037-2.252-7.242-3.707-10.785-2.63-6.415-9.887-9.737-16.772-10.6-4-.506-8.368-.506-11.533-3.008a8.746,8.746,0,0,1-3.129-5.168,1.86,1.86,0,0,1,.114-1.326,1.9,1.9,0,0,1,.763-.613c4.134-2.2,9.11-1.632,13.793-1.739,7.62-.164,15.047-2.259,22.418-4.191,3.122-.82,6.494-1.6,9.5-.449,2.851,1.091,4.783,3.685,7.071,5.7,9.352,8.254,24.877,7.057,33.2,16.352,1.925,2.138,3.372,5.082,2.666,7.884-.292,1.148-.919,2.2-1.126,3.364-.406,2.3.905,4.512,2.017,6.565s2.081,4.562,1.048,6.651c-1.59,3.193-6.415,2.958-8.932,5.489-1.169,1.176-1.725,2.851-2.944,3.992-1.953,1.8-4.94,1.654-7.577,1.426-1.426-.135-3.757-.606-3.35-2.516C404.236,445.173,406.5,444.438,405.248,442.314Z" transform="translate(674.601 29.712)"/><path class="b" d="M398.963,475.244s-12.346-9.267-20.1-6.23-9.872,4.7-14.812,2.851-7.05,3.764-7.05,3.764l30.765,8.881Z" transform="translate(687.209 7.596)"/><path class="n" d="M346.09,493.72s-5.646-14.577-12.46-17.4" transform="translate(756.74 5.322)"/><path class="n" d="M335.86,487.12s-5.645-14.577-12.46-17.4" transform="translate(774.263 7.218)"/><path class="n" d="M557.894,492.547s-19.959-9.637-33.381-8.7-15.753-7.52-15.753-7.52" transform="translate(420.102 5.32)"/><path class="c" d="M418.2,829.422a11.35,11.35,0,0,0,3.707-5.588c.485-2.217-.463-4.883-2.588-5.7-2.374-.912-4.918.713-6.843,2.4s-4.134,3.564-6.651,3.208a10.129,10.129,0,0,0,3.129-9.48,3.963,3.963,0,0,0-.87-1.925c-1.319-1.425-3.714-.805-5.289.307-4.99,3.564-6.415,10.357-6.451,16.5-.506-2.217-.078-4.526-.093-6.8s-.635-4.79-2.552-6.016a7.7,7.7,0,0,0-3.892-.912c-2.26-.085-4.776.143-6.315,1.8-1.917,2.053-1.426,5.5.249,7.755s4.206,3.678,6.537,5.239a14.5,14.5,0,0,1,4.669,4.455,4.419,4.419,0,0,1,.349.8h14.149a39.459,39.459,0,0,0,8.753-6.037Z" transform="translate(646.14 -90.939)"/><path class="c" d="M865.21,743a7.008,7.008,0,0,0,2.3-3.478,3.132,3.132,0,0,0-1.611-3.564c-1.476-.563-3.058.456-4.277,1.5s-2.566,2.217-4.134,2a6.3,6.3,0,0,0,1.946-5.9,2.458,2.458,0,0,0-.542-1.2c-.82-.877-2.309-.5-3.293.192-3.122,2.2-3.992,6.416-4.013,10.258a19.465,19.465,0,0,1-.057-4.227,4.313,4.313,0,0,0-1.59-3.735,4.78,4.78,0,0,0-2.424-.57,5,5,0,0,0-3.927,1.119c-1.19,1.276-.884,3.415.157,4.819a15.338,15.338,0,0,0,4.063,3.258,9.012,9.012,0,0,1,2.9,2.773,2.733,2.733,0,0,1,.214.492h8.846A24.525,24.525,0,0,0,865.21,743Z" transform="translate(-127.717 -68.061)"/><path class="c" d="M151.9,590.639s35.334,55.2-80.5,56.148c0,0-1.7-48.029,36.161-67.817a33.972,33.972,0,0,1,43.8,10.849Z" transform="translate(1132.781 -23.039)"/><path class="d" d="M159.114,595.61S99.787,607.3,78.88,652.685" transform="translate(1125.305 -28.936)"/><path class="e" d="M104.82,593.362s38.093-49.227,34.614-97.755A94.546,94.546,0,0,1,153.84,437.72a158.6,158.6,0,0,1,17.9-22.81" transform="translate(1094.19 22.959)"/><path class="c" d="M72.317,368.433c-2.659,6.815,1.967,31.4,1.967,31.4s20.051-14.962,22.71-21.776a13.251,13.251,0,1,0-24.678-9.623Z" transform="translate(1191.616 38.849)"/><path class="c" d="M120.6,407.223c1.468,7.171,18.718,25.291,18.718,25.291s8.711-23.452,7.242-30.651a13.251,13.251,0,1,0-25.953,5.325Z" transform="translate(1108.191 29.84)"/><path class="c" d="M153.823,495.874c4.89,5.446,28.919,12.381,28.919,12.381s-4.32-24.642-9.2-30.088a13.251,13.251,0,1,0-19.717,17.707Z" transform="translate(1050.676 6.055)"/><path class="c" d="M166.26,571.273c3.9,6.194,26.417,17.108,26.417,17.108s-.093-25.013-3.992-31.207a13.25,13.25,0,1,0-22.427,14.115Z" transform="translate(1030.911 -16.119)"/><path class="c" d="M115.059,455.028c-6.743,2.851-31.442-1.126-31.442-1.126S98,433.429,104.744,430.578a13.268,13.268,0,0,1,10.314,24.45Z" transform="translate(1157.87 18.76)"/><path class="c" d="M120.5,541.8c-7.285.713-29.66-10.485-29.66-10.485s19.866-15.2,27.151-15.9a13.251,13.251,0,1,1,2.509,26.374Z" transform="translate(1143.046 -5.879)"/><path class="c" d="M149.823,624.938c-7.064,1.917-31.007-5.325-31.007-5.325s17.015-18.341,24.079-20.251a13.25,13.25,0,1,1,6.929,25.578Z" transform="translate(1096.34 -29.88)"/><path class="f" d="M72.317,368.433c-2.659,6.815,1.967,31.4,1.967,31.4s20.051-14.962,22.71-21.776a13.251,13.251,0,1,0-24.678-9.623Z" transform="translate(1191.616 38.849)"/><path class="f" d="M120.6,407.223c1.468,7.171,18.718,25.291,18.718,25.291s8.711-23.452,7.242-30.651a13.251,13.251,0,1,0-25.953,5.325Z" transform="translate(1108.191 29.84)"/><path class="f" d="M153.823,495.874c4.89,5.446,28.919,12.381,28.919,12.381s-4.32-24.642-9.2-30.088a13.251,13.251,0,1,0-19.717,17.707Z" transform="translate(1050.676 6.055)"/><path class="f" d="M166.26,571.273c3.9,6.194,26.417,17.108,26.417,17.108s-.093-25.013-3.992-31.207a13.25,13.25,0,1,0-22.427,14.115Z" transform="translate(1030.911 -16.119)"/><path class="f" d="M115.059,455.028c-6.743,2.851-31.442-1.126-31.442-1.126S98,433.429,104.744,430.578a13.268,13.268,0,0,1,10.314,24.45Z" transform="translate(1157.87 18.76)"/><path class="f" d="M120.5,541.8c-7.285.713-29.66-10.485-29.66-10.485s19.866-15.2,27.151-15.9a13.251,13.251,0,1,1,2.509,26.374Z" transform="translate(1143.046 -5.879)"/><path class="f" d="M149.823,624.938c-7.064,1.917-31.007-5.325-31.007-5.325s17.015-18.341,24.079-20.251a13.25,13.25,0,1,1,6.929,25.578Z" transform="translate(1096.34 -29.88)"/><path class="a" d="M402.214,532.646c13.543-.3,28.092.378,38.855,5.7,19.959,9.851,17.271,29.831,30.287,43.7,10.992,11.7,32,17.785,52.37,21.662,33.188,6.323,68,8.689,100.956,15.482,19.431,4.006,38.72,9.83,52.035,19.795S696.006,663.811,687,675.6c-8.326,10.9-26.666,16.73-43.368,22.375S609.243,711.027,604.6,722.8c-2.588,6.551-.663,13.615-3.685,20.08-5.959,12.759-28.277,18.782-48.329,22.04-16.017,2.6-32.3,4.519-48.706,5.7-13.109.963-26.517,1.469-39.383-.406-11.141-1.625-21.456-4.99-32.141-7.577C364.463,746.1,286.382,760.4,217.139,746.4c-12.6-2.531-25-6.095-34.55-11.925a63.247,63.247,0,0,1-16.844-15.368c-11.305-14.256-17.5-30.245-17.977-46.276-.285-9.609,1.426-19.317-1.2-28.783-2.759-9.851-10.122-18.911-14.042-28.6-7.128-17.606-2.138-37.066,13.379-52.3a49.9,49.9,0,0,1,19.816-12.317c6.273-2.01,13.287-2.78,20.194-3.564,19.246-2.089,38.741-4.184,58.158-3.008,13.814.841,27.336,3.329,41.193,3.778,19.446.634,34.678-3.849,52.306-8.062C357.849,535.177,380.666,533.117,402.214,532.646Z" transform="translate(557.156 -10.837)"/><path class="g" d="M373.815,294.057V484.713L120.14,435.436l4.847-146.226Z" transform="translate(830.306 82.032)"/><path class="h" d="M111.36,515.024v63.013L379.577,656.4l2.737-1.418L594.468,544.912V284.372L331.911,275.89,330.293,420.5l10.507,3.236,4.042-135.256,231.051,8.012L577.5,492.4,376.348,580.46l-.157-.036Z" transform="translate(615.911 85.858)"/><path class="i" d="M408.99,611.37v63.012l268.217,78.367,2.737-1.419-6.123-74.56Z" transform="translate(318.281 -10.489)"/><path class="j" d="M529.53,511.375S659.39,524.333,672,543.1s.107,41.792.107,41.792L471.35,672.142,199.1,601.859s7.271-49.284,29.888-54.936,202.795-44.43,202.795-44.43S504.489,498.045,529.53,511.375Z" transform="translate(521.094 -1.989)"/><path class="b" d="M661.012,543.2l-204.8,70.69s-218.441-66.235-249.384-60c0,0,152.805-54.694,213.844-52.313,48.642,1.9,99.573,9.88,99.573,9.88S655.353,525.031,661.012,543.2Z" transform="translate(532.203 -1.91)"/><path class="k" d="M331.857,556.274h0l-.05-.071v-.043l-.036-.071v-.563h0v-1.1l.057-.178h0l.071-.2v-.064l.057-.142v-.078l.057-.135.036-.086.057-.135.043-.093.064-.135.043-.085.078-.15.043-.078.107-.207h0l.128-.242.043-.078.093-.171.05-.093.093-.157.057-.1.093-.157.157-.235.1-.157.064-.1.107-.171.057-.093.143-.228v-.043l.178-.271.057-.078.128-.193.071-.1.121-.171.071-.107.121-.171.078-.114.128-.143.078-.107.135-.185.071-.093.178-.242v-.036l.207-.285.071-.1.136-.185.093-.121.128-.171.093-.121.128-.171.093-.114.135-.178.093-.114.142-.185.086-.107.171-.214.057-.071h0c.642-.813,1.3-1.625,1.967-2.409a22.1,22.1,0,0,1,15.026-7.791c.592-.05,1.212-.114,1.839-.192h.264l.463-.064h.221l.713-.1h0l.677-.107.235-.043.478-.085.285-.057.435-.086.307-.064.414-.093.313-.071.414-.1.321-.078.406-.107.321-.085.406-.114h0c2.138-3.179,5.389-6.009,8.554-6.558a6.417,6.417,0,0,1,2.616.136l.15-.164.214-.242.285-.364.185-.242.3-.42.15-.207q.221-.321.421-.656a6.384,6.384,0,0,1,1.312-.421,117.833,117.833,0,0,1-18.6-4.384,3.962,3.962,0,0,1-.834-.435l-.128-.043c-5.282-1.925-11.768-20.672-7.207-23.295s11.526-24.236,15.611-35.306,15.853-12.246,15.853-12.246,17.05-13.208,24.735-11.769,8.889-10.086,9.609-10.564a.865.865,0,0,0,.207-.249c1.853-2.9,16.587-6.772,24.535-8.682,7.77-5.631,17.036-10,24.528-11.8a16.794,16.794,0,0,1,14.656,2.923c15.739.8,18.248,12.688,18.248,12.688a11.8,11.8,0,0,1-.827,4.747,19.1,19.1,0,0,0,2.545-.135c-1.825-3.015-1.882-6.893-3.243-10.207-2.687-6.558-10.1-9.944-17.107-10.828-4.084-.513-8.554-.513-11.776-3.072a8.932,8.932,0,0,1-3.193-5.282,1.9,1.9,0,0,1,.114-1.354,1.932,1.932,0,0,1,.777-.627c4.22-2.252,9.3-1.668,14.092-1.775,7.784-.171,15.368-2.3,22.9-4.277,3.186-.834,6.629-1.64,9.708-.456,2.908,1.112,4.89,3.764,7.221,5.824,9.552,8.425,25.412,7.207,33.909,16.7,1.967,2.2,3.443,5.189,2.723,8.055-.292,1.169-.941,2.245-1.148,3.436-.413,2.352.927,4.6,2.06,6.708s2.138,4.655,1.069,6.793c-1.618,3.265-6.558,3.022-9.124,5.61-1.19,1.2-1.768,2.93-3.008,4.077-1.989,1.832-5.047,1.689-7.741,1.426-1.062-.1-2.652-.392-3.236-1.326a18.483,18.483,0,0,1-29.09-4.99,26.089,26.089,0,0,0-16.395,4.434,11.647,11.647,0,0,1-3.835,5.417c-1.682,1.319-3.685,2.937-5.7,4.669,5.111,1.347,9.652,2.21,9.652,2.21s20.173,6.487,20.173,10.806a5.339,5.339,0,0,1-.713,2.217,8.831,8.831,0,0,1,.848,3.428c5.567-.941,10.022-2.359,12.324-4.448,0,0,.656-.178,1.668-.378,1.354-1.732,5.332-6.544,7.7-6.351,1.575.128,2.138,3.792,2.338,7.071a3.053,3.053,0,0,1,.542.613c2.4,3.6-1.924,10.806-4.8,12.011S510.3,484,499.5,491.929c-4.79,3.514-13.023,4.191-20.671,3.863,7.691,5.432,18.462,13.779,19.959,18.954a32.769,32.769,0,0,1,1.7,9.651c4.7,6.223,11.826,19.36-5.781,25.661-14.513,5.182-53.86,4.519-81.895,3.251-13.044,2.3-23.815,4.619-28.334,6.836,0,0-10.806,1.426-15.133,4.084s-12.246,1.925-12.246,1.925-15.368,2.644-18.733,6-9.124-5.767-1.925-10.086c2.808-1.682,6.993-4.455,11.049-7.492-5.211.613-9.808,1.283-12.731,1.967l-.292.064h-2.217l-.078-.036h-.05l-.071-.05h-.036l-.093-.078h0ZM398.2,533.251s2.024-.463,5.047-1.176l6-2.423S399,526.429,389.517,522.33c-2.716,1.19-5.1,2.138-5.7,3a1.62,1.62,0,0,1-.991.52c3.564.884,8.14,3.158,13.508,8.4a11.963,11.963,0,0,0,1.867-1.005Zm72.521-57.88-5.923-2.751c-1.29,1.1-2.673,2.138-4.028,3.151,3.251.193,7.62.406,12.56.542C471.818,475.805,470.72,475.37,470.72,475.37Z" transform="translate(546.259 30.493)"/><path class="l" d="M368.71,501.113s5.175-7.028,7.991-6.815,2.352,11.99,2.352,11.99Z" transform="translate(698.743 0.161)"/><path class="m" d="M373.245,508.1s55.015,4.469,65.358-4.94c0,0,9.637-2.587,11.99.941s-1.882,10.578-4.7,11.754-18.341.713-28.919,8.461-38.321,1.426-38.321,1.426l-11.519-4.469Z" transform="translate(627.675 -2.124)"/><path class="n" d="M373.245,508.1s55.015,4.469,65.358-4.94c0,0,9.637-2.587,11.99.941s-1.882,10.578-4.7,11.754-18.341.713-28.919,8.461-38.321,1.426-38.321,1.426l-11.519-4.469Z" transform="translate(627.675 -2.124)"/><path class="l" d="M448.369,546.111s11.754-8.461,35.968,2.138,84.632,16.224,84.632,16.224,20.215,20.215-2.851,28.448S456.1,594.347,456.1,594.347s-35.5,2.352-46.547,4.94c-6.686,1.568-1.426-6,3.813-12.218a21.591,21.591,0,0,1,14.712-7.627c6.943-.592,16.573-2.773,20.978-10.015,0,0,8.461-4.234,21.156,8.461l12.246-4.975s-33.616-10.578-34.792-17.635S448.369,546.111,448.369,546.111Z" transform="translate(473.792 -13.802)"/><path class="n" d="M448.366,546.111s11.754-8.461,35.969,2.138,84.632,16.224,84.632,16.224,20.215,20.215-2.851,28.448-110.022,1.426-110.022,1.426-35.5,2.352-46.547,4.94c-5.859,1.369-2.53-4.277,1.882-9.851A27,27,0,0,1,429.534,579.3c6.772-.77,15.411-3.129,19.51-9.873,0,0,8.461-4.234,21.156,8.461l12.253-4.976s-33.616-10.578-34.792-17.635S448.366,546.111,448.366,546.111Z" transform="translate(473.795 -13.802)"/><path class="l" d="M454.222,495.968s14.812-23.523,49.84-3.058l44.907,24.949s24.948,15.753,27.272,23.744,5.88,21.627-18.576,26.8-81.346,11.754-93.336,17.635c0,0-10.578,1.426-14.812,4s-11.99,1.882-11.99,1.882-15.047,2.588-18.341,5.881-8.932-5.646-1.882-9.872,23.038-15.518,22.81-19.959,5.41-12.289,10.842-13.244,12.46,7.05,12.46,7.05,8.932,1.426,14.342-2.138c0,0,27.743-6.351,30.565-8.226s22.1-9.166,22.1-9.166-45.62-.47-59.007-12.7c0,0-5.175-3.764-9.4-2.587C461.977,527,441.056,519.006,454.222,495.968Z" transform="translate(467.704 2.96)"/><path class="l" d="M419.747,437.962s-13.4,9.4-23.744,0-4.477,28.919-4.477,28.919,14.342-19.046,35.733-6.579Z" transform="translate(635.482 16.765)"/><path class="n" d="M419.747,437.962s-13.4,9.4-23.744,0-4.477,28.919-4.477,28.919,14.342-19.046,35.733-6.579Z" transform="translate(635.482 16.765)"/><path class="b" d="M403.37,511.592s-14.107-11.99-22.1-12.225c-2.381-.071-5.132-2.495-7.841-5.859a30.1,30.1,0,0,0-29.076-10.692,39.868,39.868,0,0,1-16.936-.862c-24.685-6.116-12.46-21.384-12.46-21.384l7.755-6.579s10.578-7.285,14.577-6.815,14.342,11.049,15.518,9.872,15.518-11.754,17.87-14.577,21.171-11.99,16.466-14.577-28.441-12.225-23.737-14.107,30.095-4.7,39.967,7.05S408.317,504.77,403.37,511.592Z" transform="translate(709.219 23.775)"/><path class="n" d="M403.37,511.592s-14.107-11.99-22.1-12.225c-2.381-.071-5.132-2.495-7.841-5.859a30.1,30.1,0,0,0-29.076-10.692,39.868,39.868,0,0,1-16.936-.862c-24.685-6.116-12.46-21.384-12.46-21.384l7.755-6.579s10.578-7.285,14.577-6.815,14.342,11.049,15.518,9.872,15.518-11.754,17.87-14.577,21.171-11.99,16.466-14.577-28.441-12.225-23.737-14.107,30.095-4.7,39.967,7.05S408.317,504.77,403.37,511.592Z" transform="translate(709.219 23.775)"/><path class="b" d="M404.651,509.293s-14.107-11.99-22.1-12.225c-2.381-.071-5.132-2.495-7.841-5.859a30.1,30.1,0,0,0-29.04-10.7,39.869,39.869,0,0,1-16.936-.863c-24.685-6.116-12.46-21.384-12.46-21.384l7.755-6.579s10.578-7.285,14.577-6.814,14.342,11.049,15.518,9.872,15.518-11.754,17.87-14.577,21.135-11.982,16.445-14.541S359.994,413.4,364.7,411.517s30.095-4.7,39.967,7.05S409.591,502.472,404.651,509.293Z" transform="translate(706.997 24.427)"/><path class="l" d="M490.3,432.879s-3.764-17.87-31.271-10.813S417.887,444.4,417.887,444.4l24.948,11.519L473.4,445.574S490.53,445.781,490.3,432.879Z" transform="translate(552.468 21.377)"/><path class="n" d="M523.95,429.063s-26.453,5.7-28.947,9.63a.851.851,0,0,1-.207.242c-.713.47-1.882,11.754-9.4,10.343S461.158,460.8,461.158,460.8s-11.519,1.176-15.518,11.99-10.814,31.977-15.283,34.557,1.882,20.921,7.05,22.81,23.744,6.351,25.39,4,15.988-4.94,15.047-12.46-6.579-14.577-2.138-19.046,7.285-16.224,13.871-18.576,18.341-3.058,25.39,1.647a32.884,32.884,0,0,0,15.568,4.911s14.577-8.461,16.929-14.342c1.582-3.963,9.466-10.593,14.441-14.492a11.4,11.4,0,0,0,4.355-8.554c.207-5.8.392-14.356-.221-15.739-.941-2.138-13.871-14.812-13.871-14.812Z" transform="translate(468.502 20.724)"/><path class="m" d="M525.35,428.444s-26.452,5.7-28.947,9.63a.845.845,0,0,1-.207.242c-.713.471-1.882,11.754-9.4,10.343s-24.236,11.519-24.236,11.519-11.519,1.176-15.518,11.99-10.813,31.977-15.283,34.557,1.882,20.921,7.05,22.81,23.744,6.351,25.391,4,15.988-4.94,15.047-12.46-6.579-14.577-2.138-19.046,7.285-16.224,13.871-18.576,18.341-3.058,25.39,1.647,16.338,5.524,16.338,5.524,13.75-9.053,16.1-14.926c1.582-3.963,9.466-10.592,14.442-14.491a11.4,11.4,0,0,0,4.355-8.554c.207-5.8.392-14.356-.221-15.739-.941-2.138-13.871-14.812-13.871-14.812Z" transform="translate(466.161 20.894)"/><path class="l" d="M411.47,502.54c.235.235,4.234,6.116-.47,9.4a10.528,10.528,0,0,1-9.167,1.618Z" transform="translate(640.937 -2.208)"/><path class="i" d="M461.74,426.632s-6.351-12.7-19.959-9.4S408.4,432.513,403.7,444.5s17.82,26.581,17.82,26.581l26.8,12.46s8.226,3.293,10.578,2.139,13.636,8.924,13.636,8.924,12.7-12.225,12.7-16.459-19.752-10.628-19.752-10.628-23.523-4.469-23.273-8.932c0,0-4-4.7-1.882-6.116s24.806-8.112,24.806-8.112S465.946,429.455,461.74,426.632Z" transform="translate(568.12 22.449)"/><path class="m" d="M460.751,425.642s-6.351-12.7-19.959-9.4-33.381,15.283-38.086,27.272,17.813,26.574,17.813,26.574l26.8,12.46s8.226,3.293,10.578,2.138,13.636,8.924,13.636,8.924,12.7-12.225,12.7-16.459-19.752-10.628-19.752-10.628-23.523-4.469-23.273-8.932c0,0-4-4.7-1.882-6.116s24.806-8.112,24.806-8.112S464.949,428.465,460.751,425.642Z" transform="translate(569.822 22.733)"/><path class="i" d="M405.676,457.59a29.32,29.32,0,0,0-12.553-4.156c-1.29-2.488,2.1-5.2,2.1-8.19,0-2.509.955-3.464,1.882-5.645,3.364-1.219,1.055-4.348,1.055-4.348Z" transform="translate(654.956 17.117)"/><ellipse class="l" cx="18.105" cy="18.105" rx="18.105" ry="18.105" transform="translate(1048.172 446.494)"/><path class="o" d="M405.248,442.314c-4.042-3.122-9.3-4.17-14.392-4.626-3.179-.285-6.415-.385-9.466-1.354a34.363,34.363,0,0,1-5.09-2.252c-2.181-1.112-4.434-2.281-5.923-4.227-2.324-3.037-2.252-7.242-3.707-10.785-2.63-6.415-9.887-9.737-16.772-10.6-4-.506-8.368-.506-11.533-3.008a8.746,8.746,0,0,1-3.129-5.168,1.86,1.86,0,0,1,.114-1.326,1.9,1.9,0,0,1,.763-.613c4.134-2.2,9.11-1.632,13.793-1.739,7.62-.164,15.047-2.259,22.418-4.191,3.122-.82,6.494-1.6,9.5-.449,2.851,1.091,4.783,3.685,7.071,5.7,9.352,8.254,24.877,7.057,33.2,16.352,1.925,2.138,3.372,5.082,2.666,7.884-.292,1.148-.919,2.2-1.126,3.364-.406,2.3.905,4.512,2.017,6.565s2.081,4.562,1.048,6.651c-1.59,3.193-6.415,2.958-8.932,5.489-1.169,1.176-1.725,2.851-2.944,3.992-1.953,1.8-4.94,1.654-7.577,1.426-1.426-.135-3.757-.606-3.35-2.516C404.236,445.173,406.5,444.438,405.248,442.314Z" transform="translate(674.601 29.712)"/><path class="b" d="M398.963,475.244s-12.346-9.267-20.1-6.23-9.872,4.7-14.812,2.851-7.05,3.764-7.05,3.764l30.765,8.881Z" transform="translate(687.209 7.596)"/><path class="n" d="M346.09,493.72s-5.646-14.577-12.46-17.4" transform="translate(756.74 5.322)"/><path class="n" d="M335.86,487.12s-5.645-14.577-12.46-17.4" transform="translate(774.263 7.218)"/><path class="n" d="M557.894,492.547s-19.959-9.637-33.381-8.7-15.753-7.52-15.753-7.52" transform="translate(420.102 5.32)"/><path class="c" d="M418.2,829.422a11.35,11.35,0,0,0,3.707-5.588c.485-2.217-.463-4.883-2.588-5.7-2.374-.912-4.918.713-6.843,2.4s-4.134,3.564-6.651,3.208a10.129,10.129,0,0,0,3.129-9.48,3.963,3.963,0,0,0-.87-1.925c-1.319-1.425-3.714-.805-5.289.307-4.99,3.564-6.415,10.357-6.451,16.5-.506-2.217-.078-4.526-.093-6.8s-.635-4.79-2.552-6.016a7.7,7.7,0,0,0-3.892-.912c-2.26-.085-4.776.143-6.315,1.8-1.917,2.053-1.426,5.5.249,7.755s4.206,3.678,6.537,5.239a14.5,14.5,0,0,1,4.669,4.455,4.419,4.419,0,0,1,.349.8h14.149a39.459,39.459,0,0,0,8.753-6.037Z" transform="translate(646.14 -90.939)"/><path class="c" d="M865.21,743a7.008,7.008,0,0,0,2.3-3.478,3.132,3.132,0,0,0-1.611-3.564c-1.476-.563-3.058.456-4.277,1.5s-2.566,2.217-4.134,2a6.3,6.3,0,0,0,1.946-5.9,2.458,2.458,0,0,0-.542-1.2c-.82-.877-2.309-.5-3.293.192-3.122,2.2-3.992,6.416-4.013,10.258a19.465,19.465,0,0,1-.057-4.227,4.313,4.313,0,0,0-1.59-3.735,4.78,4.78,0,0,0-2.424-.57,5,5,0,0,0-3.927,1.119c-1.19,1.276-.884,3.415.157,4.819a15.338,15.338,0,0,0,4.063,3.258,9.012,9.012,0,0,1,2.9,2.773,2.733,2.733,0,0,1,.214.492h8.846A24.525,24.525,0,0,0,865.21,743Z" transform="translate(-127.717 -68.061)"/><rect class="p" width="5" height="6" transform="translate(907 290)"/></g></g></svg>