<svg xmlns="http://www.w3.org/2000/svg" viewBox="0 0 1269.154 1120.991"><defs><style>.a,.c{fill:#6c63ff}.a,.i{opacity:.1}.b{fill:#f8f9fa}.d,.e{fill:none;stroke:#535461;stroke-miterlimit:10}.e{stroke-width:2px}.f{opacity:.25}.g{fill:#6f6abe}.h{fill:#827aff}.j{fill:#ebecf0}.k{fill:url(#a)}.l{fill:#ffd5d8}.m{fill:#ff7c5e}.n{opacity:.05}.o{fill:#85596b}</style><linearGradient id="a" x1=".5" y1="1" x2=".5" gradientUnits="objectBoundingBox"><stop offset="0" stop-color="gray" stop-opacity=".251"/><stop offset=".54" stop-color="gray" stop-opacity=".122"/><stop offset="1" stop-color="gray" stop-opacity=".102"/></linearGradient></defs><g transform="translate(-462.054 81.056)"><path class="a" d="M566.554 719.494c58.731 43.636 63.791 129.344 53.7 201.834-3.383 24.263-7.633 50.117 2.615 72.362 12.536 27.205 43.636 41.134 73.357 44.929 54.168 6.908 111.137-13.716 148.32-53.713 32.137-34.568 49.193-81.2 82.3-114.846 55.433-56.3 143.089-64.558 221.733-57.494 55.646 4.989 117.547 14.327 162.476-18.89 31.611-23.381 46.905-63.535 50.6-102.679 1.762-18.9 1.421-38.732 9.95-55.661 5.1-10.063 13.062-18.393 21.505-25.883 77.091-68.383 196.045-75.333 269.255-147.823 49.449-48.966 69.917-121.555 68.794-191.131s-21.591-137.3-44.062-203.255c-15.932-46.824-35.103-96.224-75.527-124.711-42.655-30.119-101.841-29.593-149.769-8.613s-86.049 59.612-117.448 101.457c-39.243 52.306-72.276 113.143-129.131 145.443-38.789 22.074-84.088 28.058-127.568 37.709-72.674 16.1-142.421 43.138-211.542 70.784-66.179 26.452-132.628 53.841-191.671 93.81-41.788 28.243-70.955 66.8-109.033 98.586-24.817 20.709-54.751 32.691-77.1 56.542-27.517 29.38-48.2 73.1-28.427 112.288 18.768 37.23 65.517 45.787 96.673 68.955z"/><ellipse class="b" cx="1.468" cy="1.468" rx="1.468" ry="1.468" transform="translate(907.057 291.414)"/><path class="c" d="M1284.681 567.6s35.334 55.2-80.5 56.148c0 0-1.7-48.029 36.161-67.817a33.972 33.972 0 0 1 43.8 10.849z"/><path class="d" d="M1284.419 566.674s-59.327 11.69-80.234 57.075"/><path class="e" d="M1199.01 616.321s38.093-49.227 34.614-97.755a94.546 94.546 0 0 1 14.406-57.887 158.6 158.6 0 0 1 17.9-22.81"/><path class="c" d="M1263.933 407.282c-2.659 6.815 1.967 31.4 1.967 31.4s20.051-14.962 22.71-21.776a13.251 13.251 0 1 0-24.678-9.623zm-35.142 29.781c1.468 7.171 18.718 25.291 18.718 25.291s8.711-23.452 7.242-30.651a13.251 13.251 0 1 0-25.953 5.325zm-24.292 64.866c4.89 5.446 28.919 12.381 28.919 12.381s-4.32-24.642-9.2-30.088a13.251 13.251 0 1 0-19.717 17.707zm-7.328 53.225c3.9 6.194 26.417 17.108 26.417 17.108s-.093-25.013-3.992-31.207a13.25 13.25 0 1 0-22.427 14.115zm75.758-81.366c-6.743 2.851-31.442-1.126-31.442-1.126s14.383-20.473 21.127-23.324a13.268 13.268 0 0 1 10.314 24.45zm-9.383 62.133c-7.285.713-29.66-10.485-29.66-10.485s19.866-15.2 27.151-15.9a13.251 13.251 0 1 1 2.509 26.374zm-17.383 59.137c-7.064 1.917-31.007-5.325-31.007-5.325s17.015-18.341 24.079-20.251a13.25 13.25 0 1 1 6.929 25.578z"/><path class="f" d="M1263.933 407.282c-2.659 6.815 1.967 31.4 1.967 31.4s20.051-14.962 22.71-21.776a13.251 13.251 0 1 0-24.678-9.623zm-35.142 29.781c1.468 7.171 18.718 25.291 18.718 25.291s8.711-23.452 7.242-30.651a13.251 13.251 0 1 0-25.953 5.325zm-24.292 64.866c4.89 5.446 28.919 12.381 28.919 12.381s-4.32-24.642-9.2-30.088a13.251 13.251 0 1 0-19.717 17.707zm-7.328 53.225c3.9 6.194 26.417 17.108 26.417 17.108s-.093-25.013-3.992-31.207a13.25 13.25 0 1 0-22.427 14.115zm75.758-81.366c-6.743 2.851-31.442-1.126-31.442-1.126s14.383-20.473 21.127-23.324a13.268 13.268 0 0 1 10.314 24.45zm-9.383 62.133c-7.285.713-29.66-10.485-29.66-10.485s19.866-15.2 27.151-15.9a13.251 13.251 0 1 1 2.509 26.374zm-17.383 59.137c-7.064 1.917-31.007-5.325-31.007-5.325s17.015-18.341 24.079-20.251a13.25 13.25 0 1 1 6.929 25.578z"/><path class="a" d="M959.37 521.809c13.543-.3 28.092.378 38.855 5.7 19.959 9.851 17.271 29.831 30.287 43.7 10.992 11.7 32 17.785 52.37 21.662 33.188 6.323 68 8.689 100.956 15.482 19.431 4.006 38.72 9.83 52.035 19.795s19.289 24.826 10.283 36.615c-8.326 10.9-26.666 16.73-43.368 22.375s-34.389 13.052-39.032 24.825c-2.588 6.551-.663 13.615-3.685 20.08-5.959 12.759-28.277 18.782-48.329 22.04a551.339 551.339 0 0 1-48.706 5.7c-13.109.963-26.517 1.469-39.383-.406-11.141-1.625-21.456-4.99-32.141-7.577-67.893-16.537-145.974-2.237-215.217-16.237-12.6-2.531-25-6.095-34.55-11.925a63.247 63.247 0 0 1-16.844-15.368c-11.305-14.256-17.5-30.245-17.977-46.276-.285-9.609 1.426-19.317-1.2-28.783-2.759-9.851-10.122-18.911-14.042-28.6-7.128-17.606-2.138-37.066 13.379-52.3a49.9 49.9 0 0 1 19.816-12.317c6.273-2.01 13.287-2.78 20.194-3.564 19.246-2.089 38.741-4.184 58.158-3.008 13.814.841 27.336 3.329 41.193 3.778 19.446.634 34.678-3.849 52.306-8.062 20.277-4.798 43.094-6.858 64.642-7.329z"/><path class="g" d="M1204.121 376.089v190.656l-253.675-49.277 4.847-146.226z"/><path class="h" d="M727.271 600.882v63.013l268.217 78.363 2.737-1.418 212.154-110.07V370.23l-262.557-8.482-1.618 144.61 10.507 3.236 4.042-135.256 231.051 8.012 1.607 195.908-201.152 88.06-.157-.036z"/><path class="i" d="M727.271 600.881v63.012l268.217 78.367 2.737-1.419-6.123-74.56z"/><path class="j" d="M1050.624 509.386s129.86 12.958 142.47 31.725.107 41.792.107 41.792l-200.757 87.25-272.25-70.283s7.271-49.284 29.888-54.936 202.795-44.43 202.795-44.43 72.706-4.448 97.747 8.882z"/><path class="b" d="M1193.215 541.29l-204.8 70.69s-218.441-66.235-249.384-60c0 0 152.805-54.694 213.844-52.313 48.642 1.9 99.573 9.88 99.573 9.88s135.108 13.574 140.767 31.743z"/><path class="k" d="M878.116 586.767l-.05-.071v-.043l-.036-.071v-1.663l.057-.178.071-.2v-.064l.057-.142v-.078l.057-.135.036-.086.057-.135.043-.093.064-.135.043-.085.078-.15.043-.078.107-.207.128-.242.043-.078.093-.171.05-.093.093-.157.057-.1.093-.157.157-.235.1-.157.064-.1.107-.171.057-.093.143-.228v-.043l.178-.271.057-.078.128-.193.071-.1.121-.171.071-.107.121-.171.078-.114.128-.143.078-.107.135-.185.071-.093.178-.242v-.036l.207-.285.071-.1.136-.185.093-.121.128-.171.093-.121.128-.171.093-.114.135-.178.093-.114.142-.185.086-.107.171-.214.057-.071c.642-.813 1.3-1.625 1.967-2.409a22.1 22.1 0 0 1 15.026-7.791c.592-.05 1.212-.114 1.839-.192h.264l.463-.064h.221l.713-.1.677-.107.235-.043.478-.085.285-.057.435-.086.307-.064.414-.093.313-.071.414-.1.321-.078.406-.107.321-.085.406-.114c2.138-3.179 5.389-6.009 8.554-6.558a6.417 6.417 0 0 1 2.616.136l.15-.164.214-.242.285-.364.185-.242.3-.42.15-.207q.221-.321.421-.656a6.384 6.384 0 0 1 1.312-.421 117.833 117.833 0 0 1-18.6-4.384 3.962 3.962 0 0 1-.834-.435l-.128-.043c-5.282-1.925-11.768-20.672-7.207-23.295s11.526-24.236 15.611-35.306 15.853-12.246 15.853-12.246 17.05-13.208 24.735-11.769 8.889-10.086 9.609-10.564a.865.865 0 0 0 .207-.249c1.853-2.9 16.587-6.772 24.535-8.682 7.77-5.631 17.036-10 24.528-11.8a16.794 16.794 0 0 1 14.656 2.923c15.739.8 18.248 12.688 18.248 12.688a11.8 11.8 0 0 1-.827 4.747 19.1 19.1 0 0 0 2.545-.135c-1.825-3.015-1.882-6.893-3.243-10.207-2.687-6.558-10.1-9.944-17.107-10.828-4.084-.513-8.554-.513-11.776-3.072a8.932 8.932 0 0 1-3.193-5.282 1.9 1.9 0 0 1 .114-1.354 1.932 1.932 0 0 1 .777-.627c4.22-2.252 9.3-1.668 14.092-1.775 7.784-.171 15.368-2.3 22.9-4.277 3.186-.834 6.629-1.64 9.708-.456 2.908 1.112 4.89 3.764 7.221 5.824 9.552 8.425 25.412 7.207 33.909 16.7 1.967 2.2 3.443 5.189 2.723 8.055-.292 1.169-.941 2.245-1.148 3.436-.413 2.352.927 4.6 2.06 6.708s2.138 4.655 1.069 6.793c-1.618 3.265-6.558 3.022-9.124 5.61-1.19 1.2-1.768 2.93-3.008 4.077-1.989 1.832-5.047 1.689-7.741 1.426-1.062-.1-2.652-.392-3.236-1.326a18.483 18.483 0 0 1-29.09-4.99 26.089 26.089 0 0 0-16.395 4.434 11.647 11.647 0 0 1-3.835 5.417 166.368 166.368 0 0 0-5.7 4.669c5.111 1.347 9.652 2.21 9.652 2.21s20.173 6.487 20.173 10.806a5.339 5.339 0 0 1-.713 2.217 8.831 8.831 0 0 1 .848 3.428c5.567-.941 10.022-2.359 12.324-4.448 0 0 .656-.178 1.668-.378 1.354-1.732 5.332-6.544 7.7-6.351 1.575.128 2.138 3.792 2.338 7.071a3.053 3.053 0 0 1 .542.613c2.4 3.6-1.924 10.806-4.8 12.011s-18.749.713-29.549 8.642c-4.79 3.514-13.023 4.191-20.671 3.863 7.691 5.432 18.462 13.779 19.959 18.954a32.769 32.769 0 0 1 1.7 9.651c4.7 6.223 11.826 19.36-5.781 25.661-14.513 5.182-53.86 4.519-81.895 3.251-13.044 2.3-23.815 4.619-28.334 6.836 0 0-10.806 1.426-15.133 4.084s-12.246 1.925-12.246 1.925-15.368 2.644-18.733 6-9.124-5.767-1.925-10.086c2.808-1.682 6.993-4.455 11.049-7.492-5.211.613-9.808 1.283-12.731 1.967l-.292.064h-2.217l-.078-.036h-.05l-.071-.05h-.036l-.093-.078zm66.343-23.023s2.024-.463 5.047-1.176l6-2.423s-10.247-3.223-19.73-7.322c-2.716 1.19-5.1 2.138-5.7 3a1.62 1.62 0 0 1-.991.52c3.564.884 8.14 3.158 13.508 8.4a11.963 11.963 0 0 0 1.867-1.005zm72.521-57.88l-5.923-2.751c-1.29 1.1-2.673 2.138-4.028 3.151 3.251.193 7.62.406 12.56.542-1.512-.508-2.61-.943-2.61-.943z"/><path class="l" d="M1067.453 501.274s5.175-7.028 7.991-6.815 2.352 11.99 2.352 11.99z"/><path class="m" d="M1000.92 505.976s55.015 4.469 65.358-4.94c0 0 9.637-2.587 11.99.941s-1.882 10.578-4.7 11.754-18.341.713-28.919 8.461-38.321 1.426-38.321 1.426l-11.519-4.469z"/><path class="n" d="M1000.92 505.976s55.015 4.469 65.358-4.94c0 0 9.637-2.587 11.99.941s-1.882 10.578-4.7 11.754-18.341.713-28.919 8.461-38.321 1.426-38.321 1.426l-11.519-4.469z"/><path class="l" d="M922.161 532.309s11.754-8.461 35.968 2.138 84.632 16.224 84.632 16.224 20.215 20.215-2.851 28.448-110.018 1.426-110.018 1.426-35.5 2.352-46.547 4.94c-6.686 1.568-1.426-6 3.813-12.218a21.591 21.591 0 0 1 14.712-7.627c6.943-.592 16.573-2.773 20.978-10.015 0 0 8.461-4.234 21.156 8.461l12.246-4.975s-33.616-10.578-34.792-17.635.703-9.167.703-9.167z"/><path class="n" d="M922.161 532.309s11.754-8.461 35.969 2.138 84.632 16.224 84.632 16.224 20.215 20.215-2.851 28.448-110.022 1.426-110.022 1.426-35.5 2.352-46.547 4.94c-5.859 1.369-2.53-4.277 1.882-9.851a27 27 0 0 1 18.105-10.136c6.772-.77 15.411-3.129 19.51-9.873 0 0 8.461-4.234 21.156 8.461l12.253-4.976s-33.616-10.578-34.792-17.635.705-9.166.705-9.166z"/><path class="l" d="M921.926 498.928s14.812-23.523 49.84-3.058l44.907 24.949s24.948 15.753 27.272 23.744 5.88 21.627-18.576 26.8-81.346 11.754-93.336 17.635c0 0-10.578 1.426-14.812 4s-11.99 1.882-11.99 1.882-15.047 2.588-18.341 5.881-8.932-5.646-1.882-9.872 23.038-15.518 22.81-19.959 5.41-12.289 10.842-13.244 12.46 7.05 12.46 7.05 8.932 1.426 14.342-2.138c0 0 27.743-6.351 30.565-8.226s22.1-9.166 22.1-9.166-45.62-.47-59.007-12.7c0 0-5.175-3.764-9.4-2.587-.039.041-20.96-7.953-7.794-30.991zm133.303-44.201s-13.4 9.4-23.744 0-4.477 28.919-4.477 28.919 14.342-19.046 35.733-6.579z"/><path class="n" d="M1055.229 454.727s-13.4 9.4-23.744 0-4.477 28.919-4.477 28.919 14.342-19.046 35.733-6.579z"/><path class="b" d="M1112.589 535.367s-14.107-11.99-22.1-12.225c-2.381-.071-5.132-2.495-7.841-5.859a30.1 30.1 0 0 0-29.076-10.692 39.868 39.868 0 0 1-16.936-.862c-24.685-6.116-12.46-21.384-12.46-21.384l7.755-6.579s10.578-7.285 14.577-6.815 14.342 11.049 15.518 9.872 15.518-11.754 17.87-14.577 21.171-11.99 16.466-14.577-28.441-12.225-23.737-14.107 30.095-4.7 39.967 7.05 4.944 83.933-.003 90.755z"/><path class="n" d="M1112.589 535.367s-14.107-11.99-22.1-12.225c-2.381-.071-5.132-2.495-7.841-5.859a30.1 30.1 0 0 0-29.076-10.692 39.868 39.868 0 0 1-16.936-.862c-24.685-6.116-12.46-21.384-12.46-21.384l7.755-6.579s10.578-7.285 14.577-6.815 14.342 11.049 15.518 9.872 15.518-11.754 17.87-14.577 21.171-11.99 16.466-14.577-28.441-12.225-23.737-14.107 30.095-4.7 39.967 7.05 4.944 83.933-.003 90.755z"/><path class="b" d="M1111.648 533.72s-14.107-11.99-22.1-12.225c-2.381-.071-5.132-2.495-7.841-5.859a30.1 30.1 0 0 0-29.04-10.7 39.869 39.869 0 0 1-16.936-.863c-24.685-6.116-12.46-21.384-12.46-21.384l7.755-6.579s10.578-7.285 14.577-6.814 14.342 11.049 15.518 9.872 15.518-11.754 17.87-14.577 21.135-11.982 16.445-14.541-28.445-12.223-23.739-14.106 30.095-4.7 39.967 7.05 4.924 83.905-.016 90.726z"/><path class="l" d="M1042.768 454.256s-3.764-17.87-31.271-10.813-41.142 22.334-41.142 22.334l24.948 11.519 30.565-10.345s17.13.207 16.9-12.695z"/><path class="n" d="M992.452 449.787s-26.453 5.7-28.947 9.63a.851.851 0 0 1-.207.242c-.713.47-1.882 11.754-9.4 10.343s-24.238 11.522-24.238 11.522-11.519 1.176-15.518 11.99-10.814 31.977-15.283 34.557 1.882 20.921 7.05 22.81 23.744 6.351 25.39 4 15.988-4.94 15.047-12.46-6.579-14.577-2.138-19.046 7.285-16.224 13.871-18.576 18.341-3.058 25.39 1.647a32.884 32.884 0 0 0 15.568 4.911s14.577-8.461 16.929-14.342c1.582-3.963 9.466-10.593 14.441-14.492a11.4 11.4 0 0 0 4.355-8.554c.207-5.8.392-14.356-.221-15.739-.941-2.138-13.871-14.812-13.871-14.812z"/><path class="m" d="M991.511 449.338s-26.452 5.7-28.947 9.63a.845.845 0 0 1-.207.242c-.713.471-1.882 11.754-9.4 10.343s-24.236 11.519-24.236 11.519-11.519 1.176-15.518 11.99-10.813 31.977-15.283 34.557 1.882 20.921 7.05 22.81 23.744 6.351 25.391 4 15.988-4.94 15.047-12.46-6.579-14.577-2.138-19.046 7.285-16.224 13.871-18.576 18.341-3.058 25.39 1.647 16.338 5.524 16.338 5.524 13.75-9.053 16.1-14.926c1.582-3.963 9.466-10.592 14.442-14.491a11.4 11.4 0 0 0 4.355-8.554c.207-5.8.392-14.356-.221-15.739-.941-2.138-13.871-14.812-13.871-14.812z"/><path class="l" d="M1052.407 500.332c.235.235 4.234 6.116-.47 9.4a10.528 10.528 0 0 1-9.167 1.618z"/><path class="i" d="M1029.86 449.081s-6.351-12.7-19.959-9.4-33.381 15.281-38.081 27.268 17.82 26.581 17.82 26.581l26.8 12.46s8.226 3.293 10.578 2.139 13.636 8.924 13.636 8.924 12.7-12.225 12.7-16.459-19.752-10.628-19.752-10.628-23.523-4.469-23.273-8.932c0 0-4-4.7-1.882-6.116s24.806-8.112 24.806-8.112.813-14.902-3.393-17.725z"/><path class="m" d="M1030.573 448.375s-6.351-12.7-19.959-9.4-33.381 15.283-38.086 27.272 17.813 26.574 17.813 26.574l26.8 12.46s8.226 3.293 10.578 2.138 13.636 8.924 13.636 8.924 12.7-12.225 12.7-16.459-19.752-10.628-19.752-10.628-23.523-4.469-23.273-8.932c0 0-4-4.7-1.882-6.116s24.806-8.112 24.806-8.112.817-14.898-3.381-17.721z"/><path class="i" d="M1060.632 474.707a29.32 29.32 0 0 0-12.553-4.156c-1.29-2.488 2.1-5.2 2.1-8.19 0-2.509.955-3.464 1.882-5.645 3.364-1.219 1.055-4.348 1.055-4.348z"/><ellipse class="l" cx="18.105" cy="18.105" rx="18.105" ry="18.105" transform="translate(1048.172 446.494)"/><path class="o" d="M1079.849 472.026c-4.042-3.122-9.3-4.17-14.392-4.626-3.179-.285-6.415-.385-9.466-1.354a34.363 34.363 0 0 1-5.09-2.252c-2.181-1.112-4.434-2.281-5.923-4.227-2.324-3.037-2.252-7.242-3.707-10.785-2.63-6.415-9.887-9.737-16.772-10.6-4-.506-8.368-.506-11.533-3.008a8.746 8.746 0 0 1-3.129-5.168 1.86 1.86 0 0 1 .114-1.326 1.9 1.9 0 0 1 .763-.613c4.134-2.2 9.11-1.632 13.793-1.739 7.62-.164 15.047-2.259 22.418-4.191 3.122-.82 6.494-1.6 9.5-.449 2.851 1.091 4.783 3.685 7.071 5.7 9.352 8.254 24.877 7.057 33.2 16.352 1.925 2.138 3.372 5.082 2.666 7.884-.292 1.148-.919 2.2-1.126 3.364-.406 2.3.905 4.512 2.017 6.565s2.081 4.562 1.048 6.651c-1.59 3.193-6.415 2.958-8.932 5.489-1.169 1.176-1.725 2.851-2.944 3.992-1.953 1.8-4.94 1.654-7.577 1.426-1.426-.135-3.757-.606-3.35-2.516.339-1.71 2.603-2.445 1.351-4.569z"/><path class="b" d="M1086.172 482.84s-12.346-9.267-20.1-6.23-9.872 4.7-14.812 2.851-7.05 3.764-7.05 3.764l30.765 8.881z"/><path class="n" d="M1102.83 499.042s-5.646-14.577-12.46-17.4m19.753 12.696s-5.645-14.577-12.46-17.4m-119.667 20.929s-19.959-9.637-33.381-8.7-15.753-7.52-15.753-7.52"/><path class="c" d="M1064.34 738.483a11.35 11.35 0 0 0 3.707-5.588c.485-2.217-.463-4.883-2.588-5.7-2.374-.912-4.918.713-6.843 2.4s-4.134 3.564-6.651 3.208a10.129 10.129 0 0 0 3.129-9.48 3.963 3.963 0 0 0-.87-1.925c-1.319-1.425-3.714-.805-5.289.307-4.99 3.564-6.415 10.357-6.451 16.5-.506-2.217-.078-4.526-.093-6.8s-.635-4.79-2.552-6.016a7.7 7.7 0 0 0-3.892-.912c-2.26-.085-4.776.143-6.315 1.8-1.917 2.053-1.426 5.5.249 7.755s4.206 3.678 6.537 5.239a14.5 14.5 0 0 1 4.669 4.455 4.419 4.419 0 0 1 .349.8h14.149a39.459 39.459 0 0 0 8.753-6.037zm-326.847-63.544a7.008 7.008 0 0 0 2.3-3.478 3.132 3.132 0 0 0-1.611-3.564c-1.476-.563-3.058.456-4.277 1.5s-2.566 2.217-4.134 2a6.3 6.3 0 0 0 1.946-5.9 2.458 2.458 0 0 0-.542-1.2c-.82-.877-2.309-.5-3.293.192-3.122 2.2-3.992 6.416-4.013 10.258a19.465 19.465 0 0 1-.057-4.227 4.313 4.313 0 0 0-1.59-3.735 4.78 4.78 0 0 0-2.424-.57 5 5 0 0 0-3.927 1.119c-1.19 1.276-.884 3.415.157 4.819a15.338 15.338 0 0 0 4.063 3.258 9.012 9.012 0 0 1 2.9 2.773 2.733 2.733 0 0 1 .214.492h8.846a24.525 24.525 0 0 0 5.442-3.737zM1284.681 567.6s35.334 55.2-80.5 56.148c0 0-1.7-48.029 36.161-67.817a33.972 33.972 0 0 1 43.8 10.849z"/><path class="d" d="M1284.419 566.674s-59.327 11.69-80.234 57.075"/><path class="e" d="M1199.01 616.321s38.093-49.227 34.614-97.755a94.546 94.546 0 0 1 14.406-57.887 158.6 158.6 0 0 1 17.9-22.81"/><path class="c" d="M1263.933 407.282c-2.659 6.815 1.967 31.4 1.967 31.4s20.051-14.962 22.71-21.776a13.251 13.251 0 1 0-24.678-9.623zm-35.142 29.781c1.468 7.171 18.718 25.291 18.718 25.291s8.711-23.452 7.242-30.651a13.251 13.251 0 1 0-25.953 5.325zm-24.292 64.866c4.89 5.446 28.919 12.381 28.919 12.381s-4.32-24.642-9.2-30.088a13.251 13.251 0 1 0-19.717 17.707zm-7.328 53.225c3.9 6.194 26.417 17.108 26.417 17.108s-.093-25.013-3.992-31.207a13.25 13.25 0 1 0-22.427 14.115zm75.758-81.366c-6.743 2.851-31.442-1.126-31.442-1.126s14.383-20.473 21.127-23.324a13.268 13.268 0 0 1 10.314 24.45zm-9.383 62.133c-7.285.713-29.66-10.485-29.66-10.485s19.866-15.2 27.151-15.9a13.251 13.251 0 1 1 2.509 26.374zm-17.383 59.137c-7.064 1.917-31.007-5.325-31.007-5.325s17.015-18.341 24.079-20.251a13.25 13.25 0 1 1 6.929 25.578z"/><path class="f" d="M1263.933 407.282c-2.659 6.815 1.967 31.4 1.967 31.4s20.051-14.962 22.71-21.776a13.251 13.251 0 1 0-24.678-9.623zm-35.142 29.781c1.468 7.171 18.718 25.291 18.718 25.291s8.711-23.452 7.242-30.651a13.251 13.251 0 1 0-25.953 5.325zm-24.292 64.866c4.89 5.446 28.919 12.381 28.919 12.381s-4.32-24.642-9.2-30.088a13.251 13.251 0 1 0-19.717 17.707zm-7.328 53.225c3.9 6.194 26.417 17.108 26.417 17.108s-.093-25.013-3.992-31.207a13.25 13.25 0 1 0-22.427 14.115zm75.758-81.366c-6.743 2.851-31.442-1.126-31.442-1.126s14.383-20.473 21.127-23.324a13.268 13.268 0 0 1 10.314 24.45zm-9.383 62.133c-7.285.713-29.66-10.485-29.66-10.485s19.866-15.2 27.151-15.9a13.251 13.251 0 1 1 2.509 26.374zm-17.383 59.137c-7.064 1.917-31.007-5.325-31.007-5.325s17.015-18.341 24.079-20.251a13.25 13.25 0 1 1 6.929 25.578z"/><path class="a" d="M959.37 521.809c13.543-.3 28.092.378 38.855 5.7 19.959 9.851 17.271 29.831 30.287 43.7 10.992 11.7 32 17.785 52.37 21.662 33.188 6.323 68 8.689 100.956 15.482 19.431 4.006 38.72 9.83 52.035 19.795s19.289 24.826 10.283 36.615c-8.326 10.9-26.666 16.73-43.368 22.375s-34.389 13.052-39.032 24.825c-2.588 6.551-.663 13.615-3.685 20.08-5.959 12.759-28.277 18.782-48.329 22.04a551.339 551.339 0 0 1-48.706 5.7c-13.109.963-26.517 1.469-39.383-.406-11.141-1.625-21.456-4.99-32.141-7.577-67.893-16.537-145.974-2.237-215.217-16.237-12.6-2.531-25-6.095-34.55-11.925a63.247 63.247 0 0 1-16.844-15.368c-11.305-14.256-17.5-30.245-17.977-46.276-.285-9.609 1.426-19.317-1.2-28.783-2.759-9.851-10.122-18.911-14.042-28.6-7.128-17.606-2.138-37.066 13.379-52.3a49.9 49.9 0 0 1 19.816-12.317c6.273-2.01 13.287-2.78 20.194-3.564 19.246-2.089 38.741-4.184 58.158-3.008 13.814.841 27.336 3.329 41.193 3.778 19.446.634 34.678-3.849 52.306-8.062 20.277-4.798 43.094-6.858 64.642-7.329z"/><path class="g" d="M1204.121 376.089v190.656l-253.675-49.277 4.847-146.226z"/><path class="h" d="M727.271 600.882v63.013l268.217 78.363 2.737-1.418 212.154-110.07V370.23l-262.557-8.482-1.618 144.61 10.507 3.236 4.042-135.256 231.051 8.012 1.607 195.908-201.152 88.06-.157-.036z"/><path class="i" d="M727.271 600.881v63.012l268.217 78.367 2.737-1.419-6.123-74.56z"/><path class="j" d="M1050.624 509.386s129.86 12.958 142.47 31.725.107 41.792.107 41.792l-200.757 87.25-272.25-70.283s7.271-49.284 29.888-54.936 202.795-44.43 202.795-44.43 72.706-4.448 97.747 8.882z"/><path class="b" d="M1193.215 541.29l-204.8 70.69s-218.441-66.235-249.384-60c0 0 152.805-54.694 213.844-52.313 48.642 1.9 99.573 9.88 99.573 9.88s135.108 13.574 140.767 31.743z"/><path class="k" d="M878.116 586.767l-.05-.071v-.043l-.036-.071v-1.663l.057-.178.071-.2v-.064l.057-.142v-.078l.057-.135.036-.086.057-.135.043-.093.064-.135.043-.085.078-.15.043-.078.107-.207.128-.242.043-.078.093-.171.05-.093.093-.157.057-.1.093-.157.157-.235.1-.157.064-.1.107-.171.057-.093.143-.228v-.043l.178-.271.057-.078.128-.193.071-.1.121-.171.071-.107.121-.171.078-.114.128-.143.078-.107.135-.185.071-.093.178-.242v-.036l.207-.285.071-.1.136-.185.093-.121.128-.171.093-.121.128-.171.093-.114.135-.178.093-.114.142-.185.086-.107.171-.214.057-.071c.642-.813 1.3-1.625 1.967-2.409a22.1 22.1 0 0 1 15.026-7.791c.592-.05 1.212-.114 1.839-.192h.264l.463-.064h.221l.713-.1.677-.107.235-.043.478-.085.285-.057.435-.086.307-.064.414-.093.313-.071.414-.1.321-.078.406-.107.321-.085.406-.114c2.138-3.179 5.389-6.009 8.554-6.558a6.417 6.417 0 0 1 2.616.136l.15-.164.214-.242.285-.364.185-.242.3-.42.15-.207q.221-.321.421-.656a6.384 6.384 0 0 1 1.312-.421 117.833 117.833 0 0 1-18.6-4.384 3.962 3.962 0 0 1-.834-.435l-.128-.043c-5.282-1.925-11.768-20.672-7.207-23.295s11.526-24.236 15.611-35.306 15.853-12.246 15.853-12.246 17.05-13.208 24.735-11.769 8.889-10.086 9.609-10.564a.865.865 0 0 0 .207-.249c1.853-2.9 16.587-6.772 24.535-8.682 7.77-5.631 17.036-10 24.528-11.8a16.794 16.794 0 0 1 14.656 2.923c15.739.8 18.248 12.688 18.248 12.688a11.8 11.8 0 0 1-.827 4.747 19.1 19.1 0 0 0 2.545-.135c-1.825-3.015-1.882-6.893-3.243-10.207-2.687-6.558-10.1-9.944-17.107-10.828-4.084-.513-8.554-.513-11.776-3.072a8.932 8.932 0 0 1-3.193-5.282 1.9 1.9 0 0 1 .114-1.354 1.932 1.932 0 0 1 .777-.627c4.22-2.252 9.3-1.668 14.092-1.775 7.784-.171 15.368-2.3 22.9-4.277 3.186-.834 6.629-1.64 9.708-.456 2.908 1.112 4.89 3.764 7.221 5.824 9.552 8.425 25.412 7.207 33.909 16.7 1.967 2.2 3.443 5.189 2.723 8.055-.292 1.169-.941 2.245-1.148 3.436-.413 2.352.927 4.6 2.06 6.708s2.138 4.655 1.069 6.793c-1.618 3.265-6.558 3.022-9.124 5.61-1.19 1.2-1.768 2.93-3.008 4.077-1.989 1.832-5.047 1.689-7.741 1.426-1.062-.1-2.652-.392-3.236-1.326a18.483 18.483 0 0 1-29.09-4.99 26.089 26.089 0 0 0-16.395 4.434 11.647 11.647 0 0 1-3.835 5.417 166.368 166.368 0 0 0-5.7 4.669c5.111 1.347 9.652 2.21 9.652 2.21s20.173 6.487 20.173 10.806a5.339 5.339 0 0 1-.713 2.217 8.831 8.831 0 0 1 .848 3.428c5.567-.941 10.022-2.359 12.324-4.448 0 0 .656-.178 1.668-.378 1.354-1.732 5.332-6.544 7.7-6.351 1.575.128 2.138 3.792 2.338 7.071a3.053 3.053 0 0 1 .542.613c2.4 3.6-1.924 10.806-4.8 12.011s-18.749.713-29.549 8.642c-4.79 3.514-13.023 4.191-20.671 3.863 7.691 5.432 18.462 13.779 19.959 18.954a32.769 32.769 0 0 1 1.7 9.651c4.7 6.223 11.826 19.36-5.781 25.661-14.513 5.182-53.86 4.519-81.895 3.251-13.044 2.3-23.815 4.619-28.334 6.836 0 0-10.806 1.426-15.133 4.084s-12.246 1.925-12.246 1.925-15.368 2.644-18.733 6-9.124-5.767-1.925-10.086c2.808-1.682 6.993-4.455 11.049-7.492-5.211.613-9.808 1.283-12.731 1.967l-.292.064h-2.217l-.078-.036h-.05l-.071-.05h-.036l-.093-.078zm66.343-23.023s2.024-.463 5.047-1.176l6-2.423s-10.247-3.223-19.73-7.322c-2.716 1.19-5.1 2.138-5.7 3a1.62 1.62 0 0 1-.991.52c3.564.884 8.14 3.158 13.508 8.4a11.963 11.963 0 0 0 1.867-1.005zm72.521-57.88l-5.923-2.751c-1.29 1.1-2.673 2.138-4.028 3.151 3.251.193 7.62.406 12.56.542-1.512-.508-2.61-.943-2.61-.943z"/><path class="l" d="M1067.453 501.274s5.175-7.028 7.991-6.815 2.352 11.99 2.352 11.99z"/><path class="m" d="M1000.92 505.976s55.015 4.469 65.358-4.94c0 0 9.637-2.587 11.99.941s-1.882 10.578-4.7 11.754-18.341.713-28.919 8.461-38.321 1.426-38.321 1.426l-11.519-4.469z"/><path class="n" d="M1000.92 505.976s55.015 4.469 65.358-4.94c0 0 9.637-2.587 11.99.941s-1.882 10.578-4.7 11.754-18.341.713-28.919 8.461-38.321 1.426-38.321 1.426l-11.519-4.469z"/><path class="l" d="M922.161 532.309s11.754-8.461 35.968 2.138 84.632 16.224 84.632 16.224 20.215 20.215-2.851 28.448-110.018 1.426-110.018 1.426-35.5 2.352-46.547 4.94c-6.686 1.568-1.426-6 3.813-12.218a21.591 21.591 0 0 1 14.712-7.627c6.943-.592 16.573-2.773 20.978-10.015 0 0 8.461-4.234 21.156 8.461l12.246-4.975s-33.616-10.578-34.792-17.635.703-9.167.703-9.167z"/><path class="n" d="M922.161 532.309s11.754-8.461 35.969 2.138 84.632 16.224 84.632 16.224 20.215 20.215-2.851 28.448-110.022 1.426-110.022 1.426-35.5 2.352-46.547 4.94c-5.859 1.369-2.53-4.277 1.882-9.851a27 27 0 0 1 18.105-10.136c6.772-.77 15.411-3.129 19.51-9.873 0 0 8.461-4.234 21.156 8.461l12.253-4.976s-33.616-10.578-34.792-17.635.705-9.166.705-9.166z"/><path class="l" d="M921.926 498.928s14.812-23.523 49.84-3.058l44.907 24.949s24.948 15.753 27.272 23.744 5.88 21.627-18.576 26.8-81.346 11.754-93.336 17.635c0 0-10.578 1.426-14.812 4s-11.99 1.882-11.99 1.882-15.047 2.588-18.341 5.881-8.932-5.646-1.882-9.872 23.038-15.518 22.81-19.959 5.41-12.289 10.842-13.244 12.46 7.05 12.46 7.05 8.932 1.426 14.342-2.138c0 0 27.743-6.351 30.565-8.226s22.1-9.166 22.1-9.166-45.62-.47-59.007-12.7c0 0-5.175-3.764-9.4-2.587-.039.041-20.96-7.953-7.794-30.991zm133.303-44.201s-13.4 9.4-23.744 0-4.477 28.919-4.477 28.919 14.342-19.046 35.733-6.579z"/><path class="n" d="M1055.229 454.727s-13.4 9.4-23.744 0-4.477 28.919-4.477 28.919 14.342-19.046 35.733-6.579z"/><path class="b" d="M1112.589 535.367s-14.107-11.99-22.1-12.225c-2.381-.071-5.132-2.495-7.841-5.859a30.1 30.1 0 0 0-29.076-10.692 39.868 39.868 0 0 1-16.936-.862c-24.685-6.116-12.46-21.384-12.46-21.384l7.755-6.579s10.578-7.285 14.577-6.815 14.342 11.049 15.518 9.872 15.518-11.754 17.87-14.577 21.171-11.99 16.466-14.577-28.441-12.225-23.737-14.107 30.095-4.7 39.967 7.05 4.944 83.933-.003 90.755z"/><path class="n" d="M1112.589 535.367s-14.107-11.99-22.1-12.225c-2.381-.071-5.132-2.495-7.841-5.859a30.1 30.1 0 0 0-29.076-10.692 39.868 39.868 0 0 1-16.936-.862c-24.685-6.116-12.46-21.384-12.46-21.384l7.755-6.579s10.578-7.285 14.577-6.815 14.342 11.049 15.518 9.872 15.518-11.754 17.87-14.577 21.171-11.99 16.466-14.577-28.441-12.225-23.737-14.107 30.095-4.7 39.967 7.05 4.944 83.933-.003 90.755z"/><path class="b" d="M1111.648 533.72s-14.107-11.99-22.1-12.225c-2.381-.071-5.132-2.495-7.841-5.859a30.1 30.1 0 0 0-29.04-10.7 39.869 39.869 0 0 1-16.936-.863c-24.685-6.116-12.46-21.384-12.46-21.384l7.755-6.579s10.578-7.285 14.577-6.814 14.342 11.049 15.518 9.872 15.518-11.754 17.87-14.577 21.135-11.982 16.445-14.541-28.445-12.223-23.739-14.106 30.095-4.7 39.967 7.05 4.924 83.905-.016 90.726z"/><path class="l" d="M1042.768 454.256s-3.764-17.87-31.271-10.813-41.142 22.334-41.142 22.334l24.948 11.519 30.565-10.345s17.13.207 16.9-12.695z"/><path class="n" d="M992.452 449.787s-26.453 5.7-28.947 9.63a.851.851 0 0 1-.207.242c-.713.47-1.882 11.754-9.4 10.343s-24.238 11.522-24.238 11.522-11.519 1.176-15.518 11.99-10.814 31.977-15.283 34.557 1.882 20.921 7.05 22.81 23.744 6.351 25.39 4 15.988-4.94 15.047-12.46-6.579-14.577-2.138-19.046 7.285-16.224 13.871-18.576 18.341-3.058 25.39 1.647a32.884 32.884 0 0 0 15.568 4.911s14.577-8.461 16.929-14.342c1.582-3.963 9.466-10.593 14.441-14.492a11.4 11.4 0 0 0 4.355-8.554c.207-5.8.392-14.356-.221-15.739-.941-2.138-13.871-14.812-13.871-14.812z"/><path class="m" d="M991.511 449.338s-26.452 5.7-28.947 9.63a.845.845 0 0 1-.207.242c-.713.471-1.882 11.754-9.4 10.343s-24.236 11.519-24.236 11.519-11.519 1.176-15.518 11.99-10.813 31.977-15.283 34.557 1.882 20.921 7.05 22.81 23.744 6.351 25.391 4 15.988-4.94 15.047-12.46-6.579-14.577-2.138-19.046 7.285-16.224 13.871-18.576 18.341-3.058 25.39 1.647 16.338 5.524 16.338 5.524 13.75-9.053 16.1-14.926c1.582-3.963 9.466-10.592 14.442-14.491a11.4 11.4 0 0 0 4.355-8.554c.207-5.8.392-14.356-.221-15.739-.941-2.138-13.871-14.812-13.871-14.812z"/><path class="l" d="M1052.407 500.332c.235.235 4.234 6.116-.47 9.4a10.528 10.528 0 0 1-9.167 1.618z"/><path class="i" d="M1029.86 449.081s-6.351-12.7-19.959-9.4-33.381 15.281-38.081 27.268 17.82 26.581 17.82 26.581l26.8 12.46s8.226 3.293 10.578 2.139 13.636 8.924 13.636 8.924 12.7-12.225 12.7-16.459-19.752-10.628-19.752-10.628-23.523-4.469-23.273-8.932c0 0-4-4.7-1.882-6.116s24.806-8.112 24.806-8.112.813-14.902-3.393-17.725z"/><path class="m" d="M1030.573 448.375s-6.351-12.7-19.959-9.4-33.381 15.283-38.086 27.272 17.813 26.574 17.813 26.574l26.8 12.46s8.226 3.293 10.578 2.138 13.636 8.924 13.636 8.924 12.7-12.225 12.7-16.459-19.752-10.628-19.752-10.628-23.523-4.469-23.273-8.932c0 0-4-4.7-1.882-6.116s24.806-8.112 24.806-8.112.817-14.898-3.381-17.721z"/><path class="i" d="M1060.632 474.707a29.32 29.32 0 0 0-12.553-4.156c-1.29-2.488 2.1-5.2 2.1-8.19 0-2.509.955-3.464 1.882-5.645 3.364-1.219 1.055-4.348 1.055-4.348z"/><ellipse class="l" cx="18.105" cy="18.105" rx="18.105" ry="18.105" transform="translate(1048.172 446.494)"/><path class="o" d="M1079.849 472.026c-4.042-3.122-9.3-4.17-14.392-4.626-3.179-.285-6.415-.385-9.466-1.354a34.363 34.363 0 0 1-5.09-2.252c-2.181-1.112-4.434-2.281-5.923-4.227-2.324-3.037-2.252-7.242-3.707-10.785-2.63-6.415-9.887-9.737-16.772-10.6-4-.506-8.368-.506-11.533-3.008a8.746 8.746 0 0 1-3.129-5.168 1.86 1.86 0 0 1 .114-1.326 1.9 1.9 0 0 1 .763-.613c4.134-2.2 9.11-1.632 13.793-1.739 7.62-.164 15.047-2.259 22.418-4.191 3.122-.82 6.494-1.6 9.5-.449 2.851 1.091 4.783 3.685 7.071 5.7 9.352 8.254 24.877 7.057 33.2 16.352 1.925 2.138 3.372 5.082 2.666 7.884-.292 1.148-.919 2.2-1.126 3.364-.406 2.3.905 4.512 2.017 6.565s2.081 4.562 1.048 6.651c-1.59 3.193-6.415 2.958-8.932 5.489-1.169 1.176-1.725 2.851-2.944 3.992-1.953 1.8-4.94 1.654-7.577 1.426-1.426-.135-3.757-.606-3.35-2.516.339-1.71 2.603-2.445 1.351-4.569z"/><path class="b" d="M1086.172 482.84s-12.346-9.267-20.1-6.23-9.872 4.7-14.812 2.851-7.05 3.764-7.05 3.764l30.765 8.881z"/><path class="n" d="M1102.83 499.042s-5.646-14.577-12.46-17.4m19.753 12.696s-5.645-14.577-12.46-17.4m-119.667 20.929s-19.959-9.637-33.381-8.7-15.753-7.52-15.753-7.52"/><path class="c" d="M1064.34 738.483a11.35 11.35 0 0 0 3.707-5.588c.485-2.217-.463-4.883-2.588-5.7-2.374-.912-4.918.713-6.843 2.4s-4.134 3.564-6.651 3.208a10.129 10.129 0 0 0 3.129-9.48 3.963 3.963 0 0 0-.87-1.925c-1.319-1.425-3.714-.805-5.289.307-4.99 3.564-6.415 10.357-6.451 16.5-.506-2.217-.078-4.526-.093-6.8s-.635-4.79-2.552-6.016a7.7 7.7 0 0 0-3.892-.912c-2.26-.085-4.776.143-6.315 1.8-1.917 2.053-1.426 5.5.249 7.755s4.206 3.678 6.537 5.239a14.5 14.5 0 0 1 4.669 4.455 4.419 4.419 0 0 1 .349.8h14.149a39.459 39.459 0 0 0 8.753-6.037zm-326.847-63.544a7.008 7.008 0 0 0 2.3-3.478 3.132 3.132 0 0 0-1.611-3.564c-1.476-.563-3.058.456-4.277 1.5s-2.566 2.217-4.134 2a6.3 6.3 0 0 0 1.946-5.9 2.458 2.458 0 0 0-.542-1.2c-.82-.877-2.309-.5-3.293.192-3.122 2.2-3.992 6.416-4.013 10.258a19.465 19.465 0 0 1-.057-4.227 4.313 4.313 0 0 0-1.59-3.735 4.78 4.78 0 0 0-2.424-.57 5 5 0 0 0-3.927 1.119c-1.19 1.276-.884 3.415.157 4.819a15.338 15.338 0 0 0 4.063 3.258 9.012 9.012 0 0 1 2.9 2.773 2.733 2.733 0 0 1 .214.492h8.846a24.525 24.525 0 0 0 5.442-3.737z"/><path fill="#efeeff" d="M907 290h5v6h-5z"/></g></svg>