<svg xmlns="http://www.w3.org/2000/svg" viewBox="0 0 2333.724 2214.06"><path d="M317.069 1142.115c55.699 91.292 15.628 210.214-37.736 302.921-17.87 31.029-37.785 63.74-36.076 99.496 2.093 43.733 36.612 79.637 74.812 101.054 69.625 39.023 158.121 42.262 230.411 8.418 62.479-29.25 111.126-83.11 174.41-110.578 105.95-45.947 229.26-9.144 331.97 43.49 72.68 37.229 151.455 83.776 230.53 63.361 55.638-14.38 98.353-60.42 124.794-111.444 12.74-24.654 23.134-51.712 43.96-69.983 12.425-10.844 27.773-17.774 43.315-23.302 141.92-50.458 306.93 5.254 445.84-52.896 93.824-39.283 161.307-126.448 197.88-221.352s45.92-197.894 51.579-299.574c4.042-72.174 5.11-149.627-34.078-210.364-41.315-64.171-121.811-95.865-198.25-93.677s-149.252 33.671-214.715 73.188c-81.822 49.398-159.896 113.754-254.634 126.407-64.653 8.675-129.314-8.016-193.525-18.745-107.305-17.967-216.627-19.52-325.436-19.9-104.167-.388-209.218.35-311.115 22.184-72.094 15.394-132.735 51.682-201.74 73.909-44.971 14.476-92.098 14.324-135.438 34.413-53.378 24.748-105.344 72.675-100.005 136.606 5.042 60.72 63.709 97.912 93.247 146.368z" fill="#6c63ff" opacity=".1"/></svg>