<svg xmlns="http://www.w3.org/2000/svg" viewBox="0 0 2333.724 2214.06"><defs><style>.a{fill:#6c63ff;opacity:0.1;}</style></defs><path class="a" d="M388.428,1202.324c85.842,63.779,93.238,189.052,78.488,295-4.945,35.463-11.156,73.252,3.823,105.765,18.323,39.764,63.779,60.123,107.22,65.67,79.173,10.1,162.439-20.048,216.787-78.508,46.972-50.525,71.9-118.687,120.287-167.862,81.023-82.29,209.141-94.36,324.089-84.035,81.334,7.292,171.809,20.941,237.479-27.61,46.2-34.175,68.557-92.864,73.959-150.078,2.576-27.631,2.078-56.612,14.543-81.355,7.458-14.709,19.092-26.883,31.432-37.831,112.684-99.948,286.549-110.107,393.561-216.059,72.276-71.57,102.192-177.667,100.551-279.361s-31.557-200.686-64.4-297.082c-23.289-68.433-51.314-140.646-110.4-182.28-62.346-44.022-148.853-43.254-218.906-12.59s-125.771,87.13-171.664,148.292c-57.359,76.452-105.64,165.369-188.74,212.59-56.695,32.263-122.9,41.01-186.455,55.116-106.222,23.538-208.165,63.052-309.193,103.459-96.728,38.662-193.852,78.7-280.151,137.115-61.078,41.28-103.709,97.642-159.364,144.1-36.273,30.269-80.025,47.782-112.684,82.643-40.22,42.942-70.448,106.846-41.549,164.122C274.561,1155.954,342.889,1168.461,388.428,1202.324Z" transform="translate(407.323 -118.168) rotate(22)"/></svg>