<?xml version="1.0" encoding="utf-8"?>
<!-- Generator: Adobe Illustrator 22.0.0, SVG Export Plug-In . SVG Version: 6.00 Build 0)  -->
<svg version="1.1" id="Layer_1" xmlns="http://www.w3.org/2000/svg" xmlns:xlink="http://www.w3.org/1999/xlink" x="0px" y="0px"
	 viewBox="0 0 246 104" style="enable-background:new 0 0 246 104;" xml:space="preserve">
<style type="text/css">
	.st0{enable-background:new    ;}
	.st1{fill:#5049BE;}
</style>
<g class="st0">
	<path class="st1" d="M12.1,80.9c-3.2-1.3-5.6-3-7.2-4.8c-1.6-1.9-2.3-3.6-2.3-5.1c0-0.6,0.2-1.1,0.7-1.5c0.4-0.4,0.9-0.6,1.5-0.6
		h10.6c0.4,0,0.6,0.1,0.9,0.4c1,0.6,1.6,1,1.7,1.1c1.1,0.8,2.2,1.5,3.1,1.9c1,0.4,2.1,0.7,3.5,0.7c1.6,0,2.9-0.3,3.9-0.9
		c1-0.6,1.5-1.5,1.5-2.6c0-0.9-0.3-1.7-0.8-2.3c-0.6-0.6-1.6-1.2-3.2-1.7c-1.6-0.6-3.9-1.1-7.1-1.7C8.8,61.6,3.7,57,3.7,49.6
		c0-2.4,0.8-4.7,2.3-6.9c1.6-2.2,3.8-4,6.9-5.3c3-1.3,6.6-2,10.9-2c4.3,0,8,0.7,11.1,2c3.1,1.3,5.5,2.9,7.2,4.8
		c1.6,1.8,2.5,3.5,2.5,5.1c0,0.5-0.2,1-0.6,1.4c-0.4,0.4-0.8,0.6-1.4,0.6h-9.7c-0.5,0-0.9-0.1-1.2-0.4c-0.7-0.4-1.4-0.8-2.1-1.3
		c-1.1-0.7-2-1.2-2.8-1.6c-0.8-0.4-1.8-0.6-3-0.6c-1.5,0-2.6,0.3-3.4,1c-0.8,0.6-1.2,1.5-1.2,2.5c0,0.9,0.2,1.6,0.7,2.2
		c0.5,0.6,1.5,1.1,3.1,1.6c1.6,0.5,3.9,1.1,7.1,1.7c5.7,1,9.9,2.8,12.5,5.3c2.6,2.6,3.9,5.5,3.9,8.9c0,4.4-2,7.9-5.9,10.5
		c-3.9,2.6-9.4,3.9-16.4,3.9C19.4,82.9,15.4,82.2,12.1,80.9z"/>
	<path class="st1" d="M46.5,81.4c-0.4-0.4-0.7-0.9-0.7-1.6V21.7c0-0.6,0.2-1.2,0.7-1.6c0.4-0.4,1-0.6,1.6-0.6h11
		c0.6,0,1.2,0.2,1.6,0.6c0.4,0.4,0.6,0.9,0.6,1.6v58.1c0,0.6-0.2,1.1-0.6,1.5c-0.4,0.4-0.9,0.7-1.6,0.7h-11
		C47.5,82,46.9,81.8,46.5,81.4z"/>
	<path class="st1" d="M67.8,77.1c-4.1-3.8-6.2-9.4-6.3-16.8v-2.7c0.2-7,2.4-12.4,6.5-16.4c4.1-3.9,9.6-5.9,16.6-5.9
		c5,0,9.3,1,12.8,3c3.5,2,6.1,4.8,7.8,8.4c1.7,3.6,2.6,7.6,2.6,12.1v2.2c0,0.6-0.2,1.2-0.7,1.6c-0.4,0.4-1,0.7-1.6,0.7H77.6v0.5
		c0.1,2.6,0.7,4.8,1.8,6.4c1.2,1.6,2.8,2.4,5,2.4c1.4,0,2.5-0.3,3.4-0.8c0.8-0.6,1.7-1.3,2.4-2.2c0.5-0.6,1-1,1.3-1.1
		c0.3-0.1,0.8-0.2,1.5-0.2h11.5c0.5,0,1,0.2,1.4,0.5c0.4,0.3,0.6,0.7,0.6,1.2c0,1.5-0.9,3.3-2.6,5.4c-1.7,2.1-4.3,3.8-7.6,5.3
		c-3.3,1.5-7.2,2.2-11.7,2.2C77.5,82.9,71.9,81,67.8,77.1z M91.6,54.4v-0.2c0-2.8-0.6-5-1.8-6.6c-1.2-1.6-3-2.3-5.2-2.3
		c-2.2,0-3.9,0.8-5.1,2.3c-1.2,1.6-1.8,3.7-1.8,6.6v0.2H91.6z"/>
	<path class="st1" d="M112.1,77.1c-4.1-3.8-6.2-9.4-6.3-16.8v-2.7c0.2-7,2.4-12.4,6.5-16.4c4.1-3.9,9.6-5.9,16.6-5.9
		c5,0,9.3,1,12.8,3c3.5,2,6.1,4.8,7.8,8.4c1.7,3.6,2.6,7.6,2.6,12.1v2.2c0,0.6-0.2,1.2-0.7,1.6c-0.4,0.4-1,0.7-1.6,0.7H122v0.5
		c0.1,2.6,0.7,4.8,1.8,6.4c1.2,1.6,2.8,2.4,5,2.4c1.4,0,2.5-0.3,3.4-0.8c0.8-0.6,1.7-1.3,2.4-2.2c0.5-0.6,1-1,1.3-1.1
		c0.3-0.1,0.8-0.2,1.5-0.2H149c0.5,0,1,0.2,1.4,0.5c0.4,0.3,0.6,0.7,0.6,1.2c0,1.5-0.9,3.3-2.6,5.4c-1.7,2.1-4.3,3.8-7.6,5.3
		c-3.3,1.5-7.2,2.2-11.7,2.2C121.8,82.9,116.2,81,112.1,77.1z M136,54.4v-0.2c0-2.8-0.6-5-1.8-6.6c-1.2-1.6-3-2.3-5.2-2.3
		c-2.2,0-3.9,0.8-5.1,2.3c-1.2,1.6-1.8,3.7-1.8,6.6v0.2H136z"/>
	<path class="st1" d="M152.5,98.1c-0.4-0.4-0.7-0.9-0.7-1.6V38.4c0-0.6,0.2-1.2,0.7-1.6c0.4-0.4,1-0.6,1.6-0.6h10.5
		c0.6,0,1.2,0.2,1.6,0.6c0.4,0.4,0.6,0.9,0.6,1.6v3.2c3.2-4.2,7.7-6.2,13.6-6.2c5.7,0,10.2,1.8,13.4,5.3c3.3,3.6,5,8.6,5.2,15.2
		c0.1,0.8,0.1,1.8,0.1,3.3s0,2.5-0.1,3.3c-0.2,6.3-2,11.3-5.3,15c-3.3,3.6-7.7,5.5-13.4,5.5c-5.7,0-9.9-1.9-12.8-5.8v19.4
		c0,0.6-0.2,1.2-0.6,1.6c-0.4,0.4-0.9,0.6-1.6,0.6h-11.4C153.5,98.7,153,98.5,152.5,98.1z M181.1,68.3c1.1-1.6,1.8-3.7,2-6.5
		c0.1-0.6,0.1-1.5,0.1-2.7c0-1.2,0-2.1-0.1-2.7c-0.2-2.8-0.8-4.9-2-6.5c-1.1-1.6-3-2.3-5.7-2.3c-2.5,0-4.4,0.8-5.6,2.4
		c-1.2,1.6-1.9,3.7-2,6.1c-0.1,0.8-0.1,1.9-0.1,3.3c0,1.4,0,2.5,0.1,3.3c0.1,2.3,0.8,4.2,2.1,5.7c1.3,1.5,3.1,2.2,5.6,2.2
		C178,70.6,179.9,69.9,181.1,68.3z"/>
	<path class="st1" d="M204.9,98.2c-0.4-0.4-0.5-0.8-0.5-1.3c0-0.4,0.1-0.8,0.2-1.1l7-16.5l-16.9-40c-0.2-0.5-0.3-0.8-0.3-1
		c0.1-0.6,0.4-1.1,0.7-1.5c0.4-0.4,0.8-0.6,1.4-0.6h10.5c1.2,0,2.1,0.6,2.6,1.8l9.8,25l10-25c0.6-1.2,1.5-1.8,2.6-1.8h10.4
		c0.5,0,1,0.2,1.4,0.6c0.4,0.4,0.6,0.8,0.6,1.3c0,0.4-0.1,0.8-0.2,1.1l-24.9,57.6c-0.6,1.2-1.5,1.8-2.7,1.8h-10.2
		C205.7,98.7,205.2,98.5,204.9,98.2z"/>
</g>
</svg>
