<svg xmlns="http://www.w3.org/2000/svg" viewBox="0 0 1492.42 1645.333"><defs><style>.a,.c,.d{fill:#efeeff}.i{opacity:.3}.c,.j{opacity:.4}.d,.k{opacity:.1}.e{fill:#3f3d56}.f{fill:#6c63ff}.h{fill:#e7effd}.l{fill:#d4dfec}</style><linearGradient id="a" x1=".5" y1="1" x2=".5" gradientUnits="objectBoundingBox"><stop offset=".2" stop-color="gray" stop-opacity=".4"/><stop offset=".46" stop-color="gray" stop-opacity=".502"/><stop offset="1" stop-opacity=".6"/></linearGradient></defs><g transform="rotate(-60 1033.928 596.938)"><path class="a" d="M1374.806 671.484c0 55.114-303.384 258.07-682.278 258.07S15.381 713.271 15.381 658.155s298.25 71.784 677.15 71.784 682.275-113.619 682.275-58.455z"/><path class="a" d="M1378.571 649.485v2.211c-.832 22.905-13.589 45.686-36.867 61.772-24.694 17.042-57.81 26.011-91.808 31.737-5.316.894-10.658 1.7-15.986 2.484-2.72.373-5.428.745-8.124 1.093-75.684 9.937-152.959 11.838-229.873 13.664-80.454 1.987-160.983 3.95-241.524 4.969l-15.974.186c-122.2 1.317-244.357.211-366.112-6.72-37.786-2.136-75.945-4.969-113.409-9.739q-8.012-.981-15.974-2.149c-49.686-7.118-97.894-18.036-141.817-35.762a316.1 316.1 0 0 1-30.383-14.036c-27.588-14.645-50.854-33.166-62.369-55.9a78.4 78.4 0 0 1-7.95-43.125 100.888 100.888 0 0 1 2.77-15.987 142.45 142.45 0 0 1 15.688-36.9c17.937-30.333 44.879-57.524 68.107-86.007 49.587-60.7 81.883-137.407 36.122-199.627-13.13-17.875-32.11-33.538-42.8-52.233a84.118 84.118 0 0 1-10.484-32.818 118.092 118.092 0 0 1-.658-15.987 221.763 221.763 0 0 1 4.658-37.066c7.453-38.159 21.377-79.3 64.381-103.1C167.537 4.198 204.951-.846 242.885.111q7.987.186 15.974.745c14.546.956 29 2.72 42.966 4.969C388.08 19.6 467.69 48.381 548.057 74.367c61.189 19.775 124.563 38.271 190.323 47.09a625.352 625.352 0 0 0 15.974 1.938c15.415 1.689 30.967 2.807 46.643 3.267 78.02 2.236 169.045-14.657 220.855-58.53 50.046-42.407 143.9-45.823 212.023-20.5l1.019.385q7.689 2.931 14.906 6.31c50.2 23.6 83.821 64.021 88.566 106.316a92.279 92.279 0 0 1 .422 15.825.662.662 0 0 1 0 .161c-3.254 52.034-45.786 95.733-88.975 139.506-5.341 5.4-10.695 10.807-15.986 16.247-14.012 14.384-27.588 28.88-39.364 43.8a205.4 205.4 0 0 0-14.806 21.241 137.181 137.181 0 0 0-10.521 21.39 88.969 88.969 0 0 0-5.8 23.974 62.689 62.689 0 0 0 6.211 34.284l.112.248c11.527 22.856 35.923 39.053 64.17 53.413 5.2 2.658 10.558 5.242 15.987 7.8 30.632 14.459 63.635 27.886 88.727 45.736a133.046 133.046 0 0 1 18.856 15.9 96.084 96.084 0 0 1 6.658 7.664 67.251 67.251 0 0 1 14.509 40.606c.005.376.005.712.005 1.047z"/><path class="a" d="M1378.571 649.485v2.211c-.832 22.905-13.589 45.686-36.867 61.772-24.694 17.042-57.81 26.011-91.808 31.737-5.316.894-10.658 1.7-15.986 2.484-2.72.373-5.428.745-8.124 1.093-75.684 9.937-152.959 11.838-229.873 13.664-80.454 1.987-160.983 3.95-241.524 4.969l-15.974.186c-122.2 1.317-244.357.211-366.112-6.72-37.786-2.136-75.945-4.969-113.409-9.739q-8.012-.981-15.974-2.149c-49.686-7.118-97.894-18.036-141.817-35.762a316.1 316.1 0 0 1-30.383-14.036c-27.588-14.645-50.854-33.166-62.369-55.9a78.4 78.4 0 0 1-7.95-43.125 100.888 100.888 0 0 1 2.77-15.987 142.45 142.45 0 0 1 15.688-36.9c17.937-30.333 44.879-57.524 68.107-86.007 49.587-60.7 81.883-137.407 36.122-199.627-13.13-17.875-32.11-33.538-42.8-52.233a84.118 84.118 0 0 1-10.484-32.818 118.092 118.092 0 0 1-.658-15.987 221.763 221.763 0 0 1 4.658-37.066c7.453-38.159 21.377-79.3 64.381-103.1C167.537 4.198 204.951-.846 242.885.111q7.987.186 15.974.745c14.546.956 29 2.72 42.966 4.969C388.08 19.6 467.69 48.381 548.057 74.367c61.189 19.775 124.563 38.271 190.323 47.09a625.352 625.352 0 0 0 15.974 1.938c15.415 1.689 30.967 2.807 46.643 3.267 78.02 2.236 169.045-14.657 220.855-58.53 50.046-42.407 143.9-45.823 212.023-20.5l1.019.385q7.689 2.931 14.906 6.31c50.2 23.6 83.821 64.021 88.566 106.316a92.279 92.279 0 0 1 .422 15.825.662.662 0 0 1 0 .161c-3.254 52.034-45.786 95.733-88.975 139.506-5.341 5.4-10.695 10.807-15.986 16.247-14.012 14.384-27.588 28.88-39.364 43.8a205.4 205.4 0 0 0-14.806 21.241 137.181 137.181 0 0 0-10.521 21.39 88.969 88.969 0 0 0-5.8 23.974 62.689 62.689 0 0 0 6.211 34.284l.112.248c11.527 22.856 35.923 39.053 64.17 53.413 5.2 2.658 10.558 5.242 15.987 7.8 30.632 14.459 63.635 27.886 88.727 45.736a133.046 133.046 0 0 1 18.856 15.9 96.084 96.084 0 0 1 6.658 7.664 67.251 67.251 0 0 1 14.509 40.606c.005.376.005.712.005 1.047z"/><path class="a" d="M1249.858 54.332v261.8c-5.341 5.416-10.7 10.819-15.986 16.26V47.637z"/><path class="a" d="M1338.847 176.473a.7.7 0 0 1 0 .161H69.804a118.269 118.269 0 0 1-.658-15.987h1269.278a92.254 92.254 0 0 1 .423 15.825z"/><circle class="a" cx="4.658" cy="4.658" r="4.658" transform="translate(295.152 84.541)"/><circle class="a" cx="4.658" cy="4.658" r="4.658" transform="translate(145.969 75.213)"/><circle class="a" cx="2" cy="2" r="2" transform="translate(350.427 87.199)"/><circle class="a" cx="2" cy="2" r="2" transform="translate(200.574 82.541)"/><circle class="a" cx="2" cy="2" r="2" transform="translate(198.587 222.221)"/><circle class="a" cx="2" cy="2" r="2" transform="translate(1120.973 116.663)"/><circle class="a" cx="2" cy="2" r="2" transform="translate(443.663 118.501)"/><circle class="a" cx="2" cy="2" r="2" transform="translate(1022.407 114.502)"/><circle class="a" cx="2" cy="2" r="2" transform="translate(1274.155 120.501)"/><path class="a" d="M1378.57 649.484v2.211c-.633 23.079-13.415 46.1-36.867 62.294-24.694 17.042-57.81 26.011-91.807 31.737-5.317.894-10.658 1.7-15.986 2.484-2.72.373-5.428.745-8.124 1.093-18.632 2.484-37.364 4.385-56.158 5.975-25.216 2.136-50.556 3.615-75.921 4.708-32.569 1.428-65.2 2.236-97.795 3.043-63.71 1.565-127.47 3.13-191.292 4.211l-22.644.373-27.626.373-15.974.186c-100.615 1.068-201.08.522-301.371-3.577q-10.012-.4-19.986-.869-22.359-.981-44.717-2.273c-29.874-1.689-59.984-3.826-89.771-6.993q-11.85-1.242-23.6-2.745-8.012-.981-15.974-2.149-8.869-1.242-17.663-2.708c-43.475-7.105-85.448-17.39-124.153-33.066a322.162 322.162 0 0 1-30.422-14.075V481.098c5.515-6.4 10.993-12.794 16.26-19.266 6.335-7.776 12.422-15.788 18.011-24.011h120.241v-74.094h211.788v162.9h344.957V397.439h397.986a139.106 139.106 0 0 0-10.422 20.682v.7h-.46a88.967 88.967 0 0 0-5.8 23.974 62.691 62.691 0 0 0 6.211 34.282v.522l.112.249c11.527 22.856 35.923 39.053 64.17 53.413 5.2 2.658 10.558 5.242 15.987 7.8 30.321 14.31 62.99 27.625 87.982 45.214l.745.522a133.658 133.658 0 0 1 18.4 15.378 9.9 9.9 0 0 1 .509.522 96.028 96.028 0 0 1 6.658 7.664 67.337 67.337 0 0 1 14.508 40.084c.008.369.008.704.008 1.039z"/><path d="M1378.57 649.484v2.211c-.633 23.079-13.415 46.1-36.867 62.294-24.694 17.042-57.81 26.011-91.807 31.737-5.317.894-10.658 1.7-15.986 2.484-2.72.373-5.428.745-8.124 1.093-18.632 2.484-37.364 4.385-56.158 5.975-25.216 2.136-50.556 3.615-75.921 4.708-32.569 1.428-65.2 2.236-97.795 3.043-63.71 1.565-127.47 3.13-191.292 4.211l-22.644.373-27.626.373-15.974.186c-100.615 1.068-201.08.522-301.371-3.577q-10.012-.4-19.986-.869-22.359-.981-44.717-2.273c-29.874-1.689-59.984-3.826-89.771-6.993q-11.85-1.242-23.6-2.745-8.012-.981-15.974-2.149-8.869-1.242-17.663-2.708c-43.475-7.105-85.448-17.39-124.153-33.066a322.162 322.162 0 0 1-30.422-14.075V481.098c5.515-6.4 10.993-12.794 16.26-19.266 6.335-7.776 12.422-15.788 18.011-24.011h120.241v-74.094h211.788v162.9h344.957V397.439h397.986a139.106 139.106 0 0 0-10.422 20.682v.7h-.46a88.967 88.967 0 0 0-5.8 23.974 62.691 62.691 0 0 0 6.211 34.282v.522l.112.249c11.527 22.856 35.923 39.053 64.17 53.413 5.2 2.658 10.558 5.242 15.987 7.8 30.321 14.31 62.99 27.625 87.982 45.214l.745.522a133.658 133.658 0 0 1 18.4 15.378 9.9 9.9 0 0 1 .509.522 96.028 96.028 0 0 1 6.658 7.664 67.337 67.337 0 0 1 14.508 40.084c.008.369.008.704.008 1.039z" opacity=".3" fill="#efeeff"/><path class="c" d="M110.22 468.031h35.526v23.974H110.22zm56.841 0h35.526v23.974h-35.526zm652.665-49.276h35.526v23.974h-35.526zm95.906 0h35.526v23.974h-35.526zm102.999 0h35.526v23.974h-35.526zm-198.905 73.262h35.526v23.974h-35.526zm95.906 0h35.526v23.974h-35.526z"/><path class="a" d="M1018.631 492.017h35.526v23.974h-35.526z"/><path class="c" d="M819.726 565.267h35.526v23.974h-35.526zm95.906 0h35.526v23.974h-35.526zm102.999 0h35.526v23.974h-35.526zm-198.905 73.262h35.526v23.974h-35.526zm95.906 0h35.526v23.974h-35.526zm102.999 0h35.526v23.974h-35.526zm-198.905 73.263h35.526v23.974h-35.526zm95.906 0h35.526v23.974h-35.526zm102.999 0h35.526v23.974h-35.526zm150.5-292.975a88.959 88.959 0 0 0-5.8 23.974h-19.49v-23.974z"/><path class="a" d="M1143.841 492.017h35.526v23.974h-35.526z"/><path class="c" d="M1143.841 565.267h35.526v23.974h-35.526zm0 73.262h35.526v23.974h-35.526zm0 73.263h35.526v23.974h-35.526zM307.362 390.781h35.526v23.974h-35.526z"/><path class="a" d="M307.362 444.53h35.526v23.974h-35.526z"/><path class="c" d="M307.362 498.265h35.526v23.974h-35.526zm0 53.748h35.526v23.974h-35.526zm0 53.736h35.526v23.974h-35.526zm0 53.748h35.526v23.974h-35.526zm0 53.735h35.526v23.974h-35.526zM110.22 530.685h35.526v23.974H110.22zm56.841 0h35.526v23.974h-35.526zM110.22 593.34h35.526v23.974H110.22zm56.841 0h35.526v23.974h-35.526zm-56.841 62.654h35.526v23.974H110.22zm56.841 0h35.526v23.974h-35.526zM508.044 554.56h177.603v21.427H508.044zm0 68.368h177.603v21.427H508.044zm0 68.38h177.603v21.427H508.044z"/><path class="a" d="M258.856.857v750.261q-8.012-.981-15.974-2.149V.112c5.329.099 10.645.373 15.974.745zm495.495 122.514v644.07l-15.974.186V121.421q7.975 1.081 15.974 1.95z"/><path class="a" d="M1357.392 600.172H.401a100.883 100.883 0 0 1 2.77-15.987h1335.415a131.492 131.492 0 0 1 18.806 15.987z"/><path class="a" d="M1233.872 530.685c5.2 2.658 10.558 5.242 15.986 7.8v206.72c-5.317.894-10.658 1.7-15.986 2.484zM419.069 285.46h-3.056v-3.056h-.547v3.056h-3.055v.547h3.056v3.056h.547v-3.056h3.056zm635.088-63.512h-3.056v-3.056h-.559v3.056h-3.043v.547h3.043v3.056h.559v-3.056h3.056zm-562.706-12.359h-3.056v-3.056h-.559v3.056h-3.045v.559h3.043v3.043h.559v-3.043h3.058z"/><circle class="a" cx="2" cy="2" r="2" transform="translate(484.791 402.893)"/><circle class="a" cx="2" cy="2" r="2" transform="translate(940.873 224.221)"/><circle class="a" cx="2" cy="2" r="2" transform="translate(1141.841 318.935)"/><circle class="a" cx="2" cy="2" r="2" transform="translate(827.104 336.09)"/><path class="a" d="M1027.178 697.059s-8.434 39.289 29.1 43.948l2.323-4.36s-29.063-27.328-31.423-39.588z"/><path class="a" d="M1070.578 736.386l-8.695 1.851-.87.186s-23.291-18.906-22.992-61.114a105.588 105.588 0 0 0 11.117 17.6c9.205 12.212 19.701 28.521 21.44 41.477z"/><path class="a" d="M1073.535 740.435a5.5 5.5 0 0 1-4.7.609c-22.359-5.242-14.844-78.256-14.844-78.256 1.242.584 2.6 9.937 7.751 21.862 9.048 21.104 18.985 50.493 11.793 55.785zm49.711-43.376s1.453 39.289-36.085 43.948l-2.323-4.36s36.08-27.328 38.408-39.588z"/><path class="a" d="M1112.488 677.309c.273 42.233-29.985 61.114-29.985 61.114l-.87-.186-8.695-1.851c1.727-12.956 12.248-29.265 21.465-41.476a94.4 94.4 0 0 1 18.085-17.6z"/><path class="a" d="M1081.497 736.61a13.887 13.887 0 0 1-4.969 3.826 9.565 9.565 0 0 1-1.826.609c-5.515 1.242-7.453-2.683-7.13-9.44.522-12.036 8.087-32.9 14.906-48.444 4.894-11.254 12.881-19.775 14.074-20.334-.074-.063-.406 56.815-15.055 73.783z"/><path class="a" d="M1075.236 637.15s-25.029 88.764-3.49 102.155 9.015-94.292 3.49-102.155z"/><path class="d" d="M1027.178 697.059s-8.434 39.289 29.1 43.948l2.323-4.36s-29.063-27.328-31.423-39.588z"/><path class="d" d="M1070.578 736.386l-8.695 1.851-.87.186s-23.291-18.906-22.992-61.114a105.588 105.588 0 0 0 11.117 17.6c9.205 12.212 19.701 28.521 21.44 41.477z"/><path class="d" d="M1073.535 740.435a5.5 5.5 0 0 1-4.7.609c-22.359-5.242-14.844-78.256-14.844-78.256 1.242.584 2.6 9.937 7.751 21.862 9.048 21.104 18.985 50.493 11.793 55.785zm49.711-43.376s1.453 39.289-36.085 43.948l-2.323-4.36s36.08-27.328 38.408-39.588z"/><path class="d" d="M1112.488 677.309c.273 42.233-29.985 61.114-29.985 61.114l-.87-.186-8.695-1.851c1.727-12.956 12.248-29.265 21.465-41.476a94.4 94.4 0 0 1 18.085-17.6z"/><path class="d" d="M1081.497 736.61a13.887 13.887 0 0 1-4.969 3.826 9.565 9.565 0 0 1-1.826.609c-5.515 1.242-7.453-2.683-7.13-9.44.522-12.036 8.087-32.9 14.906-48.444 4.894-11.254 12.881-19.775 14.074-20.334-.074-.063-.406 56.815-15.055 73.783z"/><path class="d" d="M1075.236 637.15s-25.029 88.764-3.49 102.155 9.015-94.292 3.49-102.155z"/><path class="a" d="M1027.177 697.059s-4.969 39.289 32.594 43.948l2.323-4.36s-32.559-27.328-34.917-39.588z"/><path class="a" d="M1074.069 736.386l-8.7 1.851-.882.186s-26.781-18.906-26.483-61.114c0 0 6.857 7.354 14.608 17.6 9.222 12.212 19.718 28.521 21.457 41.477z"/><path class="d" d="M1074.069 736.385l-8.695 1.851c-8.285-7.267-11.564-26.234-12.757-43.326 9.22 12.21 19.713 28.52 21.452 41.475z"/><path class="a" d="M1077.025 740.435a5.5 5.5 0 0 1-4.7.609c-22.421-5.242-18.334-78.256-18.334-78.256 1.242.584 6.086 9.937 11.179 21.862 9.11 21.104 19.047 50.493 11.855 55.785zm46.221-43.376s4.969 39.289-32.594 43.948l-2.323-4.36s32.594-27.328 34.917-39.588z"/><path class="a" d="M1112.489 677.309c.273 42.233-26.5 61.114-26.5 61.114l-.87-.186-8.695-1.851c1.739-12.955 12.248-29.265 21.464-41.475 7.732-10.273 14.601-17.602 14.601-17.602z"/><path class="d" d="M1097.856 694.91c-1.118 15.949-4.037 33.538-11.117 41.7a14.279 14.279 0 0 1-1.615 1.627l-8.7-1.851c1.682-12.956 12.215-29.266 21.432-41.476z"/><path class="a" d="M1084.988 736.61a13.889 13.889 0 0 1-4.969 3.826 9.668 9.668 0 0 1-1.838.609c-5.515 1.242-7.453-2.683-7.13-9.44.534-12.036 8.086-32.9 14.906-48.444 4.894-11.254 9.391-19.775 10.583-20.334-.062-.063 3.093 56.815-11.552 73.783z"/><path class="d" d="M1077.025 740.44a6.21 6.21 0 0 1-3.54-1.13c-10.546-6.571-10.757-31.228-8.248-54.655 9.043 21.099 18.98 50.485 11.788 55.785z"/><path class="d" d="M1084.988 736.61c-1.242 2.621-2.845 4.012-4.969 3.826a7.13 7.13 0 0 1-3.006-1.13 16 16 0 0 1-5.962-7.7c.534-12.037 8.087-32.9 14.906-48.444 2.36 21.599 3.167 44.567-.969 53.448z"/><path class="a" d="M1075.236 637.15s-21.539 88.764 0 102.155 5.528-94.292 0-102.155z"/><path class="a" d="M1116.563 734.933h-89.634v14.84h13.676l.335 1.752 5.478 28.805h52.108l5.478-28.805.335-1.752h12.223z"/><path class="d" d="M1116.526 734.933h-89.634v14.84h13.676l.336 1.752 5.478 28.805h52.109l5.478-28.805.335-1.752h12.223z"/><path class="a" d="M1108.998 743.665l-1.5 7.863-5.478 28.806h-52.111l-5.478-28.806-1.5-7.863z"/><path class="d" d="M1108.998 743.665l-1.5 7.863h-63.067l-1.5-7.863z"/><path class="a" d="M1030.419 734.933h89.634v14.844h-89.634zm-675.582-95.012a22.915 22.915 0 0 0-3.031 5.714c-.186.5-.373 1.068-.559 1.615a4.419 4.419 0 0 0-1.056-.36 14.669 14.669 0 0 0-4.745-.41c0-.621.062-1.242.087-1.95.2-7.031-.634-16.806-7.329-12.67-6.422 4-1.838 10.633 2.31 14.906.36.373.708.708 1.056 1.043-3.726 2.72-4.5 8.968-5.13 15.515s-6.211 13.664-9.863 17.763c-.36.41-.708.783-1.043 1.13a13.39 13.39 0 0 0-10.707-2.758l-.5-1.814c-2.981-10.769-9.18-29.427-17.08-33.538l1.043-1.317c3.354-4.4 7.13-10.919 1.553-12.583s-6.087 5.652-5.776 11.179a18.755 18.755 0 0 0 .161 1.95 8.235 8.235 0 0 0-5.851 2.844 45.26 45.26 0 0 0-.857-1.019c-4.521-5.354-12.831-13.813-15.341-7.453-2.335 5.962 4.969 13.664 10.111 18.21l.323.273c-3.453 14.011 11.6 25.414 19.725 30.408.36.236.708.447 1.043.646-11.179 13.179-18.1 37.9-18.1 37.9l31.377 5.7s20.781-17.924 18.123-34.78h.211c20.756-4.161 25.477-26.3 22.247-39.438l.36-.149a23.6 23.6 0 0 0 9.614-7.267c5.772-8.048-6.413-17.178-12.376-9.29z"/><path class="d" d="M354.837 639.921a22.915 22.915 0 0 0-3.031 5.714c-.186.5-.373 1.068-.559 1.615a4.419 4.419 0 0 0-1.056-.36 14.669 14.669 0 0 0-4.745-.41c0-.621.062-1.242.087-1.95.2-7.031-.634-16.806-7.329-12.67-6.422 4-1.838 10.633 2.31 14.906.36.373.708.708 1.056 1.043-3.726 2.72-4.5 8.968-5.13 15.515s-6.211 13.664-9.863 17.763c-.36.41-.708.783-1.043 1.13a13.39 13.39 0 0 0-10.707-2.758l-.5-1.814c-2.981-10.769-9.18-29.427-17.08-33.538l1.043-1.317c3.354-4.4 7.13-10.919 1.553-12.583s-6.087 5.652-5.776 11.179a18.755 18.755 0 0 0 .161 1.95 8.235 8.235 0 0 0-5.851 2.844 45.26 45.26 0 0 0-.857-1.019c-4.521-5.354-12.831-13.813-15.341-7.453-2.335 5.962 4.969 13.664 10.111 18.21l.323.273c-3.453 14.011 11.6 25.414 19.725 30.408.36.236.708.447 1.043.646-11.179 13.179-18.1 37.9-18.1 37.9l31.377 5.7s20.781-17.924 18.123-34.78h.211c20.756-4.161 25.477-26.3 22.247-39.438l.36-.149a23.6 23.6 0 0 0 9.614-7.267c5.772-8.048-6.413-17.178-12.376-9.29z"/><path class="a" d="M292.481 648.987l-3.664 10.732a59.243 59.243 0 0 1-4.608-3.727c-5.143-4.5-12.422-12.248-10.111-18.21 2.484-6.41 10.819 2.05 15.353 7.453 1.812 2.138 3.03 3.752 3.03 3.752zm7.726-6.111a53.071 53.071 0 0 1-3.565 4.2 54.973 54.973 0 0 1-.658-5.639c-.3-5.49.273-12.782 5.776-11.179s1.8 8.221-1.553 12.618zm47.251 1.691c-.124 3.528-.46 6.347-.46 6.347a46.6 46.6 0 0 1-4.571-4.087c-4.149-4.3-8.7-10.931-2.3-14.906 6.698-4.161 7.518 5.615 7.331 12.646zm21.639 4.62a23.6 23.6 0 0 1-9.614 7.267 26 26 0 0 1-3.23 1.168l-4.31-6.062a43.478 43.478 0 0 1 1.789-5.888 22.523 22.523 0 0 1 3.031-5.714c5.962-7.924 18.135 1.205 12.334 9.229z"/><path class="d" d="M289.45 645.212a106.02 106.02 0 0 1 3.031 3.726l-3.664 10.732a59.172 59.172 0 0 1-4.608-3.727 21.017 21.017 0 0 1 4.124-9.428q.558-.669 1.117-1.303zm10.757-2.335a53.033 53.033 0 0 1-3.565 4.2 54.956 54.956 0 0 1-.658-5.639 7.279 7.279 0 0 1 4.223 1.439z"/><path class="a" d="M318.218 685.432l-9.105 4.012a54.567 54.567 0 0 1-4.857-2.745c-9.577-5.888-28.83-20.707-15.924-38.184s23.675 13.862 27.911 29.191c1.292 4.585 1.975 7.726 1.975 7.726z"/><path class="d" d="M342.428 646.826a7.454 7.454 0 0 1 5.031-2.261c-.124 3.528-.46 6.347-.46 6.347a46.613 46.613 0 0 1-4.571-4.086zm17.055 9.628a25.944 25.944 0 0 1-3.23 1.168l-4.31-6.062a43.475 43.475 0 0 1 1.789-5.888c2.782 1.627 4.832 5.677 5.751 10.782z"/><path class="a" d="M336.863 696.04c-.5.1-1.019.2-1.528.273-30.545 4.646-10.074-11.838-10.074-11.838s1.379-1.242 3.242-3.329c3.726-4.074 9.229-11.179 9.863-17.763.956-9.937 2.062-19.191 13.751-16.458 11.464 2.684 13.651 43.327-15.254 49.115zm-58.915 76.046h58.356v15.341h-58.356z"/><path class="a" d="M268.669 722.213h76.243v53.549h-76.243z"/><path class="d" d="M277.948 772.086h58.356v15.341h-58.356z"/><path class="d" d="M268.669 722.213h76.243v53.549h-76.243z"/><path class="a" d="M281.774 772.086h58.356v15.341h-58.356z"/><path class="d" d="M316.247 677.707a249.548 249.548 0 0 1 1.975 7.726l-9.1 4.012a54.552 54.552 0 0 1-4.857-2.745c3.557-4.546 7.582-7.937 11.982-8.993zm20.616 18.333c-.5.1-1.019.2-1.528.273-30.545 4.646-10.074-11.838-10.074-11.838s1.379-1.242 3.242-3.329c5.702 4.56 8.037 9.702 8.36 14.894z"/><path class="a" d="M287.214 725.244s17.1-61.213 41.078-42.357-9.751 47.96-9.751 47.96z"/><circle class="d" cx="1.913" cy="1.913" r="1.913" transform="translate(293.934 656.205)"/><circle class="d" cx="1.913" cy="1.913" r="1.913" transform="translate(293.773 665.148)"/><circle class="d" cx="1.913" cy="1.913" r="1.913" transform="translate(349.396 657.956)"/><circle class="d" cx="1.913" cy="1.913" r="1.913" transform="translate(304.641 703.829)"/><circle class="d" cx="1.913" cy="1.913" r="1.913" transform="translate(345.409 672.825)"/><circle class="d" cx="1.913" cy="1.913" r="1.913" transform="translate(325.584 692.65)"/><circle class="d" cx="1.913" cy="1.913" r="1.913" transform="translate(300.493 660.031)"/><circle class="d" cx="1.913" cy="1.913" r="1.913" transform="translate(344.13 663.708)"/><circle class="d" cx="1.913" cy="1.913" r="1.913" transform="translate(337.571 678.576)"/><circle class="d" cx="1.913" cy="1.913" r="1.913" transform="translate(317.436 702.401)"/><circle class="d" cx="1.913" cy="1.913" r="1.913" transform="translate(313.275 692.96)"/><circle class="d" cx="1.913" cy="1.913" r="1.913" transform="translate(303.362 671.707)"/><path class="d" d="M281.774 772.086h58.356v5.602h-58.356z"/><path class="a" d="M272.507 722.213h76.243v53.549h-76.243z"/><circle class="d" cx="1.913" cy="1.913" r="1.913" transform="translate(319.995 711.034)"/><circle class="d" cx="1.913" cy="1.913" r="1.913" transform="translate(308.48 713.431)"/></g><g transform="translate(269.866 542.55)"><path class="e" d="M952.665 465.302c0 38.191-210.228 178.828-472.781 178.828S10.658 494.257 10.658 456.066s206.673 49.742 469.226 49.742 472.781-78.732 472.781-40.506z"/><path class="f" d="M955.274 450.057v1.532c-.577 15.872-9.417 31.658-25.547 42.8-17.112 11.809-40.059 18.024-63.618 21.992-3.684.62-7.385 1.179-11.078 1.721-1.885.258-3.761.516-5.629.758-52.445 6.886-105.992 8.2-159.289 9.468-55.75 1.377-111.553 2.737-167.363 3.443l-11.069.129c-84.68.912-169.326.146-253.7-4.657-26.184-1.48-52.626-3.443-78.586-6.748q-5.552-.68-11.069-1.489c-34.43-4.932-67.835-12.5-98.271-24.781a219.042 219.042 0 0 1-21.054-9.727c-19.113-10.142-35.235-22.976-43.214-38.728a54.33 54.33 0 0 1-5.509-29.885 69.909 69.909 0 0 1 1.919-11.078 98.71 98.71 0 0 1 10.871-25.573c12.429-21.019 31.1-39.861 47.195-59.6 34.361-42.065 56.74-95.216 25.03-138.33-9.1-12.386-22.25-23.24-29.661-36.194a58.289 58.289 0 0 1-7.264-22.74 81.831 81.831 0 0 1-.456-11.078 153.67 153.67 0 0 1 3.228-25.685C56.304 59.17 65.953 30.66 95.752 14.17 116.091 2.911 142.017-.583 168.304.08q5.535.129 11.069.516c10.079.663 20.1 1.885 29.773 3.443 59.77 9.546 114.935 29.489 170.625 47.5 42.4 13.7 86.316 26.52 131.883 32.631 3.684.491 7.368.947 11.069 1.343a405.837 405.837 0 0 0 32.321 2.264c54.063 1.549 117.139-10.157 153.04-40.558 34.679-29.386 99.717-31.753 146.92-14.2l.706.267q5.328 2.031 10.329 4.373c34.783 16.354 58.083 44.363 61.371 73.671a63.95 63.95 0 0 1 .293 10.966.458.458 0 0 1 0 .112c-2.255 36.057-31.727 66.338-61.655 96.67-3.7 3.744-7.411 7.488-11.078 11.259a396.724 396.724 0 0 0-27.277 30.35 142.324 142.324 0 0 0-10.26 14.719 95.058 95.058 0 0 0-7.291 14.822 61.649 61.649 0 0 0-4.02 16.612 43.44 43.44 0 0 0 4.3 23.757l.078.172c7.988 15.838 24.893 27.062 44.466 37.012 3.607 1.842 7.316 3.632 11.078 5.405 21.226 10.019 44.1 19.324 61.483 31.693a92.193 92.193 0 0 1 13.066 11.017 66.6 66.6 0 0 1 4.614 5.311 46.6 46.6 0 0 1 10.054 28.138c.013.248.013.48.013.712z"/><path d="M1000.341 525.887v1.532c-.577 15.872-9.417 31.658-25.547 42.8-17.112 11.809-40.059 18.024-63.618 21.992-3.684.62-7.385 1.179-11.078 1.721-1.885.258-3.761.516-5.629.758-52.445 6.886-105.992 8.2-159.289 9.468-55.75 1.377-111.553 2.737-167.363 3.443l-11.069.129c-84.68.912-169.326.146-253.7-4.657-26.184-1.48-52.626-3.443-78.586-6.748q-5.552-.68-11.069-1.489c-34.43-4.932-67.835-12.5-98.271-24.781a219.042 219.042 0 0 1-21.054-9.727c-19.113-10.142-35.235-22.976-43.214-38.728a54.33 54.33 0 0 1-5.509-29.885 69.909 69.909 0 0 1 1.919-11.078 98.71 98.71 0 0 1 10.871-25.573c12.429-21.019 31.1-39.861 47.195-59.6 34.361-42.065 56.74-95.216 25.03-138.33-9.1-12.386-22.25-23.24-29.661-36.194a58.289 58.289 0 0 1-7.264-22.74 81.831 81.831 0 0 1-.456-11.078 153.67 153.67 0 0 1 3.228-25.685C101.371 135 111.02 106.49 140.819 90c20.339-11.259 46.265-14.753 72.552-14.09q5.535.129 11.069.516c10.079.663 20.1 1.885 29.773 3.443 59.77 9.546 114.935 29.489 170.625 47.5 42.4 13.7 86.316 26.52 131.883 32.631 3.684.491 7.368.947 11.069 1.343a405.837 405.837 0 0 0 32.321 2.264c54.063 1.549 117.139-10.157 153.04-40.558 34.679-29.386 99.717-31.753 146.92-14.2l.706.267q5.328 2.031 10.329 4.373c34.783 16.354 58.083 44.363 61.371 73.671a63.95 63.95 0 0 1 .293 10.966.458.458 0 0 1 0 .112c-2.255 36.057-31.727 66.338-61.655 96.67-3.7 3.744-7.411 7.488-11.078 11.259a396.724 396.724 0 0 0-27.277 30.35 142.324 142.324 0 0 0-10.26 14.719 95.058 95.058 0 0 0-7.291 14.822 61.649 61.649 0 0 0-4.02 16.612 43.44 43.44 0 0 0 4.3 23.757l.078.172c7.988 15.838 24.893 27.062 44.466 37.012 3.607 1.842 7.316 3.632 11.078 5.405 21.226 10.019 44.1 19.324 61.483 31.693a92.193 92.193 0 0 1 13.066 11.017 66.6 66.6 0 0 1 4.614 5.311 46.6 46.6 0 0 1 10.054 28.138c.013.248.013.48.013.712z" transform="translate(-45.067 -75.83)" fill="url(#a)"/><path class="e" d="M866.083 37.649V219.06c-3.7 3.753-7.411 7.5-11.078 11.267V33.01z"/><path class="e" d="M927.747 122.286a.483.483 0 0 1 0 .112H48.368a81.953 81.953 0 0 1-.456-11.078h879.542a63.925 63.925 0 0 1 .293 10.966z"/><circle class="h" cx="3.228" cy="3.228" r="3.228" transform="translate(204.524 58.582)"/><circle class="h" cx="3.228" cy="3.228" r="3.228" transform="translate(101.148 52.118)"/><circle class="h" cx="1.386" cy="1.386" r="1.386" transform="translate(242.827 60.424)"/><circle class="h" cx="1.386" cy="1.386" r="1.386" transform="translate(138.987 57.196)"/><circle class="h" cx="1.386" cy="1.386" r="1.386" transform="translate(137.61 153.987)"/><circle class="h" cx="1.386" cy="1.386" r="1.386" transform="translate(776.773 80.841)"/><circle class="h" cx="1.386" cy="1.386" r="1.386" transform="translate(307.434 82.115)"/><circle class="h" cx="1.386" cy="1.386" r="1.386" transform="translate(708.472 79.343)"/><circle class="h" cx="1.386" cy="1.386" r="1.386" transform="translate(882.919 83.501)"/><path class="f" d="M955.274 450.057v1.536c-.439 15.993-9.3 31.942-25.547 43.166-17.112 11.809-40.059 18.024-63.618 21.992-3.684.62-7.385 1.179-11.078 1.721-1.885.258-3.762.516-5.629.757-12.911 1.722-25.891 3.039-38.914 4.14-17.473 1.48-35.032 2.5-52.609 3.262-22.569.99-45.18 1.549-67.766 2.109-44.148 1.085-88.33 2.169-132.555 2.918l-15.691.258-19.143.258-11.069.129c-69.72.74-139.337.362-208.834-2.479q-6.938-.275-13.849-.6-15.493-.68-30.987-1.575c-20.7-1.171-41.565-2.651-62.206-4.846q-8.212-.861-16.354-1.9-5.552-.68-11.069-1.489-6.146-.861-12.24-1.876c-30.126-4.923-59.211-12.05-86.031-22.913a223.24 223.24 0 0 1-21.08-9.759V333.375c3.822-4.433 7.618-8.866 11.267-13.35 4.39-5.388 8.607-10.94 12.481-16.638h83.32v-51.344H302.83v112.878h239.037v-89.517H817.65a96.4 96.4 0 0 0-7.222 14.331v.482h-.323a61.651 61.651 0 0 0-4.02 16.612 43.442 43.442 0 0 0 4.3 23.757v.361l.077.172c7.988 15.838 24.893 27.062 44.466 37.012 3.607 1.842 7.316 3.632 11.078 5.406 21.011 9.916 43.648 19.143 60.966 31.331l.516.362a92.614 92.614 0 0 1 12.748 10.656c.129.121.241.241.353.362a66.567 66.567 0 0 1 4.614 5.311 46.661 46.661 0 0 1 10.053 27.776c.018.258.018.49.018.722z"/><path class="i" d="M955.274 450.057v1.536c-.439 15.993-9.3 31.942-25.547 43.166-17.112 11.809-40.059 18.024-63.618 21.992-3.684.62-7.385 1.179-11.078 1.721-1.885.258-3.762.516-5.629.757-12.911 1.722-25.891 3.039-38.914 4.14-17.473 1.48-35.032 2.5-52.609 3.262-22.569.99-45.18 1.549-67.766 2.109-44.148 1.085-88.33 2.169-132.555 2.918l-15.691.258-19.143.258-11.069.129c-69.72.74-139.337.362-208.834-2.479q-6.938-.275-13.849-.6-15.493-.68-30.987-1.575c-20.7-1.171-41.565-2.651-62.206-4.846q-8.212-.861-16.354-1.9-5.552-.68-11.069-1.489-6.146-.861-12.24-1.876c-30.126-4.923-59.211-12.05-86.031-22.913a223.24 223.24 0 0 1-21.08-9.759V333.375c3.822-4.433 7.618-8.866 11.267-13.35 4.39-5.388 8.607-10.94 12.481-16.638h83.32v-51.344H302.83v112.878h239.037v-89.517H817.65a96.4 96.4 0 0 0-7.222 14.331v.482h-.323a61.651 61.651 0 0 0-4.02 16.612 43.442 43.442 0 0 0 4.3 23.757v.361l.077.172c7.988 15.838 24.893 27.062 44.466 37.012 3.607 1.842 7.316 3.632 11.078 5.406 21.011 9.916 43.648 19.143 60.966 31.331l.516.362a92.614 92.614 0 0 1 12.748 10.656c.129.121.241.241.353.362a66.567 66.567 0 0 1 4.614 5.311 46.661 46.661 0 0 1 10.053 27.776c.018.258.018.49.018.722z"/><path class="j" d="M76.376 324.32h24.617v16.612H76.376zm39.388 0h24.617v16.612h-24.617zm452.261-34.146h24.617v16.612h-24.617zm66.458 0H659.1v16.612h-24.617zm71.373 0h24.617v16.612h-24.617zm-137.831 50.767h24.617v16.612h-24.617zm66.458 0H659.1v16.612h-24.617z"/><path class="f" d="M705.856 340.941h24.617v16.612h-24.617z"/><path class="j" d="M568.025 391.699h24.617v16.612h-24.617zm66.458 0H659.1v16.612h-24.617zm71.373 0h24.617v16.612h-24.617zm-137.831 50.767h24.617v16.612h-24.617zm66.458 0H659.1v16.612h-24.617zm71.373 0h24.617v16.612h-24.617zm-137.831 50.766h24.617v16.612h-24.617zm66.458 0H659.1v16.612h-24.617zm71.373 0h24.617v16.612h-24.617zm104.288-203.015a61.646 61.646 0 0 0-4.02 16.612h-13.505v-16.612z"/><path class="f" d="M792.619 340.941h24.617v16.612h-24.617z"/><path class="j" d="M792.619 391.699h24.617v16.612h-24.617zm0 50.767h24.617v16.612h-24.617zm0 50.766h24.617v16.612h-24.617zM212.985 270.79h24.617v16.612h-24.617z"/><path class="f" d="M212.985 308.035h24.617v16.612h-24.617z"/><path class="j" d="M212.985 345.27h24.617v16.612h-24.617zm0 37.245h24.617v16.612h-24.617zm0 37.235h24.617v16.612h-24.617zm0 37.245h24.617v16.612h-24.617zm0 37.236h24.617v16.612h-24.617zM76.376 367.736h24.617v16.612H76.376zm39.388 0h24.617v16.612h-24.617zm-39.388 43.416h24.617v16.612H76.376zm39.388 0h24.617v16.612h-24.617zm-39.388 43.416h24.617v16.612H76.376zm39.388 0h24.617v16.612h-24.617zm236.283-70.289h123.069v14.848H352.047zm0 47.376h123.069v14.848H352.047zm0 47.384h123.069v14.848H352.047z"/><path class="e" d="M179.373.593v519.89q-5.552-.68-11.069-1.489V.077c3.693.069 7.377.258 11.069.516zm343.351 84.896v446.3l-11.069.129V84.138q5.526.749 11.069 1.351z"/><path class="e" d="M940.598 415.886H.278a69.909 69.909 0 0 1 1.919-11.078h925.369a91.117 91.117 0 0 1 13.032 11.078z"/><path class="e" d="M855.005 367.736c3.606 1.842 7.316 3.632 11.078 5.405v143.246c-3.684.62-7.385 1.179-11.078 1.721z"/><path class="h" d="M290.392 197.807h-2.117v-2.117h-.379v2.117h-2.118v.379h2.117v2.117h.379v-2.117h2.117zm440.081-44.01h-2.117v-2.117h-.387v2.117h-2.11v.379h2.109v2.117h.387v-2.117h2.117zm-389.925-8.564h-2.117v-2.117h-.387v2.117h-2.11v.387h2.109v2.109h.387v-2.109h2.117z"/><circle class="h" cx="1.386" cy="1.386" r="1.386" transform="translate(335.934 279.182)"/><circle class="h" cx="1.386" cy="1.386" r="1.386" transform="translate(651.973 155.373)"/><circle class="h" cx="1.386" cy="1.386" r="1.386" transform="translate(791.233 221.005)"/><circle class="h" cx="1.386" cy="1.386" r="1.386" transform="translate(573.138 232.892)"/><path class="f" d="M711.778 483.024s-5.844 27.225 20.167 30.453l1.61-3.021s-20.141-18.932-21.777-27.432z"/><path class="f" d="M741.852 510.275l-6.025 1.283-.6.129s-16.139-13.1-15.932-42.349a73.174 73.174 0 0 0 7.7 12.2c6.379 8.458 13.652 19.759 14.857 28.737z"/><path class="f" d="M743.9 513.081a3.813 3.813 0 0 1-3.254.422c-15.493-3.637-10.285-54.227-10.285-54.227.861.4 1.8 6.886 5.371 15.149 6.266 14.624 13.152 34.989 8.168 38.656zm34.447-30.057s1.007 27.225-25 30.453l-1.61-3.021s25.001-18.932 26.61-27.432z"/><path class="f" d="M770.894 469.338c.189 29.265-20.778 42.349-20.778 42.349l-.6-.129-6.025-1.283c1.2-8.977 8.487-20.279 14.874-28.74a65.412 65.412 0 0 1 12.532-12.2z"/><path class="f" d="M749.418 510.43a9.623 9.623 0 0 1-3.443 2.651 6.626 6.626 0 0 1-1.265.422c-3.822.861-5.165-1.859-4.941-6.542.362-8.341 5.6-22.8 10.329-33.569 3.391-7.8 8.926-13.7 9.752-14.09-.051-.04-.284 39.37-10.432 51.128z"/><path class="f" d="M745.079 441.51s-17.344 61.509-2.419 70.788 6.25-65.339 2.419-70.788z"/><path class="k" d="M711.778 483.024s-5.844 27.225 20.167 30.453l1.61-3.021s-20.141-18.932-21.777-27.432z"/><path class="k" d="M741.852 510.275l-6.025 1.283-.6.129s-16.139-13.1-15.932-42.349a73.174 73.174 0 0 0 7.7 12.2c6.379 8.458 13.652 19.759 14.857 28.737z"/><path class="k" d="M743.9 513.081a3.813 3.813 0 0 1-3.254.422c-15.493-3.637-10.285-54.227-10.285-54.227.861.4 1.8 6.886 5.371 15.149 6.266 14.624 13.152 34.989 8.168 38.656zm34.447-30.057s1.007 27.225-25 30.453l-1.61-3.021s25.001-18.932 26.61-27.432z"/><path class="k" d="M770.894 469.338c.189 29.265-20.778 42.349-20.778 42.349l-.6-.129-6.025-1.283c1.2-8.977 8.487-20.279 14.874-28.74a65.412 65.412 0 0 1 12.532-12.2z"/><path class="k" d="M749.418 510.43a9.623 9.623 0 0 1-3.443 2.651 6.626 6.626 0 0 1-1.265.422c-3.822.861-5.165-1.859-4.941-6.542.362-8.341 5.6-22.8 10.329-33.569 3.391-7.8 8.926-13.7 9.752-14.09-.051-.04-.284 39.37-10.432 51.128z"/><path class="k" d="M745.079 441.51s-17.344 61.509-2.419 70.788 6.25-65.339 2.419-70.788z"/><path class="f" d="M711.778 483.024s-3.443 27.225 22.586 30.453l1.61-3.021s-22.561-18.932-24.196-27.432z"/><path class="f" d="M744.271 510.275l-6.025 1.283-.611.129s-18.558-13.1-18.351-42.349c0 0 4.751 5.1 10.122 12.2 6.387 8.458 13.658 19.759 14.865 28.737z"/><path class="k" d="M744.271 510.275l-6.025 1.283c-5.741-5.035-8.014-18.179-8.84-30.023 6.387 8.461 13.66 19.763 14.865 28.74z"/><path class="f" d="M746.32 513.081a3.813 3.813 0 0 1-3.254.422c-15.536-3.632-12.7-54.227-12.7-54.227.861.4 4.218 6.886 7.747 15.149 6.304 14.624 13.191 34.989 8.207 38.656zm32.027-30.057s3.443 27.225-22.586 30.453l-1.61-3.021s22.587-18.932 24.196-27.432z"/><path class="f" d="M770.893 469.338c.189 29.265-18.36 42.349-18.36 42.349l-.6-.129-6.025-1.283c1.205-8.977 8.487-20.279 14.874-28.74 5.352-7.119 10.111-12.197 10.111-12.197z"/><path class="k" d="M760.756 481.535c-.775 11.052-2.8 23.24-7.7 28.9a9.894 9.894 0 0 1-1.119 1.128l-6.025-1.282c1.156-8.983 8.455-20.285 14.844-28.746z"/><path class="f" d="M751.837 510.43a9.625 9.625 0 0 1-3.443 2.651 6.7 6.7 0 0 1-1.274.422c-3.822.861-5.164-1.859-4.941-6.542.37-8.341 5.6-22.8 10.329-33.569 3.391-7.8 6.507-13.7 7.333-14.09-.042-.04 2.144 39.37-8.004 51.128z"/><path class="k" d="M746.319 513.081a4.3 4.3 0 0 1-2.453-.783c-7.308-4.553-7.454-21.639-5.715-37.873 6.266 14.624 13.152 34.99 8.168 38.656z"/><path class="k" d="M751.837 510.43c-.861 1.816-1.971 2.78-3.443 2.651a4.941 4.941 0 0 1-2.083-.783 11.088 11.088 0 0 1-4.132-5.337c.37-8.341 5.6-22.8 10.329-33.569 1.635 14.968 2.195 30.884-.671 37.038z"/><path class="f" d="M745.08 441.51s-14.925 61.509 0 70.788 3.83-65.339 0-70.788z"/><path class="l" d="M773.715 509.268h-62.11v10.286h9.477l.232 1.214 3.8 19.961h36.101l3.8-19.961.232-1.214h8.47z"/><path class="k" d="M773.691 509.268H711.58v10.286h9.477l.232 1.214 3.8 19.961h36.108l3.8-19.961.232-1.214h8.47z"/><path class="l" d="M768.475 515.319l-1.041 5.449-3.8 19.961h-36.105l-3.8-19.961-1.042-5.449z"/><path class="k" d="M768.475 515.319l-1.041 5.449h-43.7l-1.042-5.449z"/><path class="l" d="M714.024 509.268h62.111v10.286h-62.111z"/><path class="f" d="M245.883 443.43a15.879 15.879 0 0 0-2.1 3.959c-.129.344-.258.74-.387 1.119a3.062 3.062 0 0 0-.732-.25 10.165 10.165 0 0 0-3.288-.284c0-.43.043-.861.06-1.351.138-4.872-.439-11.646-5.078-8.78-4.45 2.772-1.274 7.368 1.6 10.329.25.258.491.491.732.723-2.582 1.885-3.116 6.215-3.555 10.751s-4.3 9.468-6.834 12.309c-.25.284-.491.542-.723.783a9.279 9.279 0 0 0-7.42-1.911l-.344-1.257c-2.066-7.463-6.361-20.391-11.835-23.24l.723-.912c2.324-3.047 4.941-7.566 1.076-8.719s-4.218 3.916-4 7.747a12.994 12.994 0 0 0 .112 1.351 5.706 5.706 0 0 0-4.054 1.971 30.551 30.551 0 0 0-.594-.706c-3.133-3.71-8.892-9.571-10.63-5.164-1.618 4.132 3.443 9.468 7.006 12.618l.224.189c-2.393 9.709 8.039 17.611 13.669 21.071.25.164.491.31.723.448-7.747 9.133-12.541 26.261-12.541 26.261l21.742 3.951s14.4-12.421 12.558-24.1h.146c14.383-2.883 17.654-18.222 15.416-27.329l.25-.1a16.354 16.354 0 0 0 6.664-5.039c3.989-5.577-4.455-11.904-8.586-6.438z"/><path class="k" d="M245.883 443.43a15.879 15.879 0 0 0-2.1 3.959c-.129.344-.258.74-.387 1.119a3.062 3.062 0 0 0-.732-.25 10.165 10.165 0 0 0-3.288-.284c0-.43.043-.861.06-1.351.138-4.872-.439-11.646-5.078-8.78-4.45 2.772-1.274 7.368 1.6 10.329.25.258.491.491.732.723-2.582 1.885-3.116 6.215-3.555 10.751s-4.3 9.468-6.834 12.309c-.25.284-.491.542-.723.783a9.279 9.279 0 0 0-7.42-1.911l-.344-1.257c-2.066-7.463-6.361-20.391-11.835-23.24l.723-.912c2.324-3.047 4.941-7.566 1.076-8.719s-4.218 3.916-4 7.747a12.994 12.994 0 0 0 .112 1.351 5.706 5.706 0 0 0-4.054 1.971 30.551 30.551 0 0 0-.594-.706c-3.133-3.71-8.892-9.571-10.63-5.164-1.618 4.132 3.443 9.468 7.006 12.618l.224.189c-2.393 9.709 8.039 17.611 13.669 21.071.25.164.491.31.723.448-7.747 9.133-12.541 26.261-12.541 26.261l21.742 3.951s14.4-12.421 12.558-24.1h.146c14.383-2.883 17.654-18.222 15.416-27.329l.25-.1a16.354 16.354 0 0 0 6.664-5.039c3.989-5.577-4.455-11.904-8.586-6.438z"/><path class="f" d="M202.674 449.713l-2.539 7.437a41.041 41.041 0 0 1-3.193-2.582c-3.563-3.116-8.607-8.487-7.006-12.618 1.721-4.441 7.5 1.42 10.639 5.164a64.893 64.893 0 0 1 2.099 2.599zm5.353-4.235a36.77 36.77 0 0 1-2.47 2.909 38.1 38.1 0 0 1-.456-3.908c-.207-3.8.189-8.857 4-7.747s1.25 5.699-1.074 8.746zm32.743 1.171c-.086 2.444-.318 4.4-.318 4.4a32.289 32.289 0 0 1-3.168-2.832c-2.875-2.978-6.025-7.575-1.592-10.329 4.639-2.885 5.207 3.889 5.078 8.761zm14.994 3.202a16.352 16.352 0 0 1-6.662 5.035 18.005 18.005 0 0 1-2.238.809l-2.987-4.2a30.13 30.13 0 0 1 1.239-4.08 15.608 15.608 0 0 1 2.1-3.959c4.132-5.489 12.568.834 8.548 6.395z"/><path class="k" d="M200.571 447.096a72.239 72.239 0 0 1 2.1 2.582l-2.539 7.437a41 41 0 0 1-3.193-2.582 14.564 14.564 0 0 1 2.858-6.533q.389-.464.774-.904zm7.457-1.618a36.74 36.74 0 0 1-2.47 2.909 38.084 38.084 0 0 1-.456-3.908 5.044 5.044 0 0 1 2.926.999z"/><path class="f" d="M220.508 474.968l-6.309 2.78a37.8 37.8 0 0 1-3.365-1.9c-6.636-4.08-19.978-14.349-11.035-26.459s16.406 9.606 19.341 20.228c.895 3.173 1.368 5.351 1.368 5.351z"/><path class="k" d="M237.284 448.216a5.165 5.165 0 0 1 3.486-1.567c-.086 2.444-.318 4.4-.318 4.4a32.3 32.3 0 0 1-3.168-2.832zm11.818 6.669a17.976 17.976 0 0 1-2.238.809l-2.987-4.2a30.13 30.13 0 0 1 1.239-4.08c1.929 1.129 3.349 3.935 3.986 7.471z"/><path class="f" d="M233.428 482.318c-.344.069-.706.138-1.059.189-21.166 3.219-6.981-8.2-6.981-8.2s.955-.861 2.247-2.307c2.582-2.823 6.4-7.747 6.834-12.309.663-6.886 1.429-13.3 9.528-11.4 7.945 1.853 9.46 30.016-10.569 34.027z"/><path class="l" d="M192.602 535.013h40.438v10.63h-40.438z"/><path class="l" d="M186.173 500.454h52.832v37.107h-52.832z"/><path class="k" d="M192.602 535.013h40.438v10.63h-40.438z"/><path class="k" d="M186.173 500.454h52.832v37.107h-52.832z"/><path class="l" d="M195.254 535.013h40.438v10.63h-40.438z"/><path class="k" d="M219.139 469.614c.861 3.176 1.369 5.354 1.369 5.354l-6.309 2.78a37.794 37.794 0 0 1-3.366-1.9c2.47-3.154 5.259-5.502 8.306-6.234zm14.289 12.704c-.344.069-.706.138-1.059.189-21.166 3.219-6.981-8.2-6.981-8.2s.955-.861 2.247-2.307c3.951 3.157 5.569 6.72 5.793 10.318z"/><path class="f" d="M199.024 502.554s11.852-42.417 28.465-29.351-6.755 33.233-6.755 33.233z"/><circle class="k" cx="1.326" cy="1.326" r="1.326" transform="translate(203.68 454.714)"/><circle class="k" cx="1.326" cy="1.326" r="1.326" transform="translate(203.568 460.911)"/><circle class="k" cx="1.326" cy="1.326" r="1.326" transform="translate(242.113 455.928)"/><circle class="k" cx="1.326" cy="1.326" r="1.326" transform="translate(211.1 487.715)"/><circle class="k" cx="1.326" cy="1.326" r="1.326" transform="translate(239.35 466.231)"/><circle class="k" cx="1.326" cy="1.326" r="1.326" transform="translate(225.612 479.968)"/><circle class="k" cx="1.326" cy="1.326" r="1.326" transform="translate(208.225 457.365)"/><circle class="k" cx="1.326" cy="1.326" r="1.326" transform="translate(238.463 459.913)"/><circle class="k" cx="1.326" cy="1.326" r="1.326" transform="translate(233.918 470.216)"/><circle class="k" cx="1.326" cy="1.326" r="1.326" transform="translate(219.966 486.725)"/><circle class="k" cx="1.326" cy="1.326" r="1.326" transform="translate(217.082 480.183)"/><circle class="k" cx="1.326" cy="1.326" r="1.326" transform="translate(210.213 465.456)"/><path class="k" d="M195.254 535.013h40.438v3.882h-40.438z"/><path class="l" d="M188.832 500.454h52.832v37.107h-52.832z"/><circle class="k" cx="1.326" cy="1.326" r="1.326" transform="translate(221.739 492.707)"/><circle class="k" cx="1.326" cy="1.326" r="1.326" transform="translate(213.76 494.369)"/></g><g transform="translate(269.866 542.55)" opacity=".64"><path d="M952.665 465.302c0 38.191-210.228 178.828-472.781 178.828S10.658 494.257 10.658 456.066s206.673 49.742 469.226 49.742 472.781-78.732 472.781-40.506z"/><path d="M955.274 450.057v1.532c-.577 15.872-9.417 31.658-25.547 42.8-17.112 11.809-40.059 18.024-63.618 21.992-3.684.62-7.385 1.179-11.078 1.721-1.885.258-3.761.516-5.629.758-52.445 6.886-105.992 8.2-159.289 9.468-55.75 1.377-111.553 2.737-167.363 3.443l-11.069.129c-84.68.912-169.326.146-253.7-4.657-26.184-1.48-52.626-3.443-78.586-6.748q-5.552-.68-11.069-1.489c-34.43-4.932-67.835-12.5-98.271-24.781a219.042 219.042 0 0 1-21.054-9.727c-19.113-10.142-35.235-22.976-43.214-38.728a54.33 54.33 0 0 1-5.509-29.885 69.909 69.909 0 0 1 1.919-11.078 98.71 98.71 0 0 1 10.871-25.573c12.429-21.019 31.1-39.861 47.195-59.6 34.361-42.065 56.74-95.216 25.03-138.33-9.1-12.386-22.25-23.24-29.661-36.194a58.289 58.289 0 0 1-7.264-22.74 81.831 81.831 0 0 1-.456-11.078 153.67 153.67 0 0 1 3.228-25.685C56.304 59.17 65.953 30.66 95.752 14.17 116.091 2.911 142.017-.583 168.304.08q5.535.129 11.069.516c10.079.663 20.1 1.885 29.773 3.443 59.77 9.546 114.935 29.489 170.625 47.5 42.4 13.7 86.316 26.52 131.883 32.631 3.684.491 7.368.947 11.069 1.343a405.837 405.837 0 0 0 32.321 2.264c54.063 1.549 117.139-10.157 153.04-40.558 34.679-29.386 99.717-31.753 146.92-14.2l.706.267q5.328 2.031 10.329 4.373c34.783 16.354 58.083 44.363 61.371 73.671a63.95 63.95 0 0 1 .293 10.966.458.458 0 0 1 0 .112c-2.255 36.057-31.727 66.338-61.655 96.67-3.7 3.744-7.411 7.488-11.078 11.259a396.724 396.724 0 0 0-27.277 30.35 142.324 142.324 0 0 0-10.26 14.719 95.058 95.058 0 0 0-7.291 14.822 61.649 61.649 0 0 0-4.02 16.612 43.44 43.44 0 0 0 4.3 23.757l.078.172c7.988 15.838 24.893 27.062 44.466 37.012 3.607 1.842 7.316 3.632 11.078 5.405 21.226 10.019 44.1 19.324 61.483 31.693a92.193 92.193 0 0 1 13.066 11.017 66.6 66.6 0 0 1 4.614 5.311 46.6 46.6 0 0 1 10.054 28.138c.013.248.013.48.013.712z"/><path d="M955.274 450.057v1.532c-.577 15.872-9.417 31.658-25.547 42.8-17.112 11.809-40.059 18.024-63.618 21.992-3.684.62-7.385 1.179-11.078 1.721-1.885.258-3.761.516-5.629.758-52.445 6.886-105.992 8.2-159.289 9.468-55.75 1.377-111.553 2.737-167.363 3.443l-11.069.129c-84.68.912-169.326.146-253.7-4.657-26.184-1.48-52.626-3.443-78.586-6.748q-5.552-.68-11.069-1.489c-34.43-4.932-67.835-12.5-98.271-24.781a219.042 219.042 0 0 1-21.054-9.727c-19.113-10.142-35.235-22.976-43.214-38.728a54.33 54.33 0 0 1-5.509-29.885 69.909 69.909 0 0 1 1.919-11.078 98.71 98.71 0 0 1 10.871-25.573c12.429-21.019 31.1-39.861 47.195-59.6 34.361-42.065 56.74-95.216 25.03-138.33-9.1-12.386-22.25-23.24-29.661-36.194a58.289 58.289 0 0 1-7.264-22.74 81.831 81.831 0 0 1-.456-11.078 153.67 153.67 0 0 1 3.228-25.685C56.304 59.17 65.953 30.66 95.752 14.17 116.091 2.911 142.017-.583 168.304.08q5.535.129 11.069.516c10.079.663 20.1 1.885 29.773 3.443 59.77 9.546 114.935 29.489 170.625 47.5 42.4 13.7 86.316 26.52 131.883 32.631 3.684.491 7.368.947 11.069 1.343a405.837 405.837 0 0 0 32.321 2.264c54.063 1.549 117.139-10.157 153.04-40.558 34.679-29.386 99.717-31.753 146.92-14.2l.706.267q5.328 2.031 10.329 4.373c34.783 16.354 58.083 44.363 61.371 73.671a63.95 63.95 0 0 1 .293 10.966.458.458 0 0 1 0 .112c-2.255 36.057-31.727 66.338-61.655 96.67-3.7 3.744-7.411 7.488-11.078 11.259a396.724 396.724 0 0 0-27.277 30.35 142.324 142.324 0 0 0-10.26 14.719 95.058 95.058 0 0 0-7.291 14.822 61.649 61.649 0 0 0-4.02 16.612 43.44 43.44 0 0 0 4.3 23.757l.078.172c7.988 15.838 24.893 27.062 44.466 37.012 3.607 1.842 7.316 3.632 11.078 5.405 21.226 10.019 44.1 19.324 61.483 31.693a92.193 92.193 0 0 1 13.066 11.017 66.6 66.6 0 0 1 4.614 5.311 46.6 46.6 0 0 1 10.054 28.138c.013.248.013.48.013.712z"/><path d="M866.083 37.649V219.06c-3.7 3.753-7.411 7.5-11.078 11.267V33.01z"/><path d="M927.747 122.286a.483.483 0 0 1 0 .112H48.368a81.953 81.953 0 0 1-.456-11.078h879.542a63.925 63.925 0 0 1 .293 10.966z"/><circle cx="3.228" cy="3.228" r="3.228" transform="translate(204.524 58.582)"/><circle cx="3.228" cy="3.228" r="3.228" transform="translate(101.148 52.118)"/><circle cx="1.386" cy="1.386" r="1.386" transform="translate(242.827 60.424)"/><circle cx="1.386" cy="1.386" r="1.386" transform="translate(138.987 57.196)"/><circle cx="1.386" cy="1.386" r="1.386" transform="translate(137.61 153.987)"/><circle cx="1.386" cy="1.386" r="1.386" transform="translate(776.773 80.841)"/><circle cx="1.386" cy="1.386" r="1.386" transform="translate(307.434 82.115)"/><circle cx="1.386" cy="1.386" r="1.386" transform="translate(708.472 79.343)"/><circle cx="1.386" cy="1.386" r="1.386" transform="translate(882.919 83.501)"/><path d="M955.274 450.057v1.536c-.439 15.993-9.3 31.942-25.547 43.166-17.112 11.809-40.059 18.024-63.618 21.992-3.684.62-7.385 1.179-11.078 1.721-1.885.258-3.762.516-5.629.757-12.911 1.722-25.891 3.039-38.914 4.14-17.473 1.48-35.032 2.5-52.609 3.262-22.569.99-45.18 1.549-67.766 2.109-44.148 1.085-88.33 2.169-132.555 2.918l-15.691.258-19.143.258-11.069.129c-69.72.74-139.337.362-208.834-2.479q-6.938-.275-13.849-.6-15.493-.68-30.987-1.575c-20.7-1.171-41.565-2.651-62.206-4.846q-8.212-.861-16.354-1.9-5.552-.68-11.069-1.489-6.146-.861-12.24-1.876c-30.126-4.923-59.211-12.05-86.031-22.913a223.24 223.24 0 0 1-21.08-9.759V333.375c3.822-4.433 7.618-8.866 11.267-13.35 4.39-5.388 8.607-10.94 12.481-16.638h83.32v-51.344H302.83v112.878h239.037v-89.517H817.65a96.4 96.4 0 0 0-7.222 14.331v.482h-.323a61.651 61.651 0 0 0-4.02 16.612 43.442 43.442 0 0 0 4.3 23.757v.361l.077.172c7.988 15.838 24.893 27.062 44.466 37.012 3.607 1.842 7.316 3.632 11.078 5.406 21.011 9.916 43.648 19.143 60.966 31.331l.516.362a92.614 92.614 0 0 1 12.748 10.656c.129.121.241.241.353.362a66.567 66.567 0 0 1 4.614 5.311 46.661 46.661 0 0 1 10.053 27.776c.018.258.018.49.018.722z"/><path class="i" d="M955.274 450.057v1.536c-.439 15.993-9.3 31.942-25.547 43.166-17.112 11.809-40.059 18.024-63.618 21.992-3.684.62-7.385 1.179-11.078 1.721-1.885.258-3.762.516-5.629.757-12.911 1.722-25.891 3.039-38.914 4.14-17.473 1.48-35.032 2.5-52.609 3.262-22.569.99-45.18 1.549-67.766 2.109-44.148 1.085-88.33 2.169-132.555 2.918l-15.691.258-19.143.258-11.069.129c-69.72.74-139.337.362-208.834-2.479q-6.938-.275-13.849-.6-15.493-.68-30.987-1.575c-20.7-1.171-41.565-2.651-62.206-4.846q-8.212-.861-16.354-1.9-5.552-.68-11.069-1.489-6.146-.861-12.24-1.876c-30.126-4.923-59.211-12.05-86.031-22.913a223.24 223.24 0 0 1-21.08-9.759V333.375c3.822-4.433 7.618-8.866 11.267-13.35 4.39-5.388 8.607-10.94 12.481-16.638h83.32v-51.344H302.83v112.878h239.037v-89.517H817.65a96.4 96.4 0 0 0-7.222 14.331v.482h-.323a61.651 61.651 0 0 0-4.02 16.612 43.442 43.442 0 0 0 4.3 23.757v.361l.077.172c7.988 15.838 24.893 27.062 44.466 37.012 3.607 1.842 7.316 3.632 11.078 5.406 21.011 9.916 43.648 19.143 60.966 31.331l.516.362a92.614 92.614 0 0 1 12.748 10.656c.129.121.241.241.353.362a66.567 66.567 0 0 1 4.614 5.311 46.661 46.661 0 0 1 10.053 27.776c.018.258.018.49.018.722z"/><path class="j" d="M76.376 324.32h24.617v16.612H76.376zm39.388 0h24.617v16.612h-24.617zm452.261-34.146h24.617v16.612h-24.617zm66.458 0H659.1v16.612h-24.617zm71.373 0h24.617v16.612h-24.617zm-137.831 50.767h24.617v16.612h-24.617zm66.458 0H659.1v16.612h-24.617z"/><path d="M705.856 340.941h24.617v16.612h-24.617z"/><path class="j" d="M568.025 391.699h24.617v16.612h-24.617zm66.458 0H659.1v16.612h-24.617zm71.373 0h24.617v16.612h-24.617zm-137.831 50.767h24.617v16.612h-24.617zm66.458 0H659.1v16.612h-24.617zm71.373 0h24.617v16.612h-24.617zm-137.831 50.766h24.617v16.612h-24.617zm66.458 0H659.1v16.612h-24.617zm71.373 0h24.617v16.612h-24.617zm104.288-203.015a61.646 61.646 0 0 0-4.02 16.612h-13.505v-16.612z"/><path d="M792.619 340.941h24.617v16.612h-24.617z"/><path class="j" d="M792.619 391.699h24.617v16.612h-24.617zm0 50.767h24.617v16.612h-24.617zm0 50.766h24.617v16.612h-24.617zM212.985 270.79h24.617v16.612h-24.617z"/><path d="M212.985 308.035h24.617v16.612h-24.617z"/><path class="j" d="M212.985 345.27h24.617v16.612h-24.617zm0 37.245h24.617v16.612h-24.617zm0 37.235h24.617v16.612h-24.617zm0 37.245h24.617v16.612h-24.617zm0 37.236h24.617v16.612h-24.617zM76.376 367.736h24.617v16.612H76.376zm39.388 0h24.617v16.612h-24.617zm-39.388 43.416h24.617v16.612H76.376zm39.388 0h24.617v16.612h-24.617zm-39.388 43.416h24.617v16.612H76.376zm39.388 0h24.617v16.612h-24.617zm236.283-70.289h123.069v14.848H352.047zm0 47.376h123.069v14.848H352.047zm0 47.384h123.069v14.848H352.047z"/><path d="M179.373.593v519.89q-5.552-.68-11.069-1.489V.077c3.693.069 7.377.258 11.069.516zm343.351 84.896v446.3l-11.069.129V84.138q5.526.749 11.069 1.351z"/><path d="M940.598 415.886H.278a69.909 69.909 0 0 1 1.919-11.078h925.369a91.117 91.117 0 0 1 13.032 11.078z"/><path d="M855.005 367.736c3.606 1.842 7.316 3.632 11.078 5.405v143.246c-3.684.62-7.385 1.179-11.078 1.721zM290.392 197.807h-2.117v-2.117h-.379v2.117h-2.118v.379h2.117v2.117h.379v-2.117h2.117zm440.081-44.01h-2.117v-2.117h-.387v2.117h-2.11v.379h2.109v2.117h.387v-2.117h2.117zm-389.925-8.564h-2.117v-2.117h-.387v2.117h-2.11v.387h2.109v2.109h.387v-2.109h2.117z"/><circle cx="1.386" cy="1.386" r="1.386" transform="translate(335.934 279.182)"/><circle cx="1.386" cy="1.386" r="1.386" transform="translate(651.973 155.373)"/><circle cx="1.386" cy="1.386" r="1.386" transform="translate(791.233 221.005)"/><circle cx="1.386" cy="1.386" r="1.386" transform="translate(573.138 232.892)"/><path d="M711.778 483.024s-5.844 27.225 20.167 30.453l1.61-3.021s-20.141-18.932-21.777-27.432z"/><path d="M741.852 510.275l-6.025 1.283-.6.129s-16.139-13.1-15.932-42.349a73.174 73.174 0 0 0 7.7 12.2c6.379 8.458 13.652 19.759 14.857 28.737z"/><path d="M743.9 513.081a3.813 3.813 0 0 1-3.254.422c-15.493-3.637-10.285-54.227-10.285-54.227.861.4 1.8 6.886 5.371 15.149 6.266 14.624 13.152 34.989 8.168 38.656zm34.447-30.057s1.007 27.225-25 30.453l-1.61-3.021s25.001-18.932 26.61-27.432z"/><path d="M770.894 469.338c.189 29.265-20.778 42.349-20.778 42.349l-.6-.129-6.025-1.283c1.2-8.977 8.487-20.279 14.874-28.74a65.412 65.412 0 0 1 12.532-12.2z"/><path d="M749.418 510.43a9.623 9.623 0 0 1-3.443 2.651 6.626 6.626 0 0 1-1.265.422c-3.822.861-5.165-1.859-4.941-6.542.362-8.341 5.6-22.8 10.329-33.569 3.391-7.8 8.926-13.7 9.752-14.09-.051-.04-.284 39.37-10.432 51.128z"/><path d="M745.079 441.51s-17.344 61.509-2.419 70.788 6.25-65.339 2.419-70.788z"/><path class="k" d="M711.778 483.024s-5.844 27.225 20.167 30.453l1.61-3.021s-20.141-18.932-21.777-27.432z"/><path class="k" d="M741.852 510.275l-6.025 1.283-.6.129s-16.139-13.1-15.932-42.349a73.174 73.174 0 0 0 7.7 12.2c6.379 8.458 13.652 19.759 14.857 28.737z"/><path class="k" d="M743.9 513.081a3.813 3.813 0 0 1-3.254.422c-15.493-3.637-10.285-54.227-10.285-54.227.861.4 1.8 6.886 5.371 15.149 6.266 14.624 13.152 34.989 8.168 38.656zm34.447-30.057s1.007 27.225-25 30.453l-1.61-3.021s25.001-18.932 26.61-27.432z"/><path class="k" d="M770.894 469.338c.189 29.265-20.778 42.349-20.778 42.349l-.6-.129-6.025-1.283c1.2-8.977 8.487-20.279 14.874-28.74a65.412 65.412 0 0 1 12.532-12.2z"/><path class="k" d="M749.418 510.43a9.623 9.623 0 0 1-3.443 2.651 6.626 6.626 0 0 1-1.265.422c-3.822.861-5.165-1.859-4.941-6.542.362-8.341 5.6-22.8 10.329-33.569 3.391-7.8 8.926-13.7 9.752-14.09-.051-.04-.284 39.37-10.432 51.128z"/><path class="k" d="M745.079 441.51s-17.344 61.509-2.419 70.788 6.25-65.339 2.419-70.788z"/><path d="M711.778 483.024s-3.443 27.225 22.586 30.453l1.61-3.021s-22.561-18.932-24.196-27.432z"/><path d="M744.271 510.275l-6.025 1.283-.611.129s-18.558-13.1-18.351-42.349c0 0 4.751 5.1 10.122 12.2 6.387 8.458 13.658 19.759 14.865 28.737z"/><path class="k" d="M744.271 510.275l-6.025 1.283c-5.741-5.035-8.014-18.179-8.84-30.023 6.387 8.461 13.66 19.763 14.865 28.74z"/><path d="M746.32 513.081a3.813 3.813 0 0 1-3.254.422c-15.536-3.632-12.7-54.227-12.7-54.227.861.4 4.218 6.886 7.747 15.149 6.304 14.624 13.191 34.989 8.207 38.656zm32.027-30.057s3.443 27.225-22.586 30.453l-1.61-3.021s22.587-18.932 24.196-27.432z"/><path d="M770.893 469.338c.189 29.265-18.36 42.349-18.36 42.349l-.6-.129-6.025-1.283c1.205-8.977 8.487-20.279 14.874-28.74 5.352-7.119 10.111-12.197 10.111-12.197z"/><path class="k" d="M760.756 481.535c-.775 11.052-2.8 23.24-7.7 28.9a9.894 9.894 0 0 1-1.119 1.128l-6.025-1.282c1.156-8.983 8.455-20.285 14.844-28.746z"/><path d="M751.837 510.43a9.625 9.625 0 0 1-3.443 2.651 6.7 6.7 0 0 1-1.274.422c-3.822.861-5.164-1.859-4.941-6.542.37-8.341 5.6-22.8 10.329-33.569 3.391-7.8 6.507-13.7 7.333-14.09-.042-.04 2.144 39.37-8.004 51.128z"/><path class="k" d="M746.319 513.081a4.3 4.3 0 0 1-2.453-.783c-7.308-4.553-7.454-21.639-5.715-37.873 6.266 14.624 13.152 34.99 8.168 38.656z"/><path class="k" d="M751.837 510.43c-.861 1.816-1.971 2.78-3.443 2.651a4.941 4.941 0 0 1-2.083-.783 11.088 11.088 0 0 1-4.132-5.337c.37-8.341 5.6-22.8 10.329-33.569 1.635 14.968 2.195 30.884-.671 37.038z"/><path d="M745.08 441.51s-14.925 61.509 0 70.788 3.83-65.339 0-70.788z"/><path d="M773.715 509.268h-62.11v10.286h9.477l.232 1.214 3.8 19.961h36.101l3.8-19.961.232-1.214h8.47z"/><path class="k" d="M773.691 509.268H711.58v10.286h9.477l.232 1.214 3.8 19.961h36.108l3.8-19.961.232-1.214h8.47z"/><path d="M768.475 515.319l-1.041 5.449-3.8 19.961h-36.105l-3.8-19.961-1.042-5.449z"/><path class="k" d="M768.475 515.319l-1.041 5.449h-43.7l-1.042-5.449z"/><path d="M714.024 509.268h62.111v10.286h-62.111zM245.883 443.43a15.879 15.879 0 0 0-2.1 3.959c-.129.344-.258.74-.387 1.119a3.062 3.062 0 0 0-.732-.25 10.165 10.165 0 0 0-3.288-.284c0-.43.043-.861.06-1.351.138-4.872-.439-11.646-5.078-8.78-4.45 2.772-1.274 7.368 1.6 10.329.25.258.491.491.732.723-2.582 1.885-3.116 6.215-3.555 10.751s-4.3 9.468-6.834 12.309c-.25.284-.491.542-.723.783a9.279 9.279 0 0 0-7.42-1.911l-.344-1.257c-2.066-7.463-6.361-20.391-11.835-23.24l.723-.912c2.324-3.047 4.941-7.566 1.076-8.719s-4.218 3.916-4 7.747a12.994 12.994 0 0 0 .112 1.351 5.706 5.706 0 0 0-4.054 1.971 30.551 30.551 0 0 0-.594-.706c-3.133-3.71-8.892-9.571-10.63-5.164-1.618 4.132 3.443 9.468 7.006 12.618l.224.189c-2.393 9.709 8.039 17.611 13.669 21.071.25.164.491.31.723.448-7.747 9.133-12.541 26.261-12.541 26.261l21.742 3.951s14.4-12.421 12.558-24.1h.146c14.383-2.883 17.654-18.222 15.416-27.329l.25-.1a16.354 16.354 0 0 0 6.664-5.039c3.989-5.577-4.455-11.904-8.586-6.438z"/><path class="k" d="M245.883 443.43a15.879 15.879 0 0 0-2.1 3.959c-.129.344-.258.74-.387 1.119a3.062 3.062 0 0 0-.732-.25 10.165 10.165 0 0 0-3.288-.284c0-.43.043-.861.06-1.351.138-4.872-.439-11.646-5.078-8.78-4.45 2.772-1.274 7.368 1.6 10.329.25.258.491.491.732.723-2.582 1.885-3.116 6.215-3.555 10.751s-4.3 9.468-6.834 12.309c-.25.284-.491.542-.723.783a9.279 9.279 0 0 0-7.42-1.911l-.344-1.257c-2.066-7.463-6.361-20.391-11.835-23.24l.723-.912c2.324-3.047 4.941-7.566 1.076-8.719s-4.218 3.916-4 7.747a12.994 12.994 0 0 0 .112 1.351 5.706 5.706 0 0 0-4.054 1.971 30.551 30.551 0 0 0-.594-.706c-3.133-3.71-8.892-9.571-10.63-5.164-1.618 4.132 3.443 9.468 7.006 12.618l.224.189c-2.393 9.709 8.039 17.611 13.669 21.071.25.164.491.31.723.448-7.747 9.133-12.541 26.261-12.541 26.261l21.742 3.951s14.4-12.421 12.558-24.1h.146c14.383-2.883 17.654-18.222 15.416-27.329l.25-.1a16.354 16.354 0 0 0 6.664-5.039c3.989-5.577-4.455-11.904-8.586-6.438z"/><path d="M202.674 449.713l-2.539 7.437a41.041 41.041 0 0 1-3.193-2.582c-3.563-3.116-8.607-8.487-7.006-12.618 1.721-4.441 7.5 1.42 10.639 5.164a64.893 64.893 0 0 1 2.099 2.599zm5.353-4.235a36.77 36.77 0 0 1-2.47 2.909 38.1 38.1 0 0 1-.456-3.908c-.207-3.8.189-8.857 4-7.747s1.25 5.699-1.074 8.746zm32.743 1.171c-.086 2.444-.318 4.4-.318 4.4a32.289 32.289 0 0 1-3.168-2.832c-2.875-2.978-6.025-7.575-1.592-10.329 4.639-2.885 5.207 3.889 5.078 8.761zm14.994 3.202a16.352 16.352 0 0 1-6.662 5.035 18.005 18.005 0 0 1-2.238.809l-2.987-4.2a30.13 30.13 0 0 1 1.239-4.08 15.608 15.608 0 0 1 2.1-3.959c4.132-5.489 12.568.834 8.548 6.395z"/><path class="k" d="M200.571 447.096a72.239 72.239 0 0 1 2.1 2.582l-2.539 7.437a41 41 0 0 1-3.193-2.582 14.564 14.564 0 0 1 2.858-6.533q.389-.464.774-.904zm7.457-1.618a36.74 36.74 0 0 1-2.47 2.909 38.084 38.084 0 0 1-.456-3.908 5.044 5.044 0 0 1 2.926.999z"/><path d="M220.508 474.968l-6.309 2.78a37.8 37.8 0 0 1-3.365-1.9c-6.636-4.08-19.978-14.349-11.035-26.459s16.406 9.606 19.341 20.228c.895 3.173 1.368 5.351 1.368 5.351z"/><path class="k" d="M237.284 448.216a5.165 5.165 0 0 1 3.486-1.567c-.086 2.444-.318 4.4-.318 4.4a32.3 32.3 0 0 1-3.168-2.832zm11.818 6.669a17.976 17.976 0 0 1-2.238.809l-2.987-4.2a30.13 30.13 0 0 1 1.239-4.08c1.929 1.129 3.349 3.935 3.986 7.471z"/><path d="M233.428 482.318c-.344.069-.706.138-1.059.189-21.166 3.219-6.981-8.2-6.981-8.2s.955-.861 2.247-2.307c2.582-2.823 6.4-7.747 6.834-12.309.663-6.886 1.429-13.3 9.528-11.4 7.945 1.853 9.46 30.016-10.569 34.027zm-40.826 52.695h40.438v10.63h-40.438z"/><path d="M186.173 500.454h52.832v37.107h-52.832z"/><path class="k" d="M192.602 535.013h40.438v10.63h-40.438z"/><path class="k" d="M186.173 500.454h52.832v37.107h-52.832z"/><path d="M195.254 535.013h40.438v10.63h-40.438z"/><path class="k" d="M219.139 469.614c.861 3.176 1.369 5.354 1.369 5.354l-6.309 2.78a37.794 37.794 0 0 1-3.366-1.9c2.47-3.154 5.259-5.502 8.306-6.234zm14.289 12.704c-.344.069-.706.138-1.059.189-21.166 3.219-6.981-8.2-6.981-8.2s.955-.861 2.247-2.307c3.951 3.157 5.569 6.72 5.793 10.318z"/><path d="M199.024 502.554s11.852-42.417 28.465-29.351-6.755 33.233-6.755 33.233z"/><circle class="k" cx="1.326" cy="1.326" r="1.326" transform="translate(203.68 454.714)"/><circle class="k" cx="1.326" cy="1.326" r="1.326" transform="translate(203.568 460.911)"/><circle class="k" cx="1.326" cy="1.326" r="1.326" transform="translate(242.113 455.928)"/><circle class="k" cx="1.326" cy="1.326" r="1.326" transform="translate(211.1 487.715)"/><circle class="k" cx="1.326" cy="1.326" r="1.326" transform="translate(239.35 466.231)"/><circle class="k" cx="1.326" cy="1.326" r="1.326" transform="translate(225.612 479.968)"/><circle class="k" cx="1.326" cy="1.326" r="1.326" transform="translate(208.225 457.365)"/><circle class="k" cx="1.326" cy="1.326" r="1.326" transform="translate(238.463 459.913)"/><circle class="k" cx="1.326" cy="1.326" r="1.326" transform="translate(233.918 470.216)"/><circle class="k" cx="1.326" cy="1.326" r="1.326" transform="translate(219.966 486.725)"/><circle class="k" cx="1.326" cy="1.326" r="1.326" transform="translate(217.082 480.183)"/><circle class="k" cx="1.326" cy="1.326" r="1.326" transform="translate(210.213 465.456)"/><path class="k" d="M195.254 535.013h40.438v3.882h-40.438z"/><path d="M188.832 500.454h52.832v37.107h-52.832z"/><circle class="k" cx="1.326" cy="1.326" r="1.326" transform="translate(221.739 492.707)"/><circle class="k" cx="1.326" cy="1.326" r="1.326" transform="translate(213.76 494.369)"/></g></svg>