<svg xmlns="http://www.w3.org/2000/svg" xmlns:xlink="http://www.w3.org/1999/xlink" viewBox="0 0 1492.42 1645.333"><defs><style>.a,.b,.c,.d{fill:#efeeff;}.b,.i{opacity:0.3;}.c,.j{opacity:0.4;}.d,.k{opacity:0.1;}.e{fill:#3f3d56;}.f{fill:#6c63ff;}.g{fill:url(#a);}.h{fill:#e7effd;}.l{fill:#d4dfec;}.m{opacity:0.64;}</style><linearGradient id="a" x1="0.5" y1="1" x2="0.5" gradientUnits="objectBoundingBox"><stop offset="0.2" stop-color="gray" stop-opacity="0.4"/><stop offset="0.46" stop-color="gray" stop-opacity="0.502"/><stop offset="1" stop-opacity="0.6"/></linearGradient></defs><g transform="translate(64.351 445.55)"><g transform="translate(-64.351 748.327) rotate(-60)"><path class="a" d="M1416.875,621.713c0,55.114-303.384,258.07-682.278,258.07S57.45,663.5,57.45,608.384,355.7,680.168,734.6,680.168,1416.875,566.549,1416.875,621.713Z" transform="translate(-42.069 49.771)"/><path class="a" d="M1423.638,725.315v2.211c-.832,22.905-13.589,45.686-36.867,61.772-24.694,17.042-57.81,26.011-91.808,31.737-5.316.894-10.658,1.7-15.986,2.484-2.72.373-5.428.745-8.124,1.093-75.684,9.937-152.959,11.838-229.873,13.664-80.454,1.987-160.983,3.95-241.524,4.969l-15.974.186c-122.2,1.317-244.357.211-366.112-6.72-37.786-2.136-75.945-4.969-113.409-9.739q-8.012-.981-15.974-2.149c-49.686-7.118-97.894-18.036-141.817-35.762a316.1,316.1,0,0,1-30.383-14.036c-27.588-14.645-50.854-33.166-62.369-55.9A78.4,78.4,0,0,1,45.468,676a100.888,100.888,0,0,1,2.77-15.987,142.45,142.45,0,0,1,15.688-36.9c17.937-30.333,44.879-57.524,68.107-86.007,49.587-60.7,81.883-137.407,36.122-199.627-13.13-17.875-32.11-33.538-42.8-52.233a84.118,84.118,0,0,1-10.484-32.818,118.092,118.092,0,0,1-.658-15.987,221.763,221.763,0,0,1,4.658-37.066c7.453-38.159,21.377-79.3,64.381-103.1,29.352-16.247,66.766-21.291,104.7-20.334q7.987.186,15.974.745c14.546.956,29,2.72,42.966,4.969,86.255,13.775,165.865,42.556,246.232,68.542,61.189,19.775,124.563,38.271,190.323,47.09,5.316.708,10.633,1.366,15.974,1.938,15.415,1.689,30.967,2.807,46.643,3.267,78.02,2.236,169.045-14.657,220.855-58.53,50.046-42.407,143.9-45.823,212.023-20.5l1.019.385q7.689,2.931,14.906,6.31c50.2,23.6,83.821,64.021,88.566,106.316a92.279,92.279,0,0,1,.422,15.825.662.662,0,0,1,0,.161c-3.254,52.034-45.786,95.733-88.975,139.506-5.341,5.4-10.695,10.807-15.986,16.247-14.012,14.384-27.588,28.88-39.364,43.8a205.4,205.4,0,0,0-14.806,21.241,137.181,137.181,0,0,0-10.521,21.39,88.969,88.969,0,0,0-5.8,23.974,62.689,62.689,0,0,0,6.211,34.284l.112.248c11.527,22.856,35.923,39.053,64.17,53.413,5.2,2.658,10.558,5.242,15.987,7.8,30.632,14.459,63.635,27.886,88.727,45.736a133.046,133.046,0,0,1,18.856,15.9,96.084,96.084,0,0,1,6.658,7.664,67.251,67.251,0,0,1,14.509,40.606C1423.638,724.644,1423.638,724.98,1423.638,725.315Z" transform="translate(-45.067 -75.83)"/><path class="a" d="M1423.638,725.315v2.211c-.832,22.905-13.589,45.686-36.867,61.772-24.694,17.042-57.81,26.011-91.808,31.737-5.316.894-10.658,1.7-15.986,2.484-2.72.373-5.428.745-8.124,1.093-75.684,9.937-152.959,11.838-229.873,13.664-80.454,1.987-160.983,3.95-241.524,4.969l-15.974.186c-122.2,1.317-244.357.211-366.112-6.72-37.786-2.136-75.945-4.969-113.409-9.739q-8.012-.981-15.974-2.149c-49.686-7.118-97.894-18.036-141.817-35.762a316.1,316.1,0,0,1-30.383-14.036c-27.588-14.645-50.854-33.166-62.369-55.9A78.4,78.4,0,0,1,45.468,676a100.888,100.888,0,0,1,2.77-15.987,142.45,142.45,0,0,1,15.688-36.9c17.937-30.333,44.879-57.524,68.107-86.007,49.587-60.7,81.883-137.407,36.122-199.627-13.13-17.875-32.11-33.538-42.8-52.233a84.118,84.118,0,0,1-10.484-32.818,118.092,118.092,0,0,1-.658-15.987,221.763,221.763,0,0,1,4.658-37.066c7.453-38.159,21.377-79.3,64.381-103.1,29.352-16.247,66.766-21.291,104.7-20.334q7.987.186,15.974.745c14.546.956,29,2.72,42.966,4.969,86.255,13.775,165.865,42.556,246.232,68.542,61.189,19.775,124.563,38.271,190.323,47.09,5.316.708,10.633,1.366,15.974,1.938,15.415,1.689,30.967,2.807,46.643,3.267,78.02,2.236,169.045-14.657,220.855-58.53,50.046-42.407,143.9-45.823,212.023-20.5l1.019.385q7.689,2.931,14.906,6.31c50.2,23.6,83.821,64.021,88.566,106.316a92.279,92.279,0,0,1,.422,15.825.662.662,0,0,1,0,.161c-3.254,52.034-45.786,95.733-88.975,139.506-5.341,5.4-10.695,10.807-15.986,16.247-14.012,14.384-27.588,28.88-39.364,43.8a205.4,205.4,0,0,0-14.806,21.241,137.181,137.181,0,0,0-10.521,21.39,88.969,88.969,0,0,0-5.8,23.974,62.689,62.689,0,0,0,6.211,34.284l.112.248c11.527,22.856,35.923,39.053,64.17,53.413,5.2,2.658,10.558,5.242,15.987,7.8,30.632,14.459,63.635,27.886,88.727,45.736a133.046,133.046,0,0,1,18.856,15.9,96.084,96.084,0,0,1,6.658,7.664,67.251,67.251,0,0,1,14.509,40.606C1423.638,724.644,1423.638,724.98,1423.638,725.315Z" transform="translate(-45.067 -75.83)"/><path class="a" d="M1054.386,120.875v261.8c-5.341,5.416-10.7,10.819-15.986,16.26V114.18Z" transform="translate(195.472 -66.543)"/><path class="a" d="M1370.443,220.985a.7.7,0,0,1,0,.161H101.4a118.269,118.269,0,0,1-.658-15.987H1370.02a92.254,92.254,0,0,1,.423,15.825Z" transform="translate(-31.596 -44.512)"/><circle class="a" cx="4.658" cy="4.658" r="4.658" transform="translate(295.152 84.541)"/><circle class="a" cx="4.658" cy="4.658" r="4.658" transform="translate(145.969 75.213)"/><circle class="a" cx="2" cy="2" r="2" transform="translate(350.427 87.199)"/><circle class="a" cx="2" cy="2" r="2" transform="translate(200.574 82.541)"/><circle class="a" cx="2" cy="2" r="2" transform="translate(198.587 222.221)"/><circle class="a" cx="2" cy="2" r="2" transform="translate(1120.973 116.663)"/><circle class="a" cx="2" cy="2" r="2" transform="translate(443.663 118.501)"/><circle class="a" cx="2" cy="2" r="2" transform="translate(1022.407 114.502)"/><circle class="a" cx="2" cy="2" r="2" transform="translate(1274.155 120.501)"/><path class="a" d="M1409.851,654.407v2.211c-.633,23.079-13.415,46.1-36.867,62.294-24.694,17.042-57.81,26.011-91.807,31.737-5.317.894-10.658,1.7-15.986,2.484-2.72.373-5.428.745-8.124,1.093-18.632,2.484-37.364,4.385-56.158,5.975-25.216,2.136-50.556,3.615-75.921,4.708-32.569,1.428-65.2,2.236-97.795,3.043-63.71,1.565-127.47,3.13-191.292,4.211l-22.644.373-27.626.373-15.974.186c-100.615,1.068-201.08.522-301.371-3.577q-10.012-.4-19.986-.869-22.359-.981-44.717-2.273c-29.874-1.689-59.984-3.826-89.771-6.993q-11.85-1.242-23.6-2.745-8.012-.981-15.974-2.149-8.869-1.242-17.663-2.708c-43.475-7.105-85.448-17.39-124.153-33.066A322.162,322.162,0,0,1,102,704.64V486.021c5.515-6.4,10.993-12.794,16.26-19.266,6.335-7.776,12.422-15.788,18.011-24.011H256.512V368.65H468.3v162.9H813.257V402.362h397.986a139.106,139.106,0,0,0-10.422,20.682v.7h-.46a88.967,88.967,0,0,0-5.8,23.974A62.691,62.691,0,0,0,1200.772,482v.522l.112.249c11.527,22.856,35.923,39.053,64.17,53.413,5.2,2.658,10.558,5.242,15.987,7.8,30.321,14.31,62.99,27.625,87.982,45.214l.745.522a133.658,133.658,0,0,1,18.4,15.378c.186.174.348.348.509.522a96.028,96.028,0,0,1,6.658,7.664,67.337,67.337,0,0,1,14.508,40.084C1409.851,653.737,1409.851,654.072,1409.851,654.407Z" transform="translate(-31.281 -4.923)"/><path class="b" d="M1409.851,654.407v2.211c-.633,23.079-13.415,46.1-36.867,62.294-24.694,17.042-57.81,26.011-91.807,31.737-5.317.894-10.658,1.7-15.986,2.484-2.72.373-5.428.745-8.124,1.093-18.632,2.484-37.364,4.385-56.158,5.975-25.216,2.136-50.556,3.615-75.921,4.708-32.569,1.428-65.2,2.236-97.795,3.043-63.71,1.565-127.47,3.13-191.292,4.211l-22.644.373-27.626.373-15.974.186c-100.615,1.068-201.08.522-301.371-3.577q-10.012-.4-19.986-.869-22.359-.981-44.717-2.273c-29.874-1.689-59.984-3.826-89.771-6.993q-11.85-1.242-23.6-2.745-8.012-.981-15.974-2.149-8.869-1.242-17.663-2.708c-43.475-7.105-85.448-17.39-124.153-33.066A322.162,322.162,0,0,1,102,704.64V486.021c5.515-6.4,10.993-12.794,16.26-19.266,6.335-7.776,12.422-15.788,18.011-24.011H256.512V368.65H468.3v162.9H813.257V402.362h397.986a139.106,139.106,0,0,0-10.422,20.682v.7h-.46a88.967,88.967,0,0,0-5.8,23.974A62.691,62.691,0,0,0,1200.772,482v.522l.112.249c11.527,22.856,35.923,39.053,64.17,53.413,5.2,2.658,10.558,5.242,15.987,7.8,30.321,14.31,62.99,27.625,87.982,45.214l.745.522a133.658,133.658,0,0,1,18.4,15.378c.186.174.348.348.509.522a96.028,96.028,0,0,1,6.658,7.664,67.337,67.337,0,0,1,14.508,40.084C1409.851,653.737,1409.851,654.072,1409.851,654.407Z" transform="translate(-31.281 -4.923)"/><rect class="c" width="35.526" height="23.974" transform="translate(110.22 468.031)"/><rect class="c" width="35.526" height="23.974" transform="translate(167.061 468.031)"/><rect class="c" width="35.526" height="23.974" transform="translate(819.726 418.755)"/><rect class="c" width="35.526" height="23.974" transform="translate(915.632 418.755)"/><rect class="c" width="35.526" height="23.974" transform="translate(1018.631 418.755)"/><rect class="c" width="35.526" height="23.974" transform="translate(819.726 492.017)"/><rect class="c" width="35.526" height="23.974" transform="translate(915.632 492.017)"/><rect class="a" width="35.526" height="23.974" transform="translate(1018.631 492.017)"/><rect class="c" width="35.526" height="23.974" transform="translate(819.726 565.267)"/><rect class="c" width="35.526" height="23.974" transform="translate(915.632 565.267)"/><rect class="c" width="35.526" height="23.974" transform="translate(1018.631 565.267)"/><rect class="c" width="35.526" height="23.974" transform="translate(819.726 638.529)"/><rect class="c" width="35.526" height="23.974" transform="translate(915.632 638.529)"/><rect class="c" width="35.526" height="23.974" transform="translate(1018.631 638.529)"/><rect class="c" width="35.526" height="23.974" transform="translate(819.726 711.792)"/><rect class="c" width="35.526" height="23.974" transform="translate(915.632 711.792)"/><rect class="c" width="35.526" height="23.974" transform="translate(1018.631 711.792)"/><path class="c" d="M991.21,413a88.959,88.959,0,0,0-5.8,23.974H965.92V413Z" transform="translate(177.921 5.817)"/><rect class="a" width="35.526" height="23.974" transform="translate(1143.841 492.017)"/><rect class="c" width="35.526" height="23.974" transform="translate(1143.841 565.267)"/><rect class="c" width="35.526" height="23.974" transform="translate(1143.841 638.529)"/><rect class="c" width="35.526" height="23.974" transform="translate(1143.841 711.792)"/><rect class="c" width="35.526" height="23.974" transform="translate(307.362 390.781)"/><rect class="a" width="35.526" height="23.974" transform="translate(307.362 444.53)"/><rect class="c" width="35.526" height="23.974" transform="translate(307.362 498.265)"/><rect class="c" width="35.526" height="23.974" transform="translate(307.362 552.013)"/><rect class="c" width="35.526" height="23.974" transform="translate(307.362 605.749)"/><rect class="c" width="35.526" height="23.974" transform="translate(307.362 659.497)"/><rect class="c" width="35.526" height="23.974" transform="translate(307.362 713.232)"/><rect class="c" width="35.526" height="23.974" transform="translate(110.22 530.685)"/><rect class="c" width="35.526" height="23.974" transform="translate(167.061 530.685)"/><rect class="c" width="35.526" height="23.974" transform="translate(110.22 593.34)"/><rect class="c" width="35.526" height="23.974" transform="translate(167.061 593.34)"/><rect class="c" width="35.526" height="23.974" transform="translate(110.22 655.994)"/><rect class="c" width="35.526" height="23.974" transform="translate(167.061 655.994)"/><rect class="c" width="177.603" height="21.427" transform="translate(508.044 554.56)"/><rect class="c" width="177.603" height="21.427" transform="translate(508.044 622.928)"/><rect class="c" width="177.603" height="21.427" transform="translate(508.044 691.308)"/><path class="a" d="M256.574,76.665V826.926q-8.012-.981-15.974-2.149V75.92C245.929,76.019,251.245,76.293,256.574,76.665Z" transform="translate(2.282 -75.808)"/><path class="a" d="M655.474,175.53V819.6l-15.974.186V173.58Q647.475,174.661,655.474,175.53Z" transform="translate(98.877 -52.159)"/><path class="a" d="M1402.381,562.117H45.39a100.883,100.883,0,0,1,2.77-15.987H1383.575A131.492,131.492,0,0,1,1402.381,562.117Z" transform="translate(-44.989 38.055)"/><path class="a" d="M1038.4,503.06c5.2,2.658,10.558,5.242,15.986,7.8V717.58c-5.317.894-10.658,1.7-15.986,2.484Z" transform="translate(195.472 27.625)"/><path class="a" d="M338.628,230.406h-3.056V227.35h-.547v3.056H331.97v.547h3.056v3.056h.547v-3.056h3.056Z" transform="translate(80.441 55.054)"/><path class="a" d="M849.908,179.276h-3.056V176.22h-.559v3.056H843.25v.547h3.043v3.056h.559v-3.056h3.056Z" transform="translate(204.249 42.672)"/><path class="a" d="M396.9,169.326h-3.056V166.27h-.559v3.056H390.24v.559h3.043v3.043h.559v-3.043H396.9Z" transform="translate(94.551 40.263)"/><circle class="a" cx="2" cy="2" r="2" transform="translate(484.791 402.893)"/><circle class="a" cx="2" cy="2" r="2" transform="translate(940.873 224.221)"/><circle class="a" cx="2" cy="2" r="2" transform="translate(1141.841 318.935)"/><circle class="a" cx="2" cy="2" r="2" transform="translate(827.104 336.09)"/><path class="a" d="M872.158,637s-8.434,39.289,29.1,43.948l2.323-4.36S874.518,649.26,872.158,637Z" transform="translate(155.02 60.059)"/><path class="a" d="M913.287,680.177l-8.695,1.851-.87.186s-23.291-18.906-22.992-61.114a105.588,105.588,0,0,0,11.117,17.6C901.052,650.912,911.548,667.221,913.287,680.177Z" transform="translate(157.291 56.209)"/><path class="a" d="M913.366,687.057a5.5,5.5,0,0,1-4.7.609c-22.359-5.242-14.844-78.256-14.844-78.256,1.242.584,2.6,9.937,7.751,21.862C910.621,652.376,920.558,681.765,913.366,687.057Z" transform="translate(160.169 53.378)"/><path class="a" d="M956.828,637s1.453,39.289-36.085,43.948l-2.323-4.36S954.5,649.26,956.828,637Z" transform="translate(166.418 60.059)"/><path class="a" d="M948.39,621.1c.273,42.233-29.985,61.114-29.985,61.114l-.87-.186-8.695-1.851c1.727-12.956,12.248-29.265,21.465-41.476a94.4,94.4,0,0,1,18.085-17.6Z" transform="translate(164.098 56.209)"/><path class="a" d="M918.451,683.224a13.887,13.887,0,0,1-4.969,3.826h0a9.565,9.565,0,0,1-1.826.609c-5.515,1.242-7.453-2.683-7.13-9.44.522-12.036,8.087-32.9,14.906-48.444,4.894-11.254,12.881-19.775,14.074-20.334C933.432,609.378,933.1,666.256,918.451,683.224Z" transform="translate(163.046 53.386)"/><path class="a" d="M913.075,588.77s-25.029,88.764-3.49,102.155S918.6,596.633,913.075,588.77Z" transform="translate(162.161 48.38)"/><path class="d" d="M872.158,637s-8.434,39.289,29.1,43.948l2.323-4.36S874.518,649.26,872.158,637Z" transform="translate(155.02 60.059)"/><path class="d" d="M913.287,680.177l-8.695,1.851-.87.186s-23.291-18.906-22.992-61.114a105.588,105.588,0,0,0,11.117,17.6C901.052,650.912,911.548,667.221,913.287,680.177Z" transform="translate(157.291 56.209)"/><path class="d" d="M913.366,687.057a5.5,5.5,0,0,1-4.7.609c-22.359-5.242-14.844-78.256-14.844-78.256,1.242.584,2.6,9.937,7.751,21.862C910.621,652.376,920.558,681.765,913.366,687.057Z" transform="translate(160.169 53.378)"/><path class="d" d="M956.828,637s1.453,39.289-36.085,43.948l-2.323-4.36S954.5,649.26,956.828,637Z" transform="translate(166.418 60.059)"/><path class="d" d="M948.39,621.1c.273,42.233-29.985,61.114-29.985,61.114l-.87-.186-8.695-1.851c1.727-12.956,12.248-29.265,21.465-41.476a94.4,94.4,0,0,1,18.085-17.6Z" transform="translate(164.098 56.209)"/><path class="d" d="M918.451,683.224a13.887,13.887,0,0,1-4.969,3.826h0a9.565,9.565,0,0,1-1.826.609c-5.515,1.242-7.453-2.683-7.13-9.44.522-12.036,8.087-32.9,14.906-48.444,4.894-11.254,12.881-19.775,14.074-20.334C933.432,609.378,933.1,666.256,918.451,683.224Z" transform="translate(163.046 53.386)"/><path class="d" d="M913.075,588.77s-25.029,88.764-3.49,102.155S918.6,596.633,913.075,588.77Z" transform="translate(162.161 48.38)"/><path class="a" d="M872.042,637s-4.969,39.289,32.594,43.948l2.323-4.36S874.4,649.26,872.042,637Z" transform="translate(155.135 60.059)"/><path class="a" d="M916.78,680.177l-8.7,1.851-.882.186s-26.781-18.906-26.483-61.114c0,0,6.857,7.354,14.608,17.6C904.545,650.912,915.041,667.221,916.78,680.177Z" transform="translate(157.289 56.209)"/><path class="d" d="M913.932,676.745l-8.695,1.851c-8.285-7.267-11.564-26.234-12.757-43.326C901.7,647.48,912.193,663.79,913.932,676.745Z" transform="translate(160.137 59.64)"/><path class="a" d="M916.676,687.057a5.5,5.5,0,0,1-4.7.609c-22.421-5.242-18.334-78.256-18.334-78.256,1.242.584,6.086,9.937,11.179,21.862C913.931,652.376,923.868,681.765,916.676,687.057Z" transform="translate(160.349 53.378)"/><path class="a" d="M956.147,637s4.969,39.289-32.594,43.948l-2.323-4.36S953.824,649.26,956.147,637Z" transform="translate(167.099 60.059)"/><path class="a" d="M947.71,621.1c.273,42.233-26.5,61.114-26.5,61.114l-.87-.186-8.695-1.851c1.739-12.955,12.248-29.265,21.464-41.475C940.841,628.429,947.71,621.1,947.71,621.1Z" transform="translate(164.779 56.209)"/><path class="d" d="M933.077,635.27c-1.118,15.949-4.037,33.538-11.117,41.7a14.279,14.279,0,0,1-1.615,1.627l-8.7-1.851C913.327,663.79,923.86,647.48,933.077,635.27Z" transform="translate(164.779 59.64)"/><path class="a" d="M921.264,683.224a13.889,13.889,0,0,1-4.969,3.826h0a9.668,9.668,0,0,1-1.838.609c-5.515,1.242-7.453-2.683-7.13-9.44.534-12.036,8.086-32.9,14.906-48.444,4.894-11.254,9.391-19.775,10.583-20.334C932.754,609.378,935.909,666.256,921.264,683.224Z" transform="translate(163.724 53.386)"/><path class="d" d="M914.686,682.8a6.21,6.21,0,0,1-3.54-1.13c-10.546-6.571-10.757-31.228-8.248-54.655C911.941,648.114,921.878,677.5,914.686,682.8Z" transform="translate(162.339 57.64)"/><path class="d" d="M921.257,679.26c-1.242,2.621-2.845,4.012-4.969,3.826h0a7.13,7.13,0,0,1-3.006-1.13,16,16,0,0,1-5.962-7.7c.534-12.037,8.087-32.9,14.906-48.444C924.586,647.411,925.393,670.379,921.257,679.26Z" transform="translate(163.731 57.35)"/><path class="a" d="M912.556,588.77s-21.539,88.764,0,102.155S918.084,596.633,912.556,588.77Z" transform="translate(162.68 48.38)"/><path class="a" d="M916.324,591.66H826.69V606.5h13.676l.335,1.752,5.478,28.805h52.108l5.478-28.805.335-1.752h12.223Z" transform="translate(200.239 143.273)"/><path class="d" d="M916.294,591.66H826.66V606.5h13.676l.336,1.752,5.478,28.805h52.109l5.478-28.805.335-1.752h12.223Z" transform="translate(200.232 143.273)"/><path class="a" d="M905.64,598.69l-1.5,7.863-5.478,28.806H846.551l-5.478-28.806-1.5-7.863Z" transform="translate(203.358 144.975)"/><path class="d" d="M905.64,598.69l-1.5,7.863H841.073l-1.5-7.863Z" transform="translate(203.358 144.975)"/><rect class="a" width="89.634" height="14.844" transform="translate(1030.419 734.933)"/><path class="a" d="M346.93,592.941a22.915,22.915,0,0,0-3.031,5.714c-.186.5-.373,1.068-.559,1.615a4.419,4.419,0,0,0-1.056-.36,14.669,14.669,0,0,0-4.745-.41c0-.621.062-1.242.087-1.95.2-7.031-.634-16.806-7.329-12.67-6.422,4-1.838,10.633,2.31,14.906.36.373.708.708,1.056,1.043-3.726,2.72-4.5,8.968-5.13,15.515s-6.211,13.664-9.863,17.763c-.36.41-.708.783-1.043,1.13a13.39,13.39,0,0,0-10.707-2.758l-.5-1.814c-2.981-10.769-9.18-29.427-17.08-33.538l1.043-1.317c3.354-4.4,7.13-10.919,1.553-12.583s-6.087,5.652-5.776,11.179a18.755,18.755,0,0,0,.161,1.95,8.235,8.235,0,0,0-5.851,2.844c-.261-.323-.547-.658-.857-1.019-4.521-5.354-12.831-13.813-15.341-7.453-2.335,5.962,4.969,13.664,10.111,18.21l.323.273c-3.453,14.011,11.6,25.414,19.725,30.408.36.236.708.447,1.043.646-11.179,13.179-18.1,37.9-18.1,37.9l31.377,5.7s20.781-17.924,18.123-34.78h.211c20.756-4.161,25.477-26.3,22.247-39.438l.36-.149a23.6,23.6,0,0,0,9.614-7.267C365.078,594.183,352.893,585.053,346.93,592.941Z" transform="translate(7.907 46.98)"/><path class="d" d="M346.93,592.941a22.915,22.915,0,0,0-3.031,5.714c-.186.5-.373,1.068-.559,1.615a4.419,4.419,0,0,0-1.056-.36,14.669,14.669,0,0,0-4.745-.41c0-.621.062-1.242.087-1.95.2-7.031-.634-16.806-7.329-12.67-6.422,4-1.838,10.633,2.31,14.906.36.373.708.708,1.056,1.043-3.726,2.72-4.5,8.968-5.13,15.515s-6.211,13.664-9.863,17.763c-.36.41-.708.783-1.043,1.13a13.39,13.39,0,0,0-10.707-2.758l-.5-1.814c-2.981-10.769-9.18-29.427-17.08-33.538l1.043-1.317c3.354-4.4,7.13-10.919,1.553-12.583s-6.087,5.652-5.776,11.179a18.755,18.755,0,0,0,.161,1.95,8.235,8.235,0,0,0-5.851,2.844c-.261-.323-.547-.658-.857-1.019-4.521-5.354-12.831-13.813-15.341-7.453-2.335,5.962,4.969,13.664,10.111,18.21l.323.273c-3.453,14.011,11.6,25.414,19.725,30.408.36.236.708.447,1.043.646-11.179,13.179-18.1,37.9-18.1,37.9l31.377,5.7s20.781-17.924,18.123-34.78h.211c20.756-4.161,25.477-26.3,22.247-39.438l.36-.149a23.6,23.6,0,0,0,9.614-7.267C365.078,594.183,352.893,585.053,346.93,592.941Z" transform="translate(7.907 46.98)"/><path class="a" d="M284.2,600.932l-3.664,10.732a59.243,59.243,0,0,1-4.608-3.727c-5.143-4.5-12.422-12.248-10.111-18.21,2.484-6.41,10.819,2.05,15.353,7.453C282.982,599.318,284.2,600.932,284.2,600.932Z" transform="translate(8.281 48.055)"/><path class="a" d="M287.586,595.884a53.071,53.071,0,0,1-3.565,4.2,54.973,54.973,0,0,1-.658-5.639c-.3-5.49.273-12.782,5.776-11.179S290.939,591.487,287.586,595.884Z" transform="translate(12.621 46.992)"/><path class="a" d="M326.839,597.4c-.124,3.528-.46,6.347-.46,6.347a46.6,46.6,0,0,1-4.571-4.087c-4.149-4.3-8.7-10.931-2.3-14.906C326.206,580.593,327.026,590.369,326.839,597.4Z" transform="translate(20.619 47.167)"/><path class="a" d="M345.554,600.853a23.6,23.6,0,0,1-9.614,7.267,26,26,0,0,1-3.23,1.168l-4.31-6.062a43.478,43.478,0,0,1,1.789-5.888,22.523,22.523,0,0,1,3.031-5.714C339.182,583.7,351.355,592.829,345.554,600.853Z" transform="translate(23.543 48.334)"/><path class="d" d="M279.112,595.26c1.814,2.137,3.031,3.726,3.031,3.726l-3.664,10.732a59.172,59.172,0,0,1-4.608-3.727,21.017,21.017,0,0,1,4.124-9.428Q278.553,595.894,279.112,595.26Z" transform="translate(10.338 49.952)"/><path class="d" d="M287.573,593.661a53.033,53.033,0,0,1-3.565,4.2,54.956,54.956,0,0,1-.658-5.639A7.279,7.279,0,0,1,287.573,593.661Z" transform="translate(12.634 49.216)"/><path class="a" d="M307.917,635.841l-9.105,4.012a54.567,54.567,0,0,1-4.857-2.745c-9.577-5.888-28.83-20.707-15.924-38.184s23.675,13.862,27.911,29.191C307.234,632.7,307.917,635.841,307.917,635.841Z" transform="translate(10.301 49.591)"/><path class="d" d="M320.74,597a7.454,7.454,0,0,1,5.031-2.261c-.124,3.528-.46,6.347-.46,6.347A46.613,46.613,0,0,1,320.74,597Z" transform="translate(21.688 49.826)"/><path class="d" d="M335.94,606.412a25.944,25.944,0,0,1-3.23,1.168l-4.31-6.062a43.475,43.475,0,0,1,1.789-5.888C332.971,597.257,335.021,601.307,335.94,606.412Z" transform="translate(23.543 50.042)"/><path class="a" d="M319.831,645.849c-.5.1-1.019.2-1.528.273-30.545,4.646-10.074-11.838-10.074-11.838s1.379-1.242,3.242-3.329c3.726-4.074,9.229-11.179,9.863-17.763.956-9.937,2.062-19.191,13.751-16.458C346.549,599.418,348.736,640.061,319.831,645.849Z" transform="translate(17.032 50.191)"/><rect class="a" width="58.356" height="15.341" transform="translate(277.948 772.086)"/><rect class="a" width="76.243" height="53.549" transform="translate(268.669 722.213)"/><rect class="d" width="58.356" height="15.341" transform="translate(277.948 772.086)"/><rect class="d" width="76.243" height="53.549" transform="translate(268.669 722.213)"/><rect class="a" width="58.356" height="15.341" transform="translate(281.774 772.086)"/><path class="d" d="M302,621.42c1.242,4.584,1.975,7.726,1.975,7.726l-9.1,4.012a54.552,54.552,0,0,1-4.857-2.745C293.575,625.867,297.6,622.476,302,621.42Z" transform="translate(14.247 56.287)"/><path class="d" d="M319.831,639.083c-.5.1-1.019.2-1.528.273-30.545,4.646-10.074-11.838-10.074-11.838s1.379-1.242,3.242-3.329C317.173,628.749,319.508,633.891,319.831,639.083Z" transform="translate(17.032 56.957)"/><path class="a" d="M276.29,668.651s17.1-61.213,41.078-42.357-9.751,47.96-9.751,47.96Z" transform="translate(10.924 56.593)"/><circle class="d" cx="1.913" cy="1.913" r="1.913" transform="translate(293.934 656.205)"/><circle class="d" cx="1.913" cy="1.913" r="1.913" transform="translate(293.773 665.148)"/><circle class="d" cx="1.913" cy="1.913" r="1.913" transform="translate(349.396 657.956)"/><circle class="d" cx="1.913" cy="1.913" r="1.913" transform="translate(304.641 703.829)"/><circle class="d" cx="1.913" cy="1.913" r="1.913" transform="translate(345.409 672.825)"/><circle class="d" cx="1.913" cy="1.913" r="1.913" transform="translate(325.584 692.65)"/><circle class="d" cx="1.913" cy="1.913" r="1.913" transform="translate(300.493 660.031)"/><circle class="d" cx="1.913" cy="1.913" r="1.913" transform="translate(344.13 663.708)"/><circle class="d" cx="1.913" cy="1.913" r="1.913" transform="translate(337.571 678.576)"/><circle class="d" cx="1.913" cy="1.913" r="1.913" transform="translate(317.436 702.401)"/><circle class="d" cx="1.913" cy="1.913" r="1.913" transform="translate(313.275 692.96)"/><circle class="d" cx="1.913" cy="1.913" r="1.913" transform="translate(303.362 671.707)"/><rect class="d" width="58.356" height="5.602" transform="translate(281.774 772.086)"/><rect class="a" width="76.243" height="53.549" transform="translate(272.507 722.213)"/><circle class="d" cx="1.913" cy="1.913" r="1.913" transform="translate(319.995 711.034)"/><circle class="d" cx="1.913" cy="1.913" r="1.913" transform="translate(308.48 713.431)"/></g><g transform="translate(205.515 97)"><path class="e" d="M999.457,613.361c0,38.191-210.228,178.828-472.781,178.828S57.45,642.316,57.45,604.125s206.673,49.742,469.226,49.742S999.457,575.135,999.457,613.361Z" transform="translate(-46.792 -148.059)"/><path class="f" d="M1000.341,525.887v1.532c-.577,15.872-9.417,31.658-25.547,42.8-17.112,11.809-40.059,18.024-63.618,21.992-3.684.62-7.385,1.179-11.078,1.721-1.885.258-3.761.516-5.629.758-52.445,6.886-105.992,8.2-159.289,9.468-55.75,1.377-111.553,2.737-167.363,3.443l-11.069.129c-84.68.912-169.326.146-253.7-4.657-26.184-1.48-52.626-3.443-78.586-6.748q-5.552-.68-11.069-1.489c-34.43-4.932-67.835-12.5-98.271-24.781a219.042,219.042,0,0,1-21.054-9.727C74.955,550.186,58.833,537.352,50.854,521.6a54.33,54.33,0,0,1-5.509-29.885,69.909,69.909,0,0,1,1.919-11.078,98.71,98.71,0,0,1,10.871-25.573c12.429-21.019,31.1-39.861,47.195-59.6,34.361-42.065,56.74-95.216,25.03-138.33-9.1-12.386-22.25-23.24-29.661-36.194A58.289,58.289,0,0,1,93.435,198.2a81.831,81.831,0,0,1-.456-11.078,153.67,153.67,0,0,1,3.228-25.685C101.371,135,111.02,106.49,140.819,90c20.339-11.259,46.265-14.753,72.552-14.09q5.535.129,11.069.516c10.079.663,20.1,1.885,29.773,3.443,59.77,9.546,114.935,29.489,170.625,47.5,42.4,13.7,86.316,26.52,131.883,32.631,3.684.491,7.368.947,11.069,1.343,10.682,1.171,21.458,1.945,32.321,2.264,54.063,1.549,117.139-10.157,153.04-40.558,34.679-29.386,99.717-31.753,146.92-14.2l.706.267q5.328,2.031,10.329,4.373c34.783,16.354,58.083,44.363,61.371,73.671a63.95,63.95,0,0,1,.293,10.966.458.458,0,0,1,0,.112c-2.255,36.057-31.727,66.338-61.655,96.67-3.7,3.744-7.411,7.488-11.078,11.259a396.724,396.724,0,0,0-27.277,30.35,142.324,142.324,0,0,0-10.26,14.719,95.058,95.058,0,0,0-7.291,14.822,61.649,61.649,0,0,0-4.02,16.612,43.44,43.44,0,0,0,4.3,23.757l.078.172c7.988,15.838,24.893,27.062,44.466,37.012,3.607,1.842,7.316,3.632,11.078,5.405,21.226,10.019,44.1,19.324,61.483,31.693a92.193,92.193,0,0,1,13.066,11.017,66.6,66.6,0,0,1,4.614,5.311,46.6,46.6,0,0,1,10.054,28.138C1000.341,525.423,1000.341,525.655,1000.341,525.887Z" transform="translate(-45.067 -75.83)"/><path class="g" d="M1000.341,525.887v1.532c-.577,15.872-9.417,31.658-25.547,42.8-17.112,11.809-40.059,18.024-63.618,21.992-3.684.62-7.385,1.179-11.078,1.721-1.885.258-3.761.516-5.629.758-52.445,6.886-105.992,8.2-159.289,9.468-55.75,1.377-111.553,2.737-167.363,3.443l-11.069.129c-84.68.912-169.326.146-253.7-4.657-26.184-1.48-52.626-3.443-78.586-6.748q-5.552-.68-11.069-1.489c-34.43-4.932-67.835-12.5-98.271-24.781a219.042,219.042,0,0,1-21.054-9.727C74.955,550.186,58.833,537.352,50.854,521.6a54.33,54.33,0,0,1-5.509-29.885,69.909,69.909,0,0,1,1.919-11.078,98.71,98.71,0,0,1,10.871-25.573c12.429-21.019,31.1-39.861,47.195-59.6,34.361-42.065,56.74-95.216,25.03-138.33-9.1-12.386-22.25-23.24-29.661-36.194A58.289,58.289,0,0,1,93.435,198.2a81.831,81.831,0,0,1-.456-11.078,153.67,153.67,0,0,1,3.228-25.685C101.371,135,111.02,106.49,140.819,90c20.339-11.259,46.265-14.753,72.552-14.09q5.535.129,11.069.516c10.079.663,20.1,1.885,29.773,3.443,59.77,9.546,114.935,29.489,170.625,47.5,42.4,13.7,86.316,26.52,131.883,32.631,3.684.491,7.368.947,11.069,1.343,10.682,1.171,21.458,1.945,32.321,2.264,54.063,1.549,117.139-10.157,153.04-40.558,34.679-29.386,99.717-31.753,146.92-14.2l.706.267q5.328,2.031,10.329,4.373c34.783,16.354,58.083,44.363,61.371,73.671a63.95,63.95,0,0,1,.293,10.966.458.458,0,0,1,0,.112c-2.255,36.057-31.727,66.338-61.655,96.67-3.7,3.744-7.411,7.488-11.078,11.259a396.724,396.724,0,0,0-27.277,30.35,142.324,142.324,0,0,0-10.26,14.719,95.058,95.058,0,0,0-7.291,14.822,61.649,61.649,0,0,0-4.02,16.612,43.44,43.44,0,0,0,4.3,23.757l.078.172c7.988,15.838,24.893,27.062,44.466,37.012,3.607,1.842,7.316,3.632,11.078,5.405,21.226,10.019,44.1,19.324,61.483,31.693a92.193,92.193,0,0,1,13.066,11.017,66.6,66.6,0,0,1,4.614,5.311,46.6,46.6,0,0,1,10.054,28.138C1000.341,525.423,1000.341,525.655,1000.341,525.887Z" transform="translate(-45.067 -75.83)"/><path class="e" d="M1049.478,118.819V300.23c-3.7,3.753-7.411,7.5-11.078,11.267V114.18Z" transform="translate(-183.395 -81.17)"/><path class="e" d="M980.561,216.126a.483.483,0,0,1,0,.112H101.182a81.953,81.953,0,0,1-.456-11.078H980.268a63.925,63.925,0,0,1,.293,10.966Z" transform="translate(-52.814 -93.84)"/><circle class="h" cx="3.228" cy="3.228" r="3.228" transform="translate(204.524 58.582)"/><circle class="h" cx="3.228" cy="3.228" r="3.228" transform="translate(101.148 52.118)"/><circle class="h" cx="1.386" cy="1.386" r="1.386" transform="translate(242.827 60.424)"/><circle class="h" cx="1.386" cy="1.386" r="1.386" transform="translate(138.987 57.196)"/><circle class="h" cx="1.386" cy="1.386" r="1.386" transform="translate(137.61 153.987)"/><circle class="h" cx="1.386" cy="1.386" r="1.386" transform="translate(776.773 80.841)"/><circle class="h" cx="1.386" cy="1.386" r="1.386" transform="translate(307.434 82.115)"/><circle class="h" cx="1.386" cy="1.386" r="1.386" transform="translate(708.472 79.343)"/><circle class="h" cx="1.386" cy="1.386" r="1.386" transform="translate(882.919 83.501)"/><path class="f" d="M1008.269,566.664V568.2c-.439,15.993-9.3,31.942-25.547,43.166-17.112,11.809-40.059,18.024-63.618,21.992-3.684.62-7.385,1.179-11.078,1.721-1.885.258-3.762.516-5.629.757-12.911,1.722-25.891,3.039-38.914,4.14-17.473,1.48-35.032,2.5-52.609,3.262-22.569.99-45.18,1.549-67.766,2.109-44.148,1.085-88.33,2.169-132.555,2.918l-15.691.258-19.143.258-11.069.129c-69.72.74-139.337.362-208.834-2.479q-6.938-.275-13.849-.6-15.493-.68-30.987-1.575c-20.7-1.171-41.565-2.651-62.206-4.846q-8.212-.861-16.354-1.9-5.552-.68-11.069-1.489-6.146-.861-12.24-1.876c-30.126-4.923-59.211-12.05-86.031-22.913A223.24,223.24,0,0,1,102,601.473V449.982c3.822-4.433,7.618-8.866,11.267-13.35,4.39-5.388,8.607-10.94,12.481-16.638h83.32V368.65H355.825V481.528H594.862V392.011H870.645a96.4,96.4,0,0,0-7.222,14.331v.482H863.1a61.651,61.651,0,0,0-4.02,16.612,43.442,43.442,0,0,0,4.3,23.757v.361l.077.172c7.988,15.838,24.893,27.062,44.466,37.012,3.607,1.842,7.316,3.632,11.078,5.406,21.011,9.916,43.648,19.143,60.966,31.331l.516.362a92.614,92.614,0,0,1,12.748,10.656c.129.121.241.241.353.362a66.567,66.567,0,0,1,4.614,5.311,46.661,46.661,0,0,1,10.053,27.776C1008.269,566.2,1008.269,566.432,1008.269,566.664Z" transform="translate(-52.995 -116.607)"/><path class="i" d="M1008.269,566.664V568.2c-.439,15.993-9.3,31.942-25.547,43.166-17.112,11.809-40.059,18.024-63.618,21.992-3.684.62-7.385,1.179-11.078,1.721-1.885.258-3.762.516-5.629.757-12.911,1.722-25.891,3.039-38.914,4.14-17.473,1.48-35.032,2.5-52.609,3.262-22.569.99-45.18,1.549-67.766,2.109-44.148,1.085-88.33,2.169-132.555,2.918l-15.691.258-19.143.258-11.069.129c-69.72.74-139.337.362-208.834-2.479q-6.938-.275-13.849-.6-15.493-.68-30.987-1.575c-20.7-1.171-41.565-2.651-62.206-4.846q-8.212-.861-16.354-1.9-5.552-.68-11.069-1.489-6.146-.861-12.24-1.876c-30.126-4.923-59.211-12.05-86.031-22.913A223.24,223.24,0,0,1,102,601.473V449.982c3.822-4.433,7.618-8.866,11.267-13.35,4.39-5.388,8.607-10.94,12.481-16.638h83.32V368.65H355.825V481.528H594.862V392.011H870.645a96.4,96.4,0,0,0-7.222,14.331v.482H863.1a61.651,61.651,0,0,0-4.02,16.612,43.442,43.442,0,0,0,4.3,23.757v.361l.077.172c7.988,15.838,24.893,27.062,44.466,37.012,3.607,1.842,7.316,3.632,11.078,5.406,21.011,9.916,43.648,19.143,60.966,31.331l.516.362a92.614,92.614,0,0,1,12.748,10.656c.129.121.241.241.353.362a66.567,66.567,0,0,1,4.614,5.311,46.661,46.661,0,0,1,10.053,27.776C1008.269,566.2,1008.269,566.432,1008.269,566.664Z" transform="translate(-52.995 -116.607)"/><rect class="j" width="24.617" height="16.612" transform="translate(76.376 324.32)"/><rect class="j" width="24.617" height="16.612" transform="translate(115.764 324.32)"/><rect class="j" width="24.617" height="16.612" transform="translate(568.025 290.174)"/><rect class="j" width="24.617" height="16.612" transform="translate(634.483 290.174)"/><rect class="j" width="24.617" height="16.612" transform="translate(705.856 290.174)"/><rect class="j" width="24.617" height="16.612" transform="translate(568.025 340.941)"/><rect class="j" width="24.617" height="16.612" transform="translate(634.483 340.941)"/><rect class="f" width="24.617" height="16.612" transform="translate(705.856 340.941)"/><rect class="j" width="24.617" height="16.612" transform="translate(568.025 391.699)"/><rect class="j" width="24.617" height="16.612" transform="translate(634.483 391.699)"/><rect class="j" width="24.617" height="16.612" transform="translate(705.856 391.699)"/><rect class="j" width="24.617" height="16.612" transform="translate(568.025 442.466)"/><rect class="j" width="24.617" height="16.612" transform="translate(634.483 442.466)"/><rect class="j" width="24.617" height="16.612" transform="translate(705.856 442.466)"/><rect class="j" width="24.617" height="16.612" transform="translate(568.025 493.232)"/><rect class="j" width="24.617" height="16.612" transform="translate(634.483 493.232)"/><rect class="j" width="24.617" height="16.612" transform="translate(705.856 493.232)"/><path class="j" d="M983.445,413a61.646,61.646,0,0,0-4.02,16.612H965.92V413Z" transform="translate(-173.301 -122.783)"/><rect class="f" width="24.617" height="16.612" transform="translate(792.619 340.941)"/><rect class="j" width="24.617" height="16.612" transform="translate(792.619 391.699)"/><rect class="j" width="24.617" height="16.612" transform="translate(792.619 442.466)"/><rect class="j" width="24.617" height="16.612" transform="translate(792.619 493.232)"/><rect class="j" width="24.617" height="16.612" transform="translate(212.985 270.79)"/><rect class="f" width="24.617" height="16.612" transform="translate(212.985 308.035)"/><rect class="j" width="24.617" height="16.612" transform="translate(212.985 345.27)"/><rect class="j" width="24.617" height="16.612" transform="translate(212.985 382.515)"/><rect class="j" width="24.617" height="16.612" transform="translate(212.985 419.75)"/><rect class="j" width="24.617" height="16.612" transform="translate(212.985 456.995)"/><rect class="j" width="24.617" height="16.612" transform="translate(212.985 494.231)"/><rect class="j" width="24.617" height="16.612" transform="translate(76.376 367.736)"/><rect class="j" width="24.617" height="16.612" transform="translate(115.764 367.736)"/><rect class="j" width="24.617" height="16.612" transform="translate(76.376 411.152)"/><rect class="j" width="24.617" height="16.612" transform="translate(115.764 411.152)"/><rect class="j" width="24.617" height="16.612" transform="translate(76.376 454.568)"/><rect class="j" width="24.617" height="16.612" transform="translate(115.764 454.568)"/><rect class="j" width="123.069" height="14.848" transform="translate(352.047 384.279)"/><rect class="j" width="123.069" height="14.848" transform="translate(352.047 431.655)"/><rect class="j" width="123.069" height="14.848" transform="translate(352.047 479.039)"/><path class="e" d="M251.669,76.436v519.89q-5.552-.68-11.069-1.489V75.92C244.293,75.989,247.977,76.178,251.669,76.436Z" transform="translate(-72.296 -75.843)"/><path class="e" d="M650.569,174.931v446.3l-11.069.129V173.58Q645.026,174.329,650.569,174.931Z" transform="translate(-127.845 -89.442)"/><path class="e" d="M985.71,557.208H45.39a69.909,69.909,0,0,1,1.919-11.078H972.678A91.117,91.117,0,0,1,985.71,557.208Z" transform="translate(-45.112 -141.322)"/><path class="e" d="M1038.4,503.06c3.606,1.842,7.316,3.632,11.078,5.405V651.711c-3.684.62-7.385,1.179-11.078,1.721Z" transform="translate(-183.395 -135.324)"/><path class="h" d="M336.584,229.467h-2.117V227.35h-.379v2.117H331.97v.379h2.117v2.117h.379v-2.117h2.117Z" transform="translate(-46.192 -31.66)"/><path class="h" d="M847.864,178.337h-2.117V176.22h-.387v2.117H843.25v.379h2.109v2.117h.387v-2.117h2.117Z" transform="translate(-117.391 -24.54)"/><path class="h" d="M394.854,168.387h-2.117V166.27h-.387v2.117H390.24v.387h2.109v2.109h.387v-2.109h2.117Z" transform="translate(-54.306 -23.154)"/><circle class="h" cx="1.386" cy="1.386" r="1.386" transform="translate(335.934 279.182)"/><circle class="h" cx="1.386" cy="1.386" r="1.386" transform="translate(651.973 155.373)"/><circle class="h" cx="1.386" cy="1.386" r="1.386" transform="translate(791.233 221.005)"/><circle class="h" cx="1.386" cy="1.386" r="1.386" transform="translate(573.138 232.892)"/><path class="f" d="M871.909,637s-5.844,27.225,20.167,30.453l1.61-3.021S873.545,645.5,871.909,637Z" transform="translate(-160.131 -153.976)"/><path class="f" d="M903.29,662.037l-6.025,1.283-.6.129s-16.139-13.1-15.932-42.349a73.174,73.174,0,0,0,7.7,12.2C894.812,641.758,902.085,653.059,903.29,662.037Z" transform="translate(-161.438 -151.762)"/><path class="f" d="M906.993,663.215a3.813,3.813,0,0,1-3.254.422C888.246,660,893.454,609.41,893.454,609.41c.861.4,1.8,6.886,5.371,15.149C905.091,639.183,911.977,659.548,906.993,663.215Z" transform="translate(-163.093 -150.134)"/><path class="f" d="M945.034,637s1.007,27.225-25,30.453l-1.61-3.021S943.425,645.5,945.034,637Z" transform="translate(-166.687 -153.976)"/><path class="f" d="M936.246,621.1c.189,29.265-20.778,42.349-20.778,42.349l-.6-.129-6.025-1.283c1.2-8.977,8.487-20.279,14.874-28.74a65.412,65.412,0,0,1,12.532-12.2Z" transform="translate(-165.352 -151.762)"/><path class="f" d="M914.165,660.568a9.623,9.623,0,0,1-3.443,2.651h0a6.626,6.626,0,0,1-1.265.422c-3.822.861-5.165-1.859-4.941-6.542.362-8.341,5.6-22.8,10.329-33.569,3.391-7.8,8.926-13.7,9.752-14.09C924.546,609.4,924.313,648.81,914.165,660.568Z" transform="translate(-164.747 -150.138)"/><path class="f" d="M909.318,588.77s-17.344,61.509-2.419,70.788S913.149,594.219,909.318,588.77Z" transform="translate(-164.239 -147.26)"/><path class="k" d="M871.909,637s-5.844,27.225,20.167,30.453l1.61-3.021S873.545,645.5,871.909,637Z" transform="translate(-160.131 -153.976)"/><path class="k" d="M903.29,662.037l-6.025,1.283-.6.129s-16.139-13.1-15.932-42.349a73.174,73.174,0,0,0,7.7,12.2C894.812,641.758,902.085,653.059,903.29,662.037Z" transform="translate(-161.438 -151.762)"/><path class="k" d="M906.993,663.215a3.813,3.813,0,0,1-3.254.422C888.246,660,893.454,609.41,893.454,609.41c.861.4,1.8,6.886,5.371,15.149C905.091,639.183,911.977,659.548,906.993,663.215Z" transform="translate(-163.093 -150.134)"/><path class="k" d="M945.034,637s1.007,27.225-25,30.453l-1.61-3.021S943.425,645.5,945.034,637Z" transform="translate(-166.687 -153.976)"/><path class="k" d="M936.246,621.1c.189,29.265-20.778,42.349-20.778,42.349l-.6-.129-6.025-1.283c1.2-8.977,8.487-20.279,14.874-28.74a65.412,65.412,0,0,1,12.532-12.2Z" transform="translate(-165.352 -151.762)"/><path class="k" d="M914.165,660.568a9.623,9.623,0,0,1-3.443,2.651h0a6.626,6.626,0,0,1-1.265.422c-3.822.861-5.165-1.859-4.941-6.542.362-8.341,5.6-22.8,10.329-33.569,3.391-7.8,8.926-13.7,9.752-14.09C924.546,609.4,924.313,648.81,914.165,660.568Z" transform="translate(-164.747 -150.138)"/><path class="k" d="M909.318,588.77s-17.344,61.509-2.419,70.788S913.149,594.219,909.318,588.77Z" transform="translate(-164.239 -147.26)"/><path class="f" d="M871.976,637s-3.443,27.225,22.586,30.453l1.61-3.021S873.611,645.5,871.976,637Z" transform="translate(-160.198 -153.976)"/><path class="f" d="M905.707,662.037l-6.025,1.283-.611.129s-18.558-13.1-18.351-42.349c0,0,4.751,5.1,10.122,12.2C897.229,641.758,904.5,653.059,905.707,662.037Z" transform="translate(-161.436 -151.762)"/><path class="k" d="M907.345,664.01l-6.025,1.283c-5.741-5.035-8.014-18.179-8.84-30.023C898.867,643.731,906.14,655.033,907.345,664.01Z" transform="translate(-163.074 -153.735)"/><path class="f" d="M909.516,663.215a3.813,3.813,0,0,1-3.254.422c-15.536-3.632-12.7-54.227-12.7-54.227.861.4,4.218,6.886,7.747,15.149C907.613,639.183,914.5,659.548,909.516,663.215Z" transform="translate(-163.196 -150.134)"/><path class="f" d="M945.425,637s3.443,27.225-22.586,30.453l-1.61-3.021S943.816,645.5,945.425,637Z" transform="translate(-167.078 -153.976)"/><path class="f" d="M936.637,621.1c.189,29.265-18.36,42.349-18.36,42.349l-.6-.129-6.025-1.283c1.205-8.977,8.487-20.279,14.874-28.74C931.878,626.178,936.637,621.1,936.637,621.1Z" transform="translate(-165.744 -151.762)"/><path class="k" d="M926.5,635.27c-.775,11.052-2.8,23.24-7.7,28.9a9.894,9.894,0,0,1-1.119,1.128l-6.025-1.282C912.812,655.033,920.111,643.731,926.5,635.27Z" transform="translate(-165.744 -153.735)"/><path class="f" d="M916.974,660.568a9.625,9.625,0,0,1-3.443,2.651h0a6.7,6.7,0,0,1-1.274.422c-3.822.861-5.164-1.859-4.941-6.542.37-8.341,5.6-22.8,10.329-33.569,3.391-7.8,6.507-13.7,7.333-14.09C924.936,609.4,927.122,648.81,916.974,660.568Z" transform="translate(-165.137 -150.138)"/><path class="k" d="M910.66,665.666a4.3,4.3,0,0,1-2.453-.783c-7.308-4.553-7.454-21.639-5.715-37.873C908.758,641.634,915.644,662,910.66,665.666Z" transform="translate(-164.341 -152.585)"/><path class="k" d="M916.978,662.848c-.861,1.816-1.971,2.78-3.443,2.651h0a4.941,4.941,0,0,1-2.083-.783,11.088,11.088,0,0,1-4.132-5.337c.37-8.341,5.6-22.8,10.329-33.569C919.284,640.778,919.844,656.694,916.978,662.848Z" transform="translate(-165.141 -152.418)"/><path class="f" d="M909.617,588.77s-14.925,61.509,0,70.788S913.447,594.219,909.617,588.77Z" transform="translate(-164.537 -147.26)"/><path class="l" d="M888.8,591.66H826.69v10.286h9.477l.232,1.214,3.8,19.961H876.3l3.8-19.961.232-1.214h8.47Z" transform="translate(-115.085 -82.392)"/><path class="k" d="M888.771,591.66H826.66v10.286h9.477l.232,1.214,3.8,19.961h36.108l3.8-19.961.232-1.214h8.47Z" transform="translate(-115.08 -82.392)"/><path class="l" d="M885.353,598.69l-1.041,5.449-3.8,19.961H844.407l-3.8-19.961-1.042-5.449Z" transform="translate(-116.878 -83.371)"/><path class="k" d="M885.353,598.69l-1.041,5.449h-43.7l-1.042-5.449Z" transform="translate(-116.878 -83.371)"/><rect class="l" width="62.111" height="10.286" transform="translate(714.024 509.268)"/><path class="f" d="M321.414,589.884a15.879,15.879,0,0,0-2.1,3.959c-.129.344-.258.74-.387,1.119a3.062,3.062,0,0,0-.732-.25,10.165,10.165,0,0,0-3.288-.284c0-.43.043-.861.06-1.351.138-4.872-.439-11.646-5.078-8.78-4.45,2.772-1.274,7.368,1.6,10.329.25.258.491.491.732.723-2.582,1.885-3.116,6.215-3.555,10.751s-4.3,9.468-6.834,12.309c-.25.284-.491.542-.723.783a9.279,9.279,0,0,0-7.42-1.911l-.344-1.257c-2.066-7.463-6.361-20.391-11.835-23.24l.723-.912c2.324-3.047,4.941-7.566,1.076-8.719s-4.218,3.916-4,7.747a12.994,12.994,0,0,0,.112,1.351,5.706,5.706,0,0,0-4.054,1.971c-.181-.224-.379-.456-.594-.706-3.133-3.71-8.892-9.571-10.63-5.164-1.618,4.132,3.443,9.468,7.006,12.618l.224.189c-2.393,9.709,8.039,17.611,13.669,21.071.25.164.491.31.723.448-7.747,9.133-12.541,26.261-12.541,26.261l21.742,3.951s14.4-12.421,12.558-24.1h.146c14.383-2.883,17.654-18.222,15.416-27.329l.25-.1A16.354,16.354,0,0,0,330,596.322C333.989,590.745,325.545,584.418,321.414,589.884Z" transform="translate(-75.531 -146.454)"/><path class="k" d="M321.414,589.884a15.879,15.879,0,0,0-2.1,3.959c-.129.344-.258.74-.387,1.119a3.062,3.062,0,0,0-.732-.25,10.165,10.165,0,0,0-3.288-.284c0-.43.043-.861.06-1.351.138-4.872-.439-11.646-5.078-8.78-4.45,2.772-1.274,7.368,1.6,10.329.25.258.491.491.732.723-2.582,1.885-3.116,6.215-3.555,10.751s-4.3,9.468-6.834,12.309c-.25.284-.491.542-.723.783a9.279,9.279,0,0,0-7.42-1.911l-.344-1.257c-2.066-7.463-6.361-20.391-11.835-23.24l.723-.912c2.324-3.047,4.941-7.566,1.076-8.719s-4.218,3.916-4,7.747a12.994,12.994,0,0,0,.112,1.351,5.706,5.706,0,0,0-4.054,1.971c-.181-.224-.379-.456-.594-.706-3.133-3.71-8.892-9.571-10.63-5.164-1.618,4.132,3.443,9.468,7.006,12.618l.224.189c-2.393,9.709,8.039,17.611,13.669,21.071.25.164.491.31.723.448-7.747,9.133-12.541,26.261-12.541,26.261l21.742,3.951s14.4-12.421,12.558-24.1h.146c14.383-2.883,17.654-18.222,15.416-27.329l.25-.1A16.354,16.354,0,0,0,330,596.322C333.989,590.745,325.545,584.418,321.414,589.884Z" transform="translate(-75.531 -146.454)"/><path class="f" d="M278.42,596.786l-2.539,7.437a41.041,41.041,0,0,1-3.193-2.582c-3.563-3.116-8.607-8.487-7.006-12.618,1.721-4.441,7.5,1.42,10.639,5.164C277.576,595.667,278.42,596.786,278.42,596.786Z" transform="translate(-75.746 -147.073)"/><path class="f" d="M286.269,591.94a36.77,36.77,0,0,1-2.47,2.909,38.1,38.1,0,0,1-.456-3.908c-.207-3.8.189-8.857,4-7.747S288.593,588.893,286.269,591.94Z" transform="translate(-78.242 -146.462)"/><path class="f" d="M323.612,593.211c-.086,2.444-.318,4.4-.318,4.4a32.289,32.289,0,0,1-3.168-2.832c-2.875-2.978-6.025-7.575-1.592-10.329C323.173,581.565,323.741,588.339,323.612,593.211Z" transform="translate(-82.842 -146.562)"/><path class="f" d="M340.287,597.084a16.352,16.352,0,0,1-6.662,5.035,18.005,18.005,0,0,1-2.238.809l-2.987-4.2a30.13,30.13,0,0,1,1.239-4.08,15.608,15.608,0,0,1,2.1-3.959C335.871,585.2,344.307,591.523,340.287,597.084Z" transform="translate(-84.523 -147.233)"/><path class="k" d="M277.5,595.26c1.257,1.48,2.1,2.582,2.1,2.582l-2.539,7.437a41,41,0,0,1-3.193-2.582,14.564,14.564,0,0,1,2.858-6.533Q277.115,595.7,277.5,595.26Z" transform="translate(-76.929 -148.164)"/><path class="k" d="M286.277,593.218a36.74,36.74,0,0,1-2.47,2.909,38.084,38.084,0,0,1-.456-3.908A5.044,5.044,0,0,1,286.277,593.218Z" transform="translate(-78.249 -147.74)"/><path class="f" d="M297.416,622.924l-6.309,2.78a37.8,37.8,0,0,1-3.365-1.9c-6.636-4.08-19.978-14.349-11.035-26.459s16.406,9.606,19.341,20.228C296.943,620.746,297.416,622.924,297.416,622.924Z" transform="translate(-76.908 -147.956)"/><path class="k" d="M320.74,596.307a5.165,5.165,0,0,1,3.486-1.567c-.086,2.444-.318,4.4-.318,4.4a32.3,32.3,0,0,1-3.168-2.832Z" transform="translate(-83.456 -148.091)"/><path class="k" d="M333.625,603.1a17.976,17.976,0,0,1-2.238.809l-2.987-4.2a30.13,30.13,0,0,1,1.239-4.08C331.568,596.758,332.988,599.564,333.625,603.1Z" transform="translate(-84.523 -148.215)"/><path class="f" d="M314.207,630.619c-.344.069-.706.138-1.059.189-21.166,3.219-6.981-8.2-6.981-8.2s.955-.861,2.247-2.307c2.582-2.823,6.4-7.747,6.834-12.309.663-6.886,1.429-13.3,9.528-11.4C332.721,598.445,334.236,626.608,314.207,630.619Z" transform="translate(-80.779 -148.301)"/><rect class="l" width="40.438" height="10.63" transform="translate(192.602 535.013)"/><rect class="l" width="52.832" height="37.107" transform="translate(186.173 500.454)"/><rect class="k" width="40.438" height="10.63" transform="translate(192.602 535.013)"/><rect class="k" width="52.832" height="37.107" transform="translate(186.173 500.454)"/><rect class="l" width="40.438" height="10.63" transform="translate(195.254 535.013)"/><path class="k" d="M298.316,621.42c.861,3.176,1.369,5.354,1.369,5.354l-6.309,2.78a37.794,37.794,0,0,1-3.366-1.9C292.48,624.5,295.269,622.152,298.316,621.42Z" transform="translate(-79.177 -151.806)"/><path class="k" d="M314.207,634.51c-.344.069-.706.138-1.059.189-21.166,3.219-6.981-8.2-6.981-8.2s.955-.861,2.247-2.307C312.365,627.349,313.983,630.912,314.207,634.51Z" transform="translate(-80.779 -152.192)"/><path class="f" d="M276.29,654.537s11.852-42.417,28.465-29.351S298,658.419,298,658.419Z" transform="translate(-77.266 -151.983)"/><circle class="k" cx="1.326" cy="1.326" r="1.326" transform="translate(203.68 454.714)"/><circle class="k" cx="1.326" cy="1.326" r="1.326" transform="translate(203.568 460.911)"/><circle class="k" cx="1.326" cy="1.326" r="1.326" transform="translate(242.113 455.928)"/><circle class="k" cx="1.326" cy="1.326" r="1.326" transform="translate(211.1 487.715)"/><circle class="k" cx="1.326" cy="1.326" r="1.326" transform="translate(239.35 466.231)"/><circle class="k" cx="1.326" cy="1.326" r="1.326" transform="translate(225.612 479.968)"/><circle class="k" cx="1.326" cy="1.326" r="1.326" transform="translate(208.225 457.365)"/><circle class="k" cx="1.326" cy="1.326" r="1.326" transform="translate(238.463 459.913)"/><circle class="k" cx="1.326" cy="1.326" r="1.326" transform="translate(233.918 470.216)"/><circle class="k" cx="1.326" cy="1.326" r="1.326" transform="translate(219.966 486.725)"/><circle class="k" cx="1.326" cy="1.326" r="1.326" transform="translate(217.082 480.183)"/><circle class="k" cx="1.326" cy="1.326" r="1.326" transform="translate(210.213 465.456)"/><rect class="k" width="40.438" height="3.882" transform="translate(195.254 535.013)"/><rect class="l" width="52.832" height="37.107" transform="translate(188.832 500.454)"/><circle class="k" cx="1.326" cy="1.326" r="1.326" transform="translate(221.739 492.707)"/><circle class="k" cx="1.326" cy="1.326" r="1.326" transform="translate(213.76 494.369)"/></g><g class="m" transform="translate(205.515 97)"><path d="M999.457,613.361c0,38.191-210.228,178.828-472.781,178.828S57.45,642.316,57.45,604.125s206.673,49.742,469.226,49.742S999.457,575.135,999.457,613.361Z" transform="translate(-46.792 -148.059)"/><path d="M1000.341,525.887v1.532c-.577,15.872-9.417,31.658-25.547,42.8-17.112,11.809-40.059,18.024-63.618,21.992-3.684.62-7.385,1.179-11.078,1.721-1.885.258-3.761.516-5.629.758-52.445,6.886-105.992,8.2-159.289,9.468-55.75,1.377-111.553,2.737-167.363,3.443l-11.069.129c-84.68.912-169.326.146-253.7-4.657-26.184-1.48-52.626-3.443-78.586-6.748q-5.552-.68-11.069-1.489c-34.43-4.932-67.835-12.5-98.271-24.781a219.042,219.042,0,0,1-21.054-9.727C74.955,550.186,58.833,537.352,50.854,521.6a54.33,54.33,0,0,1-5.509-29.885,69.909,69.909,0,0,1,1.919-11.078,98.71,98.71,0,0,1,10.871-25.573c12.429-21.019,31.1-39.861,47.195-59.6,34.361-42.065,56.74-95.216,25.03-138.33-9.1-12.386-22.25-23.24-29.661-36.194A58.289,58.289,0,0,1,93.435,198.2a81.831,81.831,0,0,1-.456-11.078,153.67,153.67,0,0,1,3.228-25.685C101.371,135,111.02,106.49,140.819,90c20.339-11.259,46.265-14.753,72.552-14.09q5.535.129,11.069.516c10.079.663,20.1,1.885,29.773,3.443,59.77,9.546,114.935,29.489,170.625,47.5,42.4,13.7,86.316,26.52,131.883,32.631,3.684.491,7.368.947,11.069,1.343,10.682,1.171,21.458,1.945,32.321,2.264,54.063,1.549,117.139-10.157,153.04-40.558,34.679-29.386,99.717-31.753,146.92-14.2l.706.267q5.328,2.031,10.329,4.373c34.783,16.354,58.083,44.363,61.371,73.671a63.95,63.95,0,0,1,.293,10.966.458.458,0,0,1,0,.112c-2.255,36.057-31.727,66.338-61.655,96.67-3.7,3.744-7.411,7.488-11.078,11.259a396.724,396.724,0,0,0-27.277,30.35,142.324,142.324,0,0,0-10.26,14.719,95.058,95.058,0,0,0-7.291,14.822,61.649,61.649,0,0,0-4.02,16.612,43.44,43.44,0,0,0,4.3,23.757l.078.172c7.988,15.838,24.893,27.062,44.466,37.012,3.607,1.842,7.316,3.632,11.078,5.405,21.226,10.019,44.1,19.324,61.483,31.693a92.193,92.193,0,0,1,13.066,11.017,66.6,66.6,0,0,1,4.614,5.311,46.6,46.6,0,0,1,10.054,28.138C1000.341,525.423,1000.341,525.655,1000.341,525.887Z" transform="translate(-45.067 -75.83)"/><path d="M1000.341,525.887v1.532c-.577,15.872-9.417,31.658-25.547,42.8-17.112,11.809-40.059,18.024-63.618,21.992-3.684.62-7.385,1.179-11.078,1.721-1.885.258-3.761.516-5.629.758-52.445,6.886-105.992,8.2-159.289,9.468-55.75,1.377-111.553,2.737-167.363,3.443l-11.069.129c-84.68.912-169.326.146-253.7-4.657-26.184-1.48-52.626-3.443-78.586-6.748q-5.552-.68-11.069-1.489c-34.43-4.932-67.835-12.5-98.271-24.781a219.042,219.042,0,0,1-21.054-9.727C74.955,550.186,58.833,537.352,50.854,521.6a54.33,54.33,0,0,1-5.509-29.885,69.909,69.909,0,0,1,1.919-11.078,98.71,98.71,0,0,1,10.871-25.573c12.429-21.019,31.1-39.861,47.195-59.6,34.361-42.065,56.74-95.216,25.03-138.33-9.1-12.386-22.25-23.24-29.661-36.194A58.289,58.289,0,0,1,93.435,198.2a81.831,81.831,0,0,1-.456-11.078,153.67,153.67,0,0,1,3.228-25.685C101.371,135,111.02,106.49,140.819,90c20.339-11.259,46.265-14.753,72.552-14.09q5.535.129,11.069.516c10.079.663,20.1,1.885,29.773,3.443,59.77,9.546,114.935,29.489,170.625,47.5,42.4,13.7,86.316,26.52,131.883,32.631,3.684.491,7.368.947,11.069,1.343,10.682,1.171,21.458,1.945,32.321,2.264,54.063,1.549,117.139-10.157,153.04-40.558,34.679-29.386,99.717-31.753,146.92-14.2l.706.267q5.328,2.031,10.329,4.373c34.783,16.354,58.083,44.363,61.371,73.671a63.95,63.95,0,0,1,.293,10.966.458.458,0,0,1,0,.112c-2.255,36.057-31.727,66.338-61.655,96.67-3.7,3.744-7.411,7.488-11.078,11.259a396.724,396.724,0,0,0-27.277,30.35,142.324,142.324,0,0,0-10.26,14.719,95.058,95.058,0,0,0-7.291,14.822,61.649,61.649,0,0,0-4.02,16.612,43.44,43.44,0,0,0,4.3,23.757l.078.172c7.988,15.838,24.893,27.062,44.466,37.012,3.607,1.842,7.316,3.632,11.078,5.405,21.226,10.019,44.1,19.324,61.483,31.693a92.193,92.193,0,0,1,13.066,11.017,66.6,66.6,0,0,1,4.614,5.311,46.6,46.6,0,0,1,10.054,28.138C1000.341,525.423,1000.341,525.655,1000.341,525.887Z" transform="translate(-45.067 -75.83)"/><path d="M1049.478,118.819V300.23c-3.7,3.753-7.411,7.5-11.078,11.267V114.18Z" transform="translate(-183.395 -81.17)"/><path d="M980.561,216.126a.483.483,0,0,1,0,.112H101.182a81.953,81.953,0,0,1-.456-11.078H980.268a63.925,63.925,0,0,1,.293,10.966Z" transform="translate(-52.814 -93.84)"/><circle cx="3.228" cy="3.228" r="3.228" transform="translate(204.524 58.582)"/><circle cx="3.228" cy="3.228" r="3.228" transform="translate(101.148 52.118)"/><circle cx="1.386" cy="1.386" r="1.386" transform="translate(242.827 60.424)"/><circle cx="1.386" cy="1.386" r="1.386" transform="translate(138.987 57.196)"/><circle cx="1.386" cy="1.386" r="1.386" transform="translate(137.61 153.987)"/><circle cx="1.386" cy="1.386" r="1.386" transform="translate(776.773 80.841)"/><circle cx="1.386" cy="1.386" r="1.386" transform="translate(307.434 82.115)"/><circle cx="1.386" cy="1.386" r="1.386" transform="translate(708.472 79.343)"/><circle cx="1.386" cy="1.386" r="1.386" transform="translate(882.919 83.501)"/><path d="M1008.269,566.664V568.2c-.439,15.993-9.3,31.942-25.547,43.166-17.112,11.809-40.059,18.024-63.618,21.992-3.684.62-7.385,1.179-11.078,1.721-1.885.258-3.762.516-5.629.757-12.911,1.722-25.891,3.039-38.914,4.14-17.473,1.48-35.032,2.5-52.609,3.262-22.569.99-45.18,1.549-67.766,2.109-44.148,1.085-88.33,2.169-132.555,2.918l-15.691.258-19.143.258-11.069.129c-69.72.74-139.337.362-208.834-2.479q-6.938-.275-13.849-.6-15.493-.68-30.987-1.575c-20.7-1.171-41.565-2.651-62.206-4.846q-8.212-.861-16.354-1.9-5.552-.68-11.069-1.489-6.146-.861-12.24-1.876c-30.126-4.923-59.211-12.05-86.031-22.913A223.24,223.24,0,0,1,102,601.473V449.982c3.822-4.433,7.618-8.866,11.267-13.35,4.39-5.388,8.607-10.94,12.481-16.638h83.32V368.65H355.825V481.528H594.862V392.011H870.645a96.4,96.4,0,0,0-7.222,14.331v.482H863.1a61.651,61.651,0,0,0-4.02,16.612,43.442,43.442,0,0,0,4.3,23.757v.361l.077.172c7.988,15.838,24.893,27.062,44.466,37.012,3.607,1.842,7.316,3.632,11.078,5.406,21.011,9.916,43.648,19.143,60.966,31.331l.516.362a92.614,92.614,0,0,1,12.748,10.656c.129.121.241.241.353.362a66.567,66.567,0,0,1,4.614,5.311,46.661,46.661,0,0,1,10.053,27.776C1008.269,566.2,1008.269,566.432,1008.269,566.664Z" transform="translate(-52.995 -116.607)"/><path class="i" d="M1008.269,566.664V568.2c-.439,15.993-9.3,31.942-25.547,43.166-17.112,11.809-40.059,18.024-63.618,21.992-3.684.62-7.385,1.179-11.078,1.721-1.885.258-3.762.516-5.629.757-12.911,1.722-25.891,3.039-38.914,4.14-17.473,1.48-35.032,2.5-52.609,3.262-22.569.99-45.18,1.549-67.766,2.109-44.148,1.085-88.33,2.169-132.555,2.918l-15.691.258-19.143.258-11.069.129c-69.72.74-139.337.362-208.834-2.479q-6.938-.275-13.849-.6-15.493-.68-30.987-1.575c-20.7-1.171-41.565-2.651-62.206-4.846q-8.212-.861-16.354-1.9-5.552-.68-11.069-1.489-6.146-.861-12.24-1.876c-30.126-4.923-59.211-12.05-86.031-22.913A223.24,223.24,0,0,1,102,601.473V449.982c3.822-4.433,7.618-8.866,11.267-13.35,4.39-5.388,8.607-10.94,12.481-16.638h83.32V368.65H355.825V481.528H594.862V392.011H870.645a96.4,96.4,0,0,0-7.222,14.331v.482H863.1a61.651,61.651,0,0,0-4.02,16.612,43.442,43.442,0,0,0,4.3,23.757v.361l.077.172c7.988,15.838,24.893,27.062,44.466,37.012,3.607,1.842,7.316,3.632,11.078,5.406,21.011,9.916,43.648,19.143,60.966,31.331l.516.362a92.614,92.614,0,0,1,12.748,10.656c.129.121.241.241.353.362a66.567,66.567,0,0,1,4.614,5.311,46.661,46.661,0,0,1,10.053,27.776C1008.269,566.2,1008.269,566.432,1008.269,566.664Z" transform="translate(-52.995 -116.607)"/><rect class="j" width="24.617" height="16.612" transform="translate(76.376 324.32)"/><rect class="j" width="24.617" height="16.612" transform="translate(115.764 324.32)"/><rect class="j" width="24.617" height="16.612" transform="translate(568.025 290.174)"/><rect class="j" width="24.617" height="16.612" transform="translate(634.483 290.174)"/><rect class="j" width="24.617" height="16.612" transform="translate(705.856 290.174)"/><rect class="j" width="24.617" height="16.612" transform="translate(568.025 340.941)"/><rect class="j" width="24.617" height="16.612" transform="translate(634.483 340.941)"/><rect width="24.617" height="16.612" transform="translate(705.856 340.941)"/><rect class="j" width="24.617" height="16.612" transform="translate(568.025 391.699)"/><rect class="j" width="24.617" height="16.612" transform="translate(634.483 391.699)"/><rect class="j" width="24.617" height="16.612" transform="translate(705.856 391.699)"/><rect class="j" width="24.617" height="16.612" transform="translate(568.025 442.466)"/><rect class="j" width="24.617" height="16.612" transform="translate(634.483 442.466)"/><rect class="j" width="24.617" height="16.612" transform="translate(705.856 442.466)"/><rect class="j" width="24.617" height="16.612" transform="translate(568.025 493.232)"/><rect class="j" width="24.617" height="16.612" transform="translate(634.483 493.232)"/><rect class="j" width="24.617" height="16.612" transform="translate(705.856 493.232)"/><path class="j" d="M983.445,413a61.646,61.646,0,0,0-4.02,16.612H965.92V413Z" transform="translate(-173.301 -122.783)"/><rect width="24.617" height="16.612" transform="translate(792.619 340.941)"/><rect class="j" width="24.617" height="16.612" transform="translate(792.619 391.699)"/><rect class="j" width="24.617" height="16.612" transform="translate(792.619 442.466)"/><rect class="j" width="24.617" height="16.612" transform="translate(792.619 493.232)"/><rect class="j" width="24.617" height="16.612" transform="translate(212.985 270.79)"/><rect width="24.617" height="16.612" transform="translate(212.985 308.035)"/><rect class="j" width="24.617" height="16.612" transform="translate(212.985 345.27)"/><rect class="j" width="24.617" height="16.612" transform="translate(212.985 382.515)"/><rect class="j" width="24.617" height="16.612" transform="translate(212.985 419.75)"/><rect class="j" width="24.617" height="16.612" transform="translate(212.985 456.995)"/><rect class="j" width="24.617" height="16.612" transform="translate(212.985 494.231)"/><rect class="j" width="24.617" height="16.612" transform="translate(76.376 367.736)"/><rect class="j" width="24.617" height="16.612" transform="translate(115.764 367.736)"/><rect class="j" width="24.617" height="16.612" transform="translate(76.376 411.152)"/><rect class="j" width="24.617" height="16.612" transform="translate(115.764 411.152)"/><rect class="j" width="24.617" height="16.612" transform="translate(76.376 454.568)"/><rect class="j" width="24.617" height="16.612" transform="translate(115.764 454.568)"/><rect class="j" width="123.069" height="14.848" transform="translate(352.047 384.279)"/><rect class="j" width="123.069" height="14.848" transform="translate(352.047 431.655)"/><rect class="j" width="123.069" height="14.848" transform="translate(352.047 479.039)"/><path d="M251.669,76.436v519.89q-5.552-.68-11.069-1.489V75.92C244.293,75.989,247.977,76.178,251.669,76.436Z" transform="translate(-72.296 -75.843)"/><path d="M650.569,174.931v446.3l-11.069.129V173.58Q645.026,174.329,650.569,174.931Z" transform="translate(-127.845 -89.442)"/><path d="M985.71,557.208H45.39a69.909,69.909,0,0,1,1.919-11.078H972.678A91.117,91.117,0,0,1,985.71,557.208Z" transform="translate(-45.112 -141.322)"/><path d="M1038.4,503.06c3.606,1.842,7.316,3.632,11.078,5.405V651.711c-3.684.62-7.385,1.179-11.078,1.721Z" transform="translate(-183.395 -135.324)"/><path d="M336.584,229.467h-2.117V227.35h-.379v2.117H331.97v.379h2.117v2.117h.379v-2.117h2.117Z" transform="translate(-46.192 -31.66)"/><path d="M847.864,178.337h-2.117V176.22h-.387v2.117H843.25v.379h2.109v2.117h.387v-2.117h2.117Z" transform="translate(-117.391 -24.54)"/><path d="M394.854,168.387h-2.117V166.27h-.387v2.117H390.24v.387h2.109v2.109h.387v-2.109h2.117Z" transform="translate(-54.306 -23.154)"/><circle cx="1.386" cy="1.386" r="1.386" transform="translate(335.934 279.182)"/><circle cx="1.386" cy="1.386" r="1.386" transform="translate(651.973 155.373)"/><circle cx="1.386" cy="1.386" r="1.386" transform="translate(791.233 221.005)"/><circle cx="1.386" cy="1.386" r="1.386" transform="translate(573.138 232.892)"/><path d="M871.909,637s-5.844,27.225,20.167,30.453l1.61-3.021S873.545,645.5,871.909,637Z" transform="translate(-160.131 -153.976)"/><path d="M903.29,662.037l-6.025,1.283-.6.129s-16.139-13.1-15.932-42.349a73.174,73.174,0,0,0,7.7,12.2C894.812,641.758,902.085,653.059,903.29,662.037Z" transform="translate(-161.438 -151.762)"/><path d="M906.993,663.215a3.813,3.813,0,0,1-3.254.422C888.246,660,893.454,609.41,893.454,609.41c.861.4,1.8,6.886,5.371,15.149C905.091,639.183,911.977,659.548,906.993,663.215Z" transform="translate(-163.093 -150.134)"/><path d="M945.034,637s1.007,27.225-25,30.453l-1.61-3.021S943.425,645.5,945.034,637Z" transform="translate(-166.687 -153.976)"/><path d="M936.246,621.1c.189,29.265-20.778,42.349-20.778,42.349l-.6-.129-6.025-1.283c1.2-8.977,8.487-20.279,14.874-28.74a65.412,65.412,0,0,1,12.532-12.2Z" transform="translate(-165.352 -151.762)"/><path d="M914.165,660.568a9.623,9.623,0,0,1-3.443,2.651h0a6.626,6.626,0,0,1-1.265.422c-3.822.861-5.165-1.859-4.941-6.542.362-8.341,5.6-22.8,10.329-33.569,3.391-7.8,8.926-13.7,9.752-14.09C924.546,609.4,924.313,648.81,914.165,660.568Z" transform="translate(-164.747 -150.138)"/><path d="M909.318,588.77s-17.344,61.509-2.419,70.788S913.149,594.219,909.318,588.77Z" transform="translate(-164.239 -147.26)"/><path class="k" d="M871.909,637s-5.844,27.225,20.167,30.453l1.61-3.021S873.545,645.5,871.909,637Z" transform="translate(-160.131 -153.976)"/><path class="k" d="M903.29,662.037l-6.025,1.283-.6.129s-16.139-13.1-15.932-42.349a73.174,73.174,0,0,0,7.7,12.2C894.812,641.758,902.085,653.059,903.29,662.037Z" transform="translate(-161.438 -151.762)"/><path class="k" d="M906.993,663.215a3.813,3.813,0,0,1-3.254.422C888.246,660,893.454,609.41,893.454,609.41c.861.4,1.8,6.886,5.371,15.149C905.091,639.183,911.977,659.548,906.993,663.215Z" transform="translate(-163.093 -150.134)"/><path class="k" d="M945.034,637s1.007,27.225-25,30.453l-1.61-3.021S943.425,645.5,945.034,637Z" transform="translate(-166.687 -153.976)"/><path class="k" d="M936.246,621.1c.189,29.265-20.778,42.349-20.778,42.349l-.6-.129-6.025-1.283c1.2-8.977,8.487-20.279,14.874-28.74a65.412,65.412,0,0,1,12.532-12.2Z" transform="translate(-165.352 -151.762)"/><path class="k" d="M914.165,660.568a9.623,9.623,0,0,1-3.443,2.651h0a6.626,6.626,0,0,1-1.265.422c-3.822.861-5.165-1.859-4.941-6.542.362-8.341,5.6-22.8,10.329-33.569,3.391-7.8,8.926-13.7,9.752-14.09C924.546,609.4,924.313,648.81,914.165,660.568Z" transform="translate(-164.747 -150.138)"/><path class="k" d="M909.318,588.77s-17.344,61.509-2.419,70.788S913.149,594.219,909.318,588.77Z" transform="translate(-164.239 -147.26)"/><path d="M871.976,637s-3.443,27.225,22.586,30.453l1.61-3.021S873.611,645.5,871.976,637Z" transform="translate(-160.198 -153.976)"/><path d="M905.707,662.037l-6.025,1.283-.611.129s-18.558-13.1-18.351-42.349c0,0,4.751,5.1,10.122,12.2C897.229,641.758,904.5,653.059,905.707,662.037Z" transform="translate(-161.436 -151.762)"/><path class="k" d="M907.345,664.01l-6.025,1.283c-5.741-5.035-8.014-18.179-8.84-30.023C898.867,643.731,906.14,655.033,907.345,664.01Z" transform="translate(-163.074 -153.735)"/><path d="M909.516,663.215a3.813,3.813,0,0,1-3.254.422c-15.536-3.632-12.7-54.227-12.7-54.227.861.4,4.218,6.886,7.747,15.149C907.613,639.183,914.5,659.548,909.516,663.215Z" transform="translate(-163.196 -150.134)"/><path d="M945.425,637s3.443,27.225-22.586,30.453l-1.61-3.021S943.816,645.5,945.425,637Z" transform="translate(-167.078 -153.976)"/><path d="M936.637,621.1c.189,29.265-18.36,42.349-18.36,42.349l-.6-.129-6.025-1.283c1.205-8.977,8.487-20.279,14.874-28.74C931.878,626.178,936.637,621.1,936.637,621.1Z" transform="translate(-165.744 -151.762)"/><path class="k" d="M926.5,635.27c-.775,11.052-2.8,23.24-7.7,28.9a9.894,9.894,0,0,1-1.119,1.128l-6.025-1.282C912.812,655.033,920.111,643.731,926.5,635.27Z" transform="translate(-165.744 -153.735)"/><path d="M916.974,660.568a9.625,9.625,0,0,1-3.443,2.651h0a6.7,6.7,0,0,1-1.274.422c-3.822.861-5.164-1.859-4.941-6.542.37-8.341,5.6-22.8,10.329-33.569,3.391-7.8,6.507-13.7,7.333-14.09C924.936,609.4,927.122,648.81,916.974,660.568Z" transform="translate(-165.137 -150.138)"/><path class="k" d="M910.66,665.666a4.3,4.3,0,0,1-2.453-.783c-7.308-4.553-7.454-21.639-5.715-37.873C908.758,641.634,915.644,662,910.66,665.666Z" transform="translate(-164.341 -152.585)"/><path class="k" d="M916.978,662.848c-.861,1.816-1.971,2.78-3.443,2.651h0a4.941,4.941,0,0,1-2.083-.783,11.088,11.088,0,0,1-4.132-5.337c.37-8.341,5.6-22.8,10.329-33.569C919.284,640.778,919.844,656.694,916.978,662.848Z" transform="translate(-165.141 -152.418)"/><path d="M909.617,588.77s-14.925,61.509,0,70.788S913.447,594.219,909.617,588.77Z" transform="translate(-164.537 -147.26)"/><path d="M888.8,591.66H826.69v10.286h9.477l.232,1.214,3.8,19.961H876.3l3.8-19.961.232-1.214h8.47Z" transform="translate(-115.085 -82.392)"/><path class="k" d="M888.771,591.66H826.66v10.286h9.477l.232,1.214,3.8,19.961h36.108l3.8-19.961.232-1.214h8.47Z" transform="translate(-115.08 -82.392)"/><path d="M885.353,598.69l-1.041,5.449-3.8,19.961H844.407l-3.8-19.961-1.042-5.449Z" transform="translate(-116.878 -83.371)"/><path class="k" d="M885.353,598.69l-1.041,5.449h-43.7l-1.042-5.449Z" transform="translate(-116.878 -83.371)"/><rect width="62.111" height="10.286" transform="translate(714.024 509.268)"/><path d="M321.414,589.884a15.879,15.879,0,0,0-2.1,3.959c-.129.344-.258.74-.387,1.119a3.062,3.062,0,0,0-.732-.25,10.165,10.165,0,0,0-3.288-.284c0-.43.043-.861.06-1.351.138-4.872-.439-11.646-5.078-8.78-4.45,2.772-1.274,7.368,1.6,10.329.25.258.491.491.732.723-2.582,1.885-3.116,6.215-3.555,10.751s-4.3,9.468-6.834,12.309c-.25.284-.491.542-.723.783a9.279,9.279,0,0,0-7.42-1.911l-.344-1.257c-2.066-7.463-6.361-20.391-11.835-23.24l.723-.912c2.324-3.047,4.941-7.566,1.076-8.719s-4.218,3.916-4,7.747a12.994,12.994,0,0,0,.112,1.351,5.706,5.706,0,0,0-4.054,1.971c-.181-.224-.379-.456-.594-.706-3.133-3.71-8.892-9.571-10.63-5.164-1.618,4.132,3.443,9.468,7.006,12.618l.224.189c-2.393,9.709,8.039,17.611,13.669,21.071.25.164.491.31.723.448-7.747,9.133-12.541,26.261-12.541,26.261l21.742,3.951s14.4-12.421,12.558-24.1h.146c14.383-2.883,17.654-18.222,15.416-27.329l.25-.1A16.354,16.354,0,0,0,330,596.322C333.989,590.745,325.545,584.418,321.414,589.884Z" transform="translate(-75.531 -146.454)"/><path class="k" d="M321.414,589.884a15.879,15.879,0,0,0-2.1,3.959c-.129.344-.258.74-.387,1.119a3.062,3.062,0,0,0-.732-.25,10.165,10.165,0,0,0-3.288-.284c0-.43.043-.861.06-1.351.138-4.872-.439-11.646-5.078-8.78-4.45,2.772-1.274,7.368,1.6,10.329.25.258.491.491.732.723-2.582,1.885-3.116,6.215-3.555,10.751s-4.3,9.468-6.834,12.309c-.25.284-.491.542-.723.783a9.279,9.279,0,0,0-7.42-1.911l-.344-1.257c-2.066-7.463-6.361-20.391-11.835-23.24l.723-.912c2.324-3.047,4.941-7.566,1.076-8.719s-4.218,3.916-4,7.747a12.994,12.994,0,0,0,.112,1.351,5.706,5.706,0,0,0-4.054,1.971c-.181-.224-.379-.456-.594-.706-3.133-3.71-8.892-9.571-10.63-5.164-1.618,4.132,3.443,9.468,7.006,12.618l.224.189c-2.393,9.709,8.039,17.611,13.669,21.071.25.164.491.31.723.448-7.747,9.133-12.541,26.261-12.541,26.261l21.742,3.951s14.4-12.421,12.558-24.1h.146c14.383-2.883,17.654-18.222,15.416-27.329l.25-.1A16.354,16.354,0,0,0,330,596.322C333.989,590.745,325.545,584.418,321.414,589.884Z" transform="translate(-75.531 -146.454)"/><path d="M278.42,596.786l-2.539,7.437a41.041,41.041,0,0,1-3.193-2.582c-3.563-3.116-8.607-8.487-7.006-12.618,1.721-4.441,7.5,1.42,10.639,5.164C277.576,595.667,278.42,596.786,278.42,596.786Z" transform="translate(-75.746 -147.073)"/><path d="M286.269,591.94a36.77,36.77,0,0,1-2.47,2.909,38.1,38.1,0,0,1-.456-3.908c-.207-3.8.189-8.857,4-7.747S288.593,588.893,286.269,591.94Z" transform="translate(-78.242 -146.462)"/><path d="M323.612,593.211c-.086,2.444-.318,4.4-.318,4.4a32.289,32.289,0,0,1-3.168-2.832c-2.875-2.978-6.025-7.575-1.592-10.329C323.173,581.565,323.741,588.339,323.612,593.211Z" transform="translate(-82.842 -146.562)"/><path d="M340.287,597.084a16.352,16.352,0,0,1-6.662,5.035,18.005,18.005,0,0,1-2.238.809l-2.987-4.2a30.13,30.13,0,0,1,1.239-4.08,15.608,15.608,0,0,1,2.1-3.959C335.871,585.2,344.307,591.523,340.287,597.084Z" transform="translate(-84.523 -147.233)"/><path class="k" d="M277.5,595.26c1.257,1.48,2.1,2.582,2.1,2.582l-2.539,7.437a41,41,0,0,1-3.193-2.582,14.564,14.564,0,0,1,2.858-6.533Q277.115,595.7,277.5,595.26Z" transform="translate(-76.929 -148.164)"/><path class="k" d="M286.277,593.218a36.74,36.74,0,0,1-2.47,2.909,38.084,38.084,0,0,1-.456-3.908A5.044,5.044,0,0,1,286.277,593.218Z" transform="translate(-78.249 -147.74)"/><path d="M297.416,622.924l-6.309,2.78a37.8,37.8,0,0,1-3.365-1.9c-6.636-4.08-19.978-14.349-11.035-26.459s16.406,9.606,19.341,20.228C296.943,620.746,297.416,622.924,297.416,622.924Z" transform="translate(-76.908 -147.956)"/><path class="k" d="M320.74,596.307a5.165,5.165,0,0,1,3.486-1.567c-.086,2.444-.318,4.4-.318,4.4a32.3,32.3,0,0,1-3.168-2.832Z" transform="translate(-83.456 -148.091)"/><path class="k" d="M333.625,603.1a17.976,17.976,0,0,1-2.238.809l-2.987-4.2a30.13,30.13,0,0,1,1.239-4.08C331.568,596.758,332.988,599.564,333.625,603.1Z" transform="translate(-84.523 -148.215)"/><path d="M314.207,630.619c-.344.069-.706.138-1.059.189-21.166,3.219-6.981-8.2-6.981-8.2s.955-.861,2.247-2.307c2.582-2.823,6.4-7.747,6.834-12.309.663-6.886,1.429-13.3,9.528-11.4C332.721,598.445,334.236,626.608,314.207,630.619Z" transform="translate(-80.779 -148.301)"/><rect width="40.438" height="10.63" transform="translate(192.602 535.013)"/><rect width="52.832" height="37.107" transform="translate(186.173 500.454)"/><rect class="k" width="40.438" height="10.63" transform="translate(192.602 535.013)"/><rect class="k" width="52.832" height="37.107" transform="translate(186.173 500.454)"/><rect width="40.438" height="10.63" transform="translate(195.254 535.013)"/><path class="k" d="M298.316,621.42c.861,3.176,1.369,5.354,1.369,5.354l-6.309,2.78a37.794,37.794,0,0,1-3.366-1.9C292.48,624.5,295.269,622.152,298.316,621.42Z" transform="translate(-79.177 -151.806)"/><path class="k" d="M314.207,634.51c-.344.069-.706.138-1.059.189-21.166,3.219-6.981-8.2-6.981-8.2s.955-.861,2.247-2.307C312.365,627.349,313.983,630.912,314.207,634.51Z" transform="translate(-80.779 -152.192)"/><path d="M276.29,654.537s11.852-42.417,28.465-29.351S298,658.419,298,658.419Z" transform="translate(-77.266 -151.983)"/><circle class="k" cx="1.326" cy="1.326" r="1.326" transform="translate(203.68 454.714)"/><circle class="k" cx="1.326" cy="1.326" r="1.326" transform="translate(203.568 460.911)"/><circle class="k" cx="1.326" cy="1.326" r="1.326" transform="translate(242.113 455.928)"/><circle class="k" cx="1.326" cy="1.326" r="1.326" transform="translate(211.1 487.715)"/><circle class="k" cx="1.326" cy="1.326" r="1.326" transform="translate(239.35 466.231)"/><circle class="k" cx="1.326" cy="1.326" r="1.326" transform="translate(225.612 479.968)"/><circle class="k" cx="1.326" cy="1.326" r="1.326" transform="translate(208.225 457.365)"/><circle class="k" cx="1.326" cy="1.326" r="1.326" transform="translate(238.463 459.913)"/><circle class="k" cx="1.326" cy="1.326" r="1.326" transform="translate(233.918 470.216)"/><circle class="k" cx="1.326" cy="1.326" r="1.326" transform="translate(219.966 486.725)"/><circle class="k" cx="1.326" cy="1.326" r="1.326" transform="translate(217.082 480.183)"/><circle class="k" cx="1.326" cy="1.326" r="1.326" transform="translate(210.213 465.456)"/><rect class="k" width="40.438" height="3.882" transform="translate(195.254 535.013)"/><rect width="52.832" height="37.107" transform="translate(188.832 500.454)"/><circle class="k" cx="1.326" cy="1.326" r="1.326" transform="translate(221.739 492.707)"/><circle class="k" cx="1.326" cy="1.326" r="1.326" transform="translate(213.76 494.369)"/></g></g></svg>