<svg xmlns="http://www.w3.org/2000/svg" xmlns:xlink="http://www.w3.org/1999/xlink" viewBox="0 0 1659.059 1688.22"><defs><style>.j{opacity:.1}.f{opacity:.2}.g{fill:#fff}</style><linearGradient id="a" x1=".5" y1="1" x2=".5" gradientUnits="objectBoundingBox"><stop offset="0" stop-color="gray" stop-opacity=".251"/><stop offset=".54" stop-color="gray" stop-opacity=".122"/><stop offset="1" stop-color="gray" stop-opacity=".102"/></linearGradient><linearGradient id="b" x1=".5" y1="1" x2=".5" xlink:href="#a"/><linearGradient id="c" x1=".5" y1="1" x2=".5" xlink:href="#a"/><linearGradient id="d" x1=".502" y1="1" x2=".502" y2=".002" xlink:href="#a"/></defs><path d="M1340.495 1122.702c-.491-73.195 64.943-128.834 128.938-164.41 21.422-11.904 44.638-24.072 56.243-45.652 14.19-26.393 6.597-59.627-8.263-85.66-27.09-47.438-77.864-80.54-132.205-86.172-46.967-4.867-94.493 9.578-141.307 3.38-78.354-10.398-137.721-75.464-179.42-142.553-29.514-47.465-59.317-102.545-112.905-118.447-37.71-11.182-79 .771-112.501 21.384-16.162 9.97-31.803 22.18-50.463 25.557-11.11 1.983-22.56.636-33.627-1.6-101.047-20.43-178.21-111.29-280.202-126.146-68.892-10.032-139.212 17.313-194.128 60.095s-96.704 99.905-135.875 157.565c-27.821 40.917-55.751 85.974-54.177 135.422 1.613 52.213 37.664 99.186 83.28 124.85s99.43 32.867 151.767 32.764c65.417-.133 133.912-10.363 193.946 15.62 40.988 17.703 73.04 50.294 106.925 79.225 56.614 48.374 120.205 87.825 183.905 126.41 60.975 36.953 122.861 73.558 190.34 96.672 47.723 16.386 96.088 16.48 144.408 27.768 31.487 7.362 59.08 24.066 91.592 27.565 40.04 4.3 87.423-5.495 106.83-44.884 18.45-37.408-2.857-79.912-3.101-118.753z" opacity=".1" fill="#6c63ff"/><g transform="rotate(-131 1541.59 1527.76)" opacity=".65"><path d="M2893.822 1860.436a119.774 119.774 0 0 1-23.7-.308c-86.51-9.573-204.31-6.844-300.339 52.647-132.808 82.274-340.943 11.84-432.756-26.478-70.151-29.266-106.578-100.949-84.695-168.234q.462-1.42.958-2.849c13.765-39.986 40.936-71.28 74.583-87.869 29.327-14.458 72.145-44.649 91.2-102.66 7.871-23.954 18.667-46.479 32.689-66.13 37.548-52.622 100.9-191.719 236.086-191.231a217.906 217.906 0 0 1 69.647 11.789c49.384 16.836 109.242 111.878 143.257 159.295 21.7 30.259 54.23 58.371 100.8 60.672 64.625 3.2 126.3 33.288 172.563 86.833a418.479 418.479 0 0 1 3.97 4.654c82.371 98.075 25.155 260.304-84.263 269.869z" fill="#6c63ff"/><circle cx="11.806" cy="11.806" r="11.806" transform="translate(2271.581 1827.199)" fill="url(#a)"/><circle class="f" cx="11.276" cy="11.276" r="11.276" transform="translate(2272.111 1827.73)"/><circle class="f" cx="8.216" cy="8.216" r="8.216" transform="rotate(45 -657.273 3655.99)"/><circle class="f" cx="11.961" cy="11.961" r="11.961" transform="rotate(135 932.477 1409.4)"/><circle class="g" cx="4.363" cy="4.363" r="4.363" transform="translate(2215.417 1604.366)"/><circle class="g" cx="4.363" cy="4.363" r="4.363" transform="translate(2526.82 1857.595)"/><circle class="g" cx="3.179" cy="3.179" r="3.179" transform="rotate(45 -789.19 3803.09)"/><circle class="g" cx="4.628" cy="4.628" r="4.628" transform="rotate(135 816.878 1357.576)"/><circle class="g" cx="2.438" cy="2.438" r="2.438" transform="translate(2344.812 1881.763)"/><circle class="g" cx="2.438" cy="2.438" r="2.438" transform="translate(2884.634 1763.704)"/><circle class="g" cx="2.438" cy="2.438" r="2.438" transform="translate(2745.187 1544.695)"/><circle class="g" cx="2.438" cy="2.438" r="2.438" transform="translate(2942.808 1651.633)"/><circle class="g" cx="4.363" cy="4.363" r="4.363" transform="translate(2292.412 1461.498)"/><path class="g" d="M2176.86 1761.069h-3.884v-3.884h-1.583v3.884h-3.884v1.583h3.884v3.875h1.583v-3.875h3.884zm97.527-1.711h-3.884v-3.884h-1.583v3.884h-3.884v1.583h3.884v3.875h1.583v-3.875h3.884zm154.679-257.838l-2.002-2.001 2.001-2.002-.815-.815-2.001 2.001-2.001-2-.816.815 2.001 2.001-1.997 1.997.815.815 1.997-1.996 2.001 2zm188.413 122.729l2.913-2.913 2.913 2.913 1.188-1.188-2.914-2.913 2.914-2.913-1.188-1.188-2.913 2.913-2.907-2.906-1.188 1.188 2.907 2.906-2.914 2.913zm-203.645 213.815h-3.884v-3.884h-1.583v3.884h-3.884v1.583h3.884v3.875h1.583v-3.875h3.884zm42.252-218.15l-2.002-2.001 2.001-2.002-.815-.815-2.001 2.001-2.001-2-.816.815 2.001 2.001-1.997 1.997.815.815 1.997-1.996 2.001 2zm63.634-15.979l2.914-2.913 2.913 2.913 1.188-1.188-2.914-2.913 2.914-2.913-1.188-1.188-2.913 2.913-2.907-2.906-1.188 1.188 2.907 2.906-2.914 2.913zm88.338-237.68h-1.771v-1.771h-.719v1.771h-1.77v.719h1.771v1.77h.719v-1.77h1.771zm252.373 162.545h-1.771v-1.771h-.719v1.771h-1.77v.719h1.771v1.77h.719v-1.771h1.771zm-148.857 106.082h-1.77v-1.771h-.719v1.771h-1.771v.719h1.771v1.77h.719v-1.771h1.771zm-605.696 66.73h-1.77v-1.771h-.719v1.771h-1.771v.719h1.771v1.77h.719v-1.77h1.77zm72.718 145.435h-1.77v-1.771h-.719v1.771h-1.771v.719h1.771v1.77h.719v-1.771h1.771zm228.419-459.405h-1.77v-1.771h-.719v1.771h-1.771v.719h1.771v1.77h.719v-1.77h1.771zm-107.793 255.795h-1.771v-1.771h-.719v1.771h-1.77v.719h1.771v1.77h.719v-1.771h1.771zm23.098-73.573h-1.771v-1.771h-.719v1.771h-1.77v.719h1.771v1.77h.719v-1.77h1.771z"/><circle cx="9.855" cy="9.855" r="9.855" transform="translate(2676.208 1719.936)" fill="url(#b)"/><circle class="f" cx="9.128" cy="9.128" r="9.128" transform="translate(2676.935 1720.663)"/><circle class="f" cx="10.206" cy="10.206" r="10.206" transform="translate(2700.435 1783.842)"/><path d="M784.53 352.248a29.643 29.643 0 0 0-8.752-7.742 29.369 29.369 0 1 0-14.732 54.8c.625 0 1.249 0 1.856-.06a29.369 29.369 0 0 0 21.584-46.993z" transform="translate(1912.56 1168.528)" fill="url(#c)"/><path class="f" d="M2701.411 1538.467a27.76 27.76 0 0 1-26 27.7c-.586 0-1.177.06-1.767.06a27.761 27.761 0 1 1 13.885-51.809 28.026 28.026 0 0 1 8.273 7.323 27.616 27.616 0 0 1 5.612 16.725z"/><path class="j" d="M2666.814 1520.852a30.223 30.223 0 0 0-4.141 2.182 6.553 6.553 0 0 0-2.216 1.985 2.567 2.567 0 0 0-.06 2.823c.676.924 1.976 1.069 3.123 1.129a5.92 5.92 0 0 0 5.672-1.874l2.387-2.164c.856-.753 1.711-1.788 1.377-2.84a2.515 2.515 0 0 0-2.028-1.369 8.418 8.418 0 0 0-5.988 1.052"/><circle cx="1.463" cy="1.463" r="1.463" transform="translate(2655.385 1547.963)"/><circle cx="5.355" cy="5.355" r="5.355" transform="translate(2681.195 1534.814)"/><path d="M2695.85 1521.742a7.306 7.306 0 1 1-8.273-7.323 28.027 28.027 0 0 1 8.273 7.323zm.497 32.706a27.693 27.693 0 0 1-20.934 11.72c0-.376-.051-.77-.051-1.155a13.149 13.149 0 0 1 20.994-10.557z"/><path d="M343.915 538.08a20.686 20.686 0 0 0-6.108-5.407 20.532 20.532 0 1 0-10.266 38.241c.436 0 .855 0 1.3-.043A20.489 20.489 0 0 0 343.9 538.08z" transform="translate(1973.948 1141.177)" fill="url(#d)"/><path class="f" d="M2320.875 1691.602a19.368 19.368 0 0 1-18.141 19.326h-1.227a19.369 19.369 0 1 1 9.684-36.145 19.549 19.549 0 0 1 5.766 5.133 19.266 19.266 0 0 1 3.918 11.686z"/><path class="j" d="M2296.732 1679.317a21.074 21.074 0 0 0-2.892 1.523 4.577 4.577 0 0 0-1.54 1.386 1.814 1.814 0 0 0 0 1.976 2.772 2.772 0 0 0 2.182.787 4.132 4.132 0 0 0 3.952-1.309l1.668-1.514c.582-.522 1.215-1.249.958-1.985a1.754 1.754 0 0 0-1.412-.958 5.869 5.869 0 0 0-4.166.736"/><circle cx="1.018" cy="1.018" r="1.018" transform="translate(2288.759 1698.224)"/><circle cx="3.739" cy="3.739" r="3.739" transform="translate(2306.768 1689.053)"/><path d="M2316.965 1679.933a5.133 5.133 0 1 1-5.775-5.133 19.548 19.548 0 0 1 5.775 5.133zm.376 22.816a19.317 19.317 0 0 1-14.612 8.175v-.813a9.179 9.179 0 0 1 14.646-7.366z"/></g></svg>