<svg xmlns="http://www.w3.org/2000/svg" xmlns:xlink="http://www.w3.org/1999/xlink" viewBox="0 0 1659.059 1688.22"><defs><style>.a,.c{fill:#6c63ff;}.a,.j,.k{opacity:0.1;}.b{opacity:0.65;}.d{opacity:0.7;}.e{fill:url(#a);}.f{opacity:0.2;}.g{fill:#fff;}.h{fill:url(#b);}.i{fill:url(#c);}.l{fill:url(#d);}</style><linearGradient id="a" x1="0.5" y1="1" x2="0.5" gradientUnits="objectBoundingBox"><stop offset="0" stop-color="gray" stop-opacity="0.251"/><stop offset="0.54" stop-color="gray" stop-opacity="0.122"/><stop offset="1" stop-color="gray" stop-opacity="0.102"/></linearGradient><linearGradient id="b" x1="0.5" y1="1" x2="0.5" y2="0" xlink:href="#a"/><linearGradient id="c" x1="0.5" y1="1" x2="0.5" y2="0" xlink:href="#a"/><linearGradient id="d" x1="0.502" y1="1" x2="0.502" y2="0.002" xlink:href="#a"/></defs><g transform="translate(292.899 319.67)"><path class="a" d="M340.189,832.774c58.731,43.636,63.791,129.344,53.7,201.834-3.383,24.263-7.633,50.117,2.615,72.362,12.536,27.205,43.636,41.134,73.357,44.929,54.168,6.908,111.137-13.716,148.32-53.713,32.137-34.568,49.193-81.2,82.3-114.846,55.433-56.3,143.089-64.558,221.733-57.494,55.646,4.989,117.547,14.327,162.476-18.89,31.611-23.381,46.905-63.535,50.6-102.679,1.762-18.9,1.421-38.732,9.95-55.661,5.1-10.063,13.062-18.393,21.505-25.883C1243.836,654.35,1362.79,647.4,1436,574.91c49.449-48.966,69.917-121.555,68.794-191.131s-21.591-137.3-44.062-203.255C1444.8,133.7,1425.629,84.3,1385.205,55.813,1342.55,25.694,1283.364,26.22,1235.436,47.2s-86.049,59.612-117.448,101.457C1078.745,200.963,1045.712,261.8,988.857,294.1c-38.789,22.074-84.088,28.058-127.568,37.709-72.674,16.1-142.421,43.138-211.542,70.784-66.179,26.452-132.628,53.841-191.671,93.81-41.788,28.243-70.955,66.8-109.033,98.586-24.817,20.709-54.751,32.691-77.1,56.542-27.517,29.38-48.2,73.1-28.427,112.288C262.284,801.049,309.033,809.606,340.189,832.774Z" transform="matrix(-0.602, -0.799, 0.799, -0.602, 587.003, 1576.173)"/><g class="b" transform="translate(1107.051 3373.843) rotate(-131)"><path class="c" d="M880.21,661.345a119.774,119.774,0,0,1-23.7-.308C770,651.464,652.2,654.193,556.171,713.684c-132.808,82.274-340.943,11.84-432.756-26.478C53.264,657.94,16.837,586.257,38.72,518.972q.462-1.42.958-2.849c13.765-39.986,40.936-71.28,74.583-87.869,29.327-14.458,72.145-44.649,91.2-102.66,7.871-23.954,18.667-46.479,32.689-66.13,37.548-52.622,100.9-191.719,236.086-191.231a217.906,217.906,0,0,1,69.647,11.789C593.267,96.858,653.125,191.9,687.14,239.317c21.7,30.259,54.23,58.371,100.8,60.672,64.625,3.2,126.3,33.288,172.563,86.833,1.335,1.54,2.652,3.088,3.97,4.654C1046.844,489.551,989.628,651.78,880.21,661.345Z" transform="translate(2013.612 1199.091)"/><g class="d" transform="translate(2271.581 1827.199)"><circle class="e" cx="11.806" cy="11.806" r="11.806" transform="translate(0)"/></g><circle class="f" cx="11.276" cy="11.276" r="11.276" transform="translate(2272.111 1827.73)"/><circle class="f" cx="8.216" cy="8.216" r="8.216" transform="translate(2392.664 1535.577) rotate(45)"/><circle class="f" cx="11.961" cy="11.961" r="11.961" transform="translate(2588.434 1746.635) rotate(135)"/><circle class="g" cx="4.363" cy="4.363" r="4.363" transform="translate(2215.417 1604.366)"/><circle class="g" cx="4.363" cy="4.363" r="4.363" transform="translate(2526.82 1857.595)"/><circle class="g" cx="3.179" cy="3.179" r="3.179" transform="translate(2458.043 1671.941) rotate(45)"/><circle class="g" cx="4.628" cy="4.628" r="4.628" transform="translate(2354.449 1739.907) rotate(135)"/><circle class="g" cx="2.438" cy="2.438" r="2.438" transform="translate(2344.812 1881.763)"/><circle class="g" cx="2.438" cy="2.438" r="2.438" transform="translate(2884.634 1763.704)"/><circle class="g" cx="2.438" cy="2.438" r="2.438" transform="translate(2745.187 1544.695)"/><circle class="g" cx="2.438" cy="2.438" r="2.438" transform="translate(2942.808 1651.633)"/><circle class="g" cx="4.363" cy="4.363" r="4.363" transform="translate(2292.412 1461.498)"/><path class="g" d="M151.361,591.554h-3.884V587.67h-1.583v3.884H142.01v1.583h3.884v3.875h1.583v-3.875h3.884Z" transform="translate(2025.499 1169.515)"/><path class="g" d="M265.361,589.554h-3.884V585.67h-1.583v3.884H256.01v1.583h3.884v3.875h1.583v-3.875h3.884Z" transform="translate(2009.026 1169.804)"/><path class="g" d="M6.814,2.83H3.983V0H2.83V2.83H0V3.984H2.83V6.808H3.983V3.984h2.83Z" transform="translate(2426.249 1494.701) rotate(45)"/><path class="g" d="M9.919,4.12H5.8V0H4.12V4.12H0V5.8H4.12V9.91H5.8V5.8h4.12Z" transform="translate(2627.406 1620.148) rotate(135)"/><path class="g" d="M428.361,681.554h-3.884V677.67h-1.583v3.884H419.01v1.583h3.884v3.875h1.583v-3.875h3.884Z" transform="translate(1985.473 1156.51)"/><path class="g" d="M6.814,2.83H3.983V0H2.83V2.83H0V3.984H2.83V6.808H3.983V3.984h2.83Z" transform="translate(2453.269 1613.095) rotate(45)"/><path class="g" d="M9.919,4.12H5.8V0H4.12V4.12H0V5.8H4.12V9.91H5.8V5.8h4.12Z" transform="translate(2529.648 1599.834) rotate(135)"/><path class="g" d="M656.25,130.411h-1.771V128.64h-.719v1.771H651.99v.719h1.771V132.9h.719V131.13h1.771Z" transform="translate(1951.808 1235.844)"/><path class="g" d="M951.25,320.411h-1.771V318.64h-.719v1.771H946.99v.719h1.771V322.9h.719v-1.771h1.771Z" transform="translate(1909.181 1208.389)"/><path class="g" d="M777.25,444.411H775.48V442.64h-.719v1.771H772.99v.719h1.771V446.9h.719v-1.771h1.771Z" transform="translate(1934.324 1190.471)"/><path class="g" d="M69.25,522.411H67.48V520.64h-.719v1.771H64.99v.719h1.771V524.9h.719V523.13H69.25Z" transform="translate(2036.628 1179.201)"/><path class="g" d="M154.25,692.411H152.48V690.64h-.719v1.771H149.99v.719h1.771V694.9h.719v-1.771h1.771Z" transform="translate(2024.346 1154.636)"/><path class="g" d="M421.25,155.411H419.48V153.64h-.719v1.771H416.99v.719h1.771V157.9h.719V156.13h1.771Z" transform="translate(1985.765 1232.231)"/><path class="g" d="M295.25,454.411h-1.771V452.64h-.719v1.771H290.99v.719h1.771V456.9h.719v-1.771h1.771Z" transform="translate(2003.972 1189.026)"/><path class="g" d="M322.25,368.411h-1.771V366.64h-.719v1.771H317.99v.719h1.771V370.9h.719V369.13h1.771Z" transform="translate(2000.07 1201.453)"/><g class="d" transform="translate(2676.208 1719.936)"><circle class="h" cx="9.855" cy="9.855" r="9.855" transform="translate(0 0)"/></g><circle class="f" cx="9.128" cy="9.128" r="9.128" transform="translate(2676.935 1720.663)"/><circle class="f" cx="10.206" cy="10.206" r="10.206" transform="translate(2700.435 1783.842)"/><path class="i" d="M784.53,352.248h0a29.643,29.643,0,0,0-8.752-7.742h0a29.369,29.369,0,1,0-14.732,54.8c.625,0,1.249,0,1.856-.06a29.369,29.369,0,0,0,21.584-46.993Z" transform="translate(1912.56 1168.528)"/><path class="f" d="M789.123,370.211a27.76,27.76,0,0,1-26,27.7c-.586,0-1.177.06-1.767.06a27.761,27.761,0,1,1,13.885-51.809h0a28.026,28.026,0,0,1,8.273,7.323h0a27.616,27.616,0,0,1,5.612,16.725Z" transform="translate(1912.288 1168.256)"/><path class="j" d="M756.91,354.261a30.223,30.223,0,0,0-4.141,2.182,6.553,6.553,0,0,0-2.216,1.985,2.567,2.567,0,0,0-.06,2.823c.676.924,1.976,1.069,3.123,1.129a5.92,5.92,0,0,0,5.672-1.874l2.387-2.164c.856-.753,1.711-1.788,1.377-2.84a2.515,2.515,0,0,0-2.028-1.369,8.418,8.418,0,0,0-5.988,1.052" transform="translate(1909.904 1166.591)"/><g class="k" transform="translate(2655.385 1547.963)"><circle cx="1.463" cy="1.463" r="1.463" transform="translate(0 0)"/></g><g class="k" transform="translate(2681.195 1534.814)"><circle cx="5.355" cy="5.355" r="5.355" transform="translate(0 0)"/></g><g class="k" transform="translate(2681.238 1514.419)"><path d="M789.532,354.113h0a7.306,7.306,0,1,1-8.273-7.323h0a28.027,28.027,0,0,1,8.273,7.323Z" transform="translate(-774.92 -346.79)"/></g><g class="k" transform="translate(2675.361 1551.86)"><path d="M789.036,393.143a27.693,27.693,0,0,1-20.934,11.72c0-.376-.051-.77-.051-1.155a13.149,13.149,0,0,1,20.994-10.557Z" transform="translate(-768.05 -390.555)"/></g><path class="l" d="M343.915,538.08h0a20.686,20.686,0,0,0-6.108-5.407h0a20.532,20.532,0,1,0-10.266,38.241c.436,0,.855,0,1.3-.043A20.489,20.489,0,0,0,343.9,538.08Z" transform="translate(1973.948 1141.177)"/><path class="f" d="M347.148,550.621a19.368,19.368,0,0,1-18.141,19.326h-1.227a19.369,19.369,0,1,1,9.684-36.145h0a19.549,19.549,0,0,1,5.766,5.133h0A19.266,19.266,0,0,1,347.148,550.621Z" transform="translate(1973.727 1140.981)"/><path class="j" d="M324.672,539.505a21.074,21.074,0,0,0-2.892,1.523,4.577,4.577,0,0,0-1.54,1.386,1.814,1.814,0,0,0,0,1.976,2.772,2.772,0,0,0,2.182.787,4.132,4.132,0,0,0,3.952-1.309l1.668-1.514c.582-.522,1.215-1.249.958-1.985a1.754,1.754,0,0,0-1.412-.958,5.869,5.869,0,0,0-4.166.736" transform="translate(1972.06 1139.812)"/><g class="k" transform="translate(2288.759 1698.224)"><circle cx="1.018" cy="1.018" r="1.018" transform="translate(0 0)"/></g><g class="k" transform="translate(2306.768 1689.053)"><circle cx="3.739" cy="3.739" r="3.739" transform="translate(0 0)"/></g><g class="k" transform="translate(2306.699 1674.8)"><path d="M347.386,539.393h0a5.133,5.133,0,1,1-5.775-5.133h0a19.548,19.548,0,0,1,5.775,5.133Z" transform="translate(-337.12 -534.26)"/></g><g class="k" transform="translate(2302.729 1700.944)"><path d="M347.092,566.625A19.317,19.317,0,0,1,332.48,574.8v-.813a9.179,9.179,0,0,1,14.646-7.366Z" transform="translate(-332.48 -564.82)"/></g></g></g></svg>